<?xml version="1.0" encoding="UTF-8"?><svg id="Layer_1" xmlns="http://www.w3.org/2000/svg" viewBox="0 0 4964.8 5714.66"><rect width="4964.8" height="5714.66" fill="#1a2f5a"/><text transform="translate(1088.1941 464.3947)" fill="#fff" font-family="Arial-BoldMT, Arial" font-size="12" font-weight="700"><tspan x="0" y="0">Day to day</tspan><tspan x="60.686" y="0" letter-spacing="-.037em"> </tspan><tspan x="63.574" y="0">Activities</tspan></text><text transform="translate(1208.0286 541.045)" fill="#fff" font-family="Arial-BoldMT, Arial" font-size="12" font-weight="700"><tspan x="0" y="0">Leisure </tspan><tspan x="46.02" y="0" letter-spacing="-.018em">T</tspan><tspan x="53.133" y="0">ime</tspan></text><text transform="translate(992.504 540.53)" fill="#fff" font-family="Arial-BoldMT, Arial" font-size="12" font-weight="700"><tspan x="0" y="0" letter-spacing="-.018em">W</tspan><tspan x="11.109" y="0">ork &amp; Routines</tspan></text><text transform="translate(1014.8929 590.2457)" fill="#fff" font-family="Arial-BoldMT, Arial" font-size="12" font-weight="700"><tspan x="0" y="0" letter-spacing="-.018em">W</tspan><tspan x="11.109" y="0">orkflow of</tspan><tspan x="-33.021" y="14.4">Image &amp; </tspan><tspan x="16.995" y="14.4" letter-spacing="-.018em">V</tspan><tspan x="24.782" y="14.4">ideo Creation</tspan></text><text transform="translate(1198.0613 589.7657)" fill="#fff" font-family="Arial-BoldMT, Arial" font-size="12" font-weight="700"><tspan x="0" y="0" letter-spacing="-.018em">W</tspan><tspan x="11.109" y="0">orkflow of</tspan><tspan x="3.548" y="14.4">Reasoning</tspan></text><text transform="translate(1208.136 659.9904)" fill="#fff" font-family="Arial-BoldMT, Arial" font-size="12" font-weight="700"><tspan x="0" y="0">AI adoption</tspan><tspan x="-21.343" y="14.4">Reasoning &amp; Logic</tspan></text><text transform="translate(1020.2254 660.1227)" fill="#fff" font-family="Arial-BoldMT, Arial" font-size="12" font-weight="700"><tspan x="0" y="0">AI adoption</tspan><tspan x="-34.245" y="14.4">Image &amp; </tspan><tspan x="15.771" y="14.4" letter-spacing="-.018em">V</tspan><tspan x="23.558" y="14.4">ideo Creation</tspan></text><text transform="translate(817.807 591.401)" fill="#fff" font-family="Arial-BoldMT, Arial" font-size="12" font-weight="700"><tspan x="0" y="0" letter-spacing="-.018em">W</tspan><tspan x="11.109" y="0">orkflow of</tspan><tspan x="-17.669" y="14.4" letter-spacing="-.018em">W</tspan><tspan x="-6.56" y="14.4">riting &amp; Reading</tspan></text><text transform="translate(824.057 659.967)" fill="#fff" font-family="Arial-BoldMT, Arial" font-size="12" font-weight="700"><tspan x="0" y="0">AI adoption</tspan><tspan x="-38.232" y="14.4" letter-spacing="-.018em">W</tspan><tspan x="-27.123" y="14.4">riting &amp; Summarization</tspan></text><text transform="translate(467.159 395.741)" fill="#fff200" font-family="Arial-BoldMT, Arial" font-size="12" font-weight="700"><tspan x="0" y="0">Product Narrative Contribution in Day-to-day </tspan><tspan x="258.686" y="0" letter-spacing="-.018em">W</tspan><tspan x="269.795" y="0">orkflow</tspan></text><text transform="translate(850.7697 1091.025)" fill="#fff200" font-family="Arial-BoldMT, Arial" font-size="12" font-weight="700"><tspan x="0" y="0">Conversation Point Requiring</tspan><tspan x="-53.675" y="14.4">Solution Response or Product Recommendation</tspan></text><text transform="translate(615.228 920.989)" fill="#fff" font-family="Arial-BoldMT, Arial" font-size="12" font-weight="700"><tspan x="0" y="0">Horizontal &amp; </tspan><tspan x="73.998" y="0" letter-spacing="-.055em">V</tspan><tspan x="81.34" y="0">ertical</tspan><tspan x="-30.674" y="14.4">Conversation Expansions</tspan></text><text transform="translate(546.0817 1020.1847)" fill="#fff" font-family="Arial-BoldMT, Arial" font-size="12" font-weight="700"><tspan x="0" y="0">AI Build-up of User Preference &amp;</tspan><tspan x="74.684" y="14.4">Contextual Memory</tspan></text><text transform="translate(1364.4368 591.5568)" fill="#fff" font-family="Arial-BoldMT, Arial" font-size="12" font-weight="700"><tspan x="0" y="0" letter-spacing="-.018em">W</tspan><tspan x="11.109" y="0">orkflow of</tspan><tspan x="4.881" y="14.4">Questions</tspan></text><text transform="translate(1369.0208 658.6266)" fill="#fff" font-family="Arial-BoldMT, Arial" font-size="12" font-weight="700"><tspan x="0" y="0">AI adoption</tspan><tspan x="-31.342" y="14.4">Questions &amp; Solutions</tspan></text><text transform="translate(1483.866 752.0109)" fill="#fff" font-family="Arial-BoldMT, Arial" font-size="12" font-weight="700"><tspan x="0" y="0">Personal</tspan><tspan x="-3.993" y="14.4">Questions</tspan></text><text transform="translate(1372.8401 752.0104)" fill="#fff" font-family="Arial-BoldMT, Arial" font-size="12" font-weight="700"><tspan x="0" y="0">Reasoning</tspan><tspan x="4.67" y="14.4">Question</tspan></text><text transform="translate(922.777 752.01)" fill="#fff" font-family="Arial-BoldMT, Arial" font-size="12" font-weight="700"><tspan x="0" y="0">Knowledge / Research</tspan><tspan x="38.019" y="14.4">Question</tspan></text><text transform="translate(833.678 752.01)" fill="#fff" font-family="Arial-BoldMT, Arial" font-size="12" font-weight="700"><tspan x="0" y="0">Solution</tspan><tspan x="-2.007" y="14.4">Question</tspan></text><text transform="translate(1082.701 752.9366)" fill="#fff200" font-family="Arial-BoldMT, Arial" font-size="12" font-weight="700"><tspan x="0" y="0">Product Recommendation</tspan><tspan x="48.674" y="14.4">Question</tspan></text><text transform="translate(693.075 752.011)" fill="#fff" font-family="Arial-BoldMT, Arial" font-size="12" font-weight="700"><tspan x="0" y="0">Guidance/</tspan><tspan x="58.014" y="0" letter-spacing="-.018em">W</tspan><tspan x="69.123" y="0">orkflow</tspan><tspan x="29.895" y="14.4">Question</tspan></text><text transform="translate(1272.8323 752.9362)" fill="#fff" font-family="Arial-BoldMT, Arial" font-size="12" font-weight="700"><tspan x="0" y="0">Decision</tspan><tspan x="-.993" y="14.4">Question</tspan></text><text transform="translate(1664.8782 755.2482)" fill="#fff" font-family="Arial-BoldMT, Arial" font-size="12" font-weight="700"><tspan x="0" y="0">Nature of Question</tspan></text><text transform="translate(1164.4529 909.1754)" fill="#fff200" font-family="Arial-BoldMT, Arial" font-size="12" font-weight="700"><tspan x="0" y="0">User</tspan><tspan x="26.684" y="0" letter-spacing="-.037em"> </tspan><tspan x="29.572" y="0">Asks Question</tspan></text><text transform="translate(1385.5281 987.2985)" fill="#fff200" font-family="Arial-BoldMT, Arial" font-size="12" font-weight="700"><tspan x="0" y="0">What is the best product in Subject Matter XYZ?</tspan></text><text transform="translate(1385.5643 1026.4127)" fill="#fff200" font-family="Arial-BoldMT, Arial" font-size="12" font-weight="700"><tspan x="0" y="0">What product do you recommend fo</tspan><tspan x="205.998" y="0" letter-spacing="-.055em">r</tspan><tspan x="210.006" y="0">...Narrative XYZ?</tspan></text><text transform="translate(1434.6424 910.0514)" fill="#fff" font-family="Arial-BoldMT, Arial" font-size="12" font-weight="700"><tspan x="0" y="0">Question Prompt Narrative</tspan></text><circle cx="1140.163" cy="399.022" r="41.045" fill="#1a2f5a" stroke="#fff" stroke-miterlimit="10"/><path d="M1123.975,387.991c-.005-.266-.358-.674-.312-1.234-.159-.136-.318-.258-.498-.367l-.039-.78c-.13.134-.149.279-.181.433l-.117.562-.265.21c-.033.209-.068.413-.159.603-.065.136-.18.273-.209.422-.048.245-.053.492-.051.741.003.3-.075.565-.159.846l-.271.915c-.055.185.019.371.028.545l.036.677c-.197-.017-.239.164-.35.253-.156.125-.408.076-.601.053-.155-.342-.087-.449.167-.699.074-.152.124-.309.165-.471.074-.036.103-.108.102-.204l-.033-2.309c-.001-.074.062-.203.094-.263.221-.407.11-.707.235-1.129l-.365-.19c.032-.347.05-.674.118-1.009.079-.393.158-.773.178-1.176.026-.522.026-.826.334-1.324.043-.069.098-.105.099-.196.002-.324.074-.646.016-.964-.105-.57-.432-.991-.458-1.576-.021-.459.011-.628-.355-.909-.209-.161-.352-.339-.464-.579-.151-.326-.275-.664-.442-.981-.067-.127-.132-.219-.152-.371l-.155-1.154-.04-.732c-.003-.051-.034-.185-.081-.191-.061-.008-.163-.01-.235-.011-.031.397.025.95-.159,1.232-.15.002-.319.006-.455-.013-.103-.052-.116-.244-.112-.338l-.236-.024c-.049-.005-.082-.111-.103-.174-.071-.002-.224-.015-.285-.068-.073-.197-.102-.409-.119-.61l-.232-.018c-.102-.008-.164-.143-.152-.219.021-.129.112-.193.244-.19l.163.003c.023-.146.039-.298.097-.423.031-.066.214-.06.287-.041.026-.17.137-.251.311-.242.012-.146.044-.292.141-.411.104-.024.277-.036.386,0,.073.024.138.199.144.275l.07.842h.292c.01-.114.07-.169.172-.178l.367-.031c.149-.013.256.062.295.214h4.858c.077,0,.153-.133.211-.152.296-.099.512-.099.691.152l.429.002c.023-.351.041-.686.115-1.046.179-.013.343-.033.505.011.11.03.115.26.116.337.08.009.181.019.227.047.042.026.065.118.091.195.08-.035.282-.056.306.062l.078.386.263.014c.061.003.139.114.146.172s-.043.203-.103.209l-.284.028c-.018.192-.038.401-.111.59-.035.09-.211.099-.287.082-.012.034-.043.143-.078.165-.056.035-.184.038-.267.043.006.094-.002.314-.129.338-.132.024-.299.016-.441.014-.179-.297-.126-.839-.155-1.236l-.319.008c-.151.004-.163.146-.16.256.019.577.034,1.134-.073,1.699l-.101.385c-.168.232-.283.45-.337.733-.085.447-.374.81-.699,1.117l-.252.239c-.036.659-.204,1.26-.553,1.816-.04.064-.064.194-.059.269l.076,1.207c.215.294.327.638.348,1.017.046.821.113,1.608.214,2.433-.07.094-.215.121-.307.184-.123.085-.054.308-.005.422.073.17-.006.377.047.54.107.312.216.608.2.948l-.078,1.674c-.01.224.134.44.237.623l.222.396c.059.105.042.288.035.424-.411.085-.828.172-.8-.15.007-.079-.077-.144-.156-.185-.066-.648.127-1.069-.102-1.718-.097-.275-.191-.561-.24-.854-.051-.306-.01-.597-.016-.925ZM1123.454,377.297c.275.142.389.442.344.742-.021.142.208.177-.053.538l-.01.242c-.038.171-.054.294-.021.469.294-.124.315-.42.791-.497.095-.015.197-.107.218-.201.076-.351.294-.618.602-.8.109-.065.172-.137.176-.27.01-.431.104-.835.265-1.232.094-.232.13-.474.099-.71-.183.005-.306-.033-.424-.144h-4.689c-.026.084-.085.141-.154.15l-.211.028c-.046.534.234.876.317,1.34l.116.645c.494.238.688.601.954,1.048.303.086.556.22.715.509.032.059.096.112.182.157.007-.122.011-.217-.01-.312l-.083-.378c-.016-.07-.253-.332-.029-.457-.009-.129-.043-.311-.011-.456.087-.395.587-.582.918-.411Z" fill="#fff"/><path d="M1139.71,403.182c-.625-.004-1.23-.011-1.848-.05-.487-.031-.963-.081-1.444-.138v1.18c-.001.064-.055.115-.095.154-.144.12-.317.161-.502.161h-.646c-.216,0-.422-.05-.602-.174-.037-.035-.074-.105-.089-.162v-3.221s-.186-.031-.186-.031c-.046-.183-.097-.418-.047-.59.022-.074.079-.123.157-.135-.108-.41-.17-.82-.212-1.241-.009-.091-.01-.18,0-.273.009-.084.172-.153.286-.16-.049-.046-.082-.102-.059-.161.06-.157.123-.308.197-.459.064-.132.14-.248.237-.359.167-.19.397-.296.641-.365l-.006-.121c-.132,0-.261-.003-.397-.025-.079-.166-.119-.338-.113-.521.047-.096.302-.1.445-.101.168,0,.329,0,.495.023.045.087.058.167.075.265l.467-.949.548-1.009.459-.794.1.081c.028-.029.065-.069.109-.075.357-.049.707-.073,1.067-.082l.548-.013.412-.006.428-.022h.922s2.051.005,2.051.005l1.907.047.813.061c.073.005.136.043.187.087.031-.034.062-.063.098-.081l.306.534c.413.714.796,1.436,1.145,2.183l.015.025s.007-.006.01-.014l.061-.243.378-.023c.195-.012.386.007.575.056.008.183-.018.355-.091.518-.018.041-.079.072-.124.073l-.288.002s-.018.01-.016.009l.006.119c.204.052.392.132.549.271.262.233.447.656.538.995l-.074.065c.095.023.181.045.253.11l-.002.578c0,.177-.027.343-.061.516l-.107.448s-.006.024-.002.025l.03.008c.222.057.137.485.09.712l-.186.04-.015.241-.002,2.996c0,.149-.338.315-.572.315l-.881-.002c-.116,0-.225-.056-.326-.106-.08-.04-.155-.128-.155-.224v-1.136c-.001-.009-.003-.018-.007-.018l-.024.003c-.747.081-1.492.143-2.246.155l-1.838.03h-2.563s-.781-.005-.781-.005ZM1140.993,396.703h1.958s.485-.287.485-.287c.129-.076.268-.113.416-.117-.003-.073.013-.157-.012-.226l-.096-.138-.106-.375c-.017-.061.003-.134-.006-.199-.014-.095-.116-.165-.033-.4.045-.128.134-.226.264-.271l.204-.07c.099-.021.201-.011.294.02.229.076.375.285.362.527-.009.18.113.348-.096.524l-.057.206-.018.401c.212.095.421.182.643.255.056.018.114.032.159.068.063.049.11.107.162.168.495.035.978.079,1.468.147.006,0,.012-.005.015-.013-.196-.445-.396-.879-.631-1.305l-.598-1.086-.282-.046c-.48-.039-.962-.076-1.448-.076l-4.117-.002-.439.006-.732.027c-.318.012-.624.042-.942.084l-.649,1.194c-.216.398-.403.803-.589,1.222l.777-.089.857-.078.754-.361c.087-.042.158-.089.234-.147.028-.022.048-.042.053-.081.03-.231.091-.249-.123-.505-.166-.198-.196-.455-.089-.69.06-.132.155-.234.288-.297.16-.075.333-.106.511-.084.054.006.099.034.133.074l.25.293c.043.05.055.106.056.168l.162.157c.028.027.026.078-.001.103l-.062.056.025.342c.002.026.011.067-.002.088-.011.018-.044.039-.069.045l-.213.043c-.076.016-.129.079-.133.153l-.006.101c.145.185.329.251.547.314.161.046.309.097.47.161ZM1135.67,397.108c.049.008.09.006.129-.019.029-.018.048-.054.051-.095l-.18.031v.083ZM1147.914,397.112l.002-.089-.181-.029c-.002.054.034.11.094.113l.086.005ZM1136.425,399.864c.237-.121.369-.376.343-.633-.036-.344-.34-.591-.681-.548-.266.033-.474.226-.537.486-.057.234.034.473.216.62s.439.187.66.075ZM1147.346,399.912c.356.055.668-.19.707-.541.022-.194-.038-.379-.173-.515-.132-.133-.317-.204-.511-.178-.213.028-.4.151-.491.347-.088.189-.077.408.025.586.096.167.249.272.442.302Z" fill="#fff"/><path d="M1147.914,397.112l-.086-.005c-.06-.003-.096-.059-.094-.113l.181.029-.002.089Z" fill="#fff"/><path d="M1135.67,397.108v-.083s.18-.031.18-.031c-.003.041-.022.077-.051.095-.039.025-.08.027-.129.019Z" fill="#fff"/><path d="M1161.385,391.825c-.077.35-.082.694-.053,1.039.013.148-.057.254-.174.325-.16.097-.334.173-.529.144-.185-.104-.295-.301-.308-.511l.249-1.237-.011-.428c.032-.219-.027-.426-.062-.643l-.314-1.956c-.066-.409-.003-.799.061-1.198l.045-.557-.294-.068-.063-1.256-.116-1.773c-.037-.563.006-1.104.116-1.651-.218-.061-.414-.115-.624-.207.24-.742.497-1.433.776-2.142.265-.673.163-1.469-.144-2.114-.018-.038-.054-.083-.082-.096s-.108-.008-.14.003c-.541.203-1.087.301-1.655.368-.22.026-.402.072-.626.014-.164-.043-.344-.083-.518-.102l-1.101-.118c-.078-.008-.197-.041-.25-.088-.062-.136-.056-.28-.053-.419-.452.107-.883.011-1.318-.102-.012-.176-.183-.068-.372-.154-.031-.129-.239-.09-.206-.188.01-.03.053-.073.078-.103.03-.034.003-.141.135-.161l.515-.079c.17-.026.31-.044.492-.103l-.251-.124c-.157-.077-.241-.262-.177-.314.082-.065.263.123.521.201.256.078.525.211.639.425.067.126.145.037.22.045l1.218.126c.245.025.484.019.724.044.087.009.135.02.22-.018.161-.071.37-.057.524-.137.186-.097.365-.189.576-.123l.207-.127.416-.249.129-.229c.036-.064.12-.137.196-.138l.693-.005.049-.288c.103-.601.192-1.189.247-1.798.017-.186.062-.359.127-.525.056-.142.168-.206.287-.287l.347-.236c.168-.114.352-.08.536-.053.167.024.32.04.463.146.216.159.365.379.453.636.106.31.163.622.193.952.054.591.108,1.168.255,1.752l.691.292c.067.028.098.15.123.219.072.464.068.92.016,1.389.08.262.143.514.096.786-.01.1.004.196.065.28l1.27-1.82c.047-.068.123-.104.202-.096l.951.124c.022.009.068.029.066.047l-.012.086-.654.908c.092.126.103.264.066.398.017.033.064.099.05.127l-.06.115-.121.22c-.03.054-.083.113-.138.134l-.288.107c.001.196-.012.366-.084.545l-.696.198-.899.269c-.125.037-.239.019-.37-.047.172.681.318,1.348.416,2.042l-.124.058c.051.48.027.939-.01,1.427l-.228,2.984-.414.115-.01.417c.048.495.059.969-.009,1.466l-.288,2.097c-.028.207-.017.428,0,.634.017.203.098.396.143.593.111.494.458.689.445,1.14-.245.102-.688-.006-.937-.121-.225-.105-.065-.499-.31-.845l-.013.406c0,.018-.057.055-.071.045-.014-.01-.043-.048-.044-.069l-.044-.526c-.009-.102-.058-.194-.105-.28-.177-.318.041-.539.203-.812.143-.241-.053-1.55-.135-2.019-.075-.431-.075-.842-.023-1.278.032-.268.014-.532-.062-.781l-.682-.006c-.144-.001-.215.706-.202,1.034.014.382-.02.742-.063,1.123l-.176,1.526c-.022.191-.013.402.075.568.111.209.181.41.126.658ZM1163.237,376.331c0-.324-.128-.754-.444-.947.001.113.031.196.071.3.046.121.031.289-.085.36-.121.074-.197.165-.222.303l-.09.512-.271-.588c-.07-.151-.118-.239-.265-.34-.135-.092-.344-.385-.343-.588,0-.014-.013-.018-.049-.032-.139.095-.2.259-.181.428l.062.545.166-.127.129-.1.476,1.315.35,1.21c.296-.536.517-.968.49-1.586l-.04-.917c.113.091.153.152.246.252ZM1155.731,377.423c.052.026.148.029.21.034.145-.216.195-.486.097-.721-.048-.115-.143-.204-.273-.185.225.124.216.449.104.698l-.274-.087c.01.092.034.211.136.261ZM1165.643,379.433l-.095-.181c-.009-.017-.047-.034-.077-.032.038.155.101.287.193.426.149-.069.241-.191.225-.374l-.246.161Z" fill="#fff"/><path d="M1168.963,423.024h-9.8s-.261,0-.261,0h-4.552c.033-.026.102-.06.113-.094l.055-.166.01.208.034-.202.014.188.007.012.014-.081.016.05c.002.005.007.01.011.005l.028-.037.013.079.016-.078.033.098.091-.063c-.138-.101-.251-.236-.258-.418-.014-.316.242-.593.562-.597.165-.002.297.084.41.202l.197-.045c.178-.165.407-.192.634-.102l-.048-.037c-.014-.01-.026-.047-.025-.066v-.099c-.172.01-.412-.042-.412-.155l.002-.467c0-.062.043-.139.107-.159l.552-.175c.037-.099.101-.212.213-.212l.69-.002c.069,0,.125.065.148.12l.054.128c.006.013.041.047.049.036l.034-.048c.036-.051.109-.077.181-.064.047.008.105.06.146.103l.119.023c.054.01.048.168.079.174l.09.019.007.564c0,.022-.019.074-.034.096l-.348.021c-.012,0-.041.016-.043.027-.009.047.085.022.107.101.21-.03.411-.102.588-.244l.014-.444c.002-.061.018-.132.063-.175l1.125-1.083,1.41-1.358c-.036-.063-.014-.106.037-.14l.076-.052c.018-.012.061.017.084.033l.735-.723c.121-.119.091-.303-.034-.412-.128-.112-.27-.191-.421-.281-.077-.046-.179-.136-.143-.239.033-.093.097-.186.152-.264.072-.101.184-.117.299-.089l.319.077c.135-.172.243-.33.353-.511l.399-.653c.067-.11.086-.225.085-.353l-.01-.91c-.004-.315.034-.624.136-.919.035-.1.036-.186-.037-.269-.06-.068-.152-.078-.22-.004-.038.041-.103.088-.156.106-.072.024-.13-.034-.146-.099l-.173-.086c-.013-.028-.031-.061-.046-.072-.018-.013-.062.013-.085.024l-.053.025c-.012.005-.038-.031-.041-.044l-.046-.245-.08-.105c-.216.123-.447.216-.695.263-.031-.019-.06-.043-.06-.063-.005-.142.327-.406.482-.561l-.159-.553c-.015-.053.011-.118.052-.149.285-.214.6-.405.951-.458.093-.014.149.033.192.102l.268.433c.234-.031.445-.056.675-.059.05,0,.13.034.136.083-.086.118-.219.19-.347.249l-.233.108c.045.278.243.476.489.607l.09.01c.562.326.876,1.008.934,1.643.066.711.083,1.416.056,2.13-.004.099-.021.185-.007.28l.059.382-.106.059c.003.175-.03.335-.111.488-.089.167-.135.343-.135.535v.52s-.045.251-.045.251c-.014.076-.015.173.024.237.057.093.069.195.044.3-.014.06.146.07.168.136.009.029.002.088-.005.129.082.017.16.052.216.117l.455.531.443.51c.173.199.085.339.232.352.098.009.152.055.216.124.052.056.13.109.196.149.092.056.113.147.169.219.08.101.236.136.283.273-.118.214-.282.422-.482.556-.027-.017-.064-.035-.072-.027-.117.202-.261.37-.404.534.054-.028.111-.088.145-.109l.033-.02s-.005.013-.008.018l-.085.118.31-.147c.026,0,.026.006.005.017-.007.026-.012.035-.007.033l.036-.017.144-.093-.184.25.257-.138-.044.109-.012.03s.004-.002.011-.007l.172-.129-.085.132.302-.157-.104.102c-.008.011-.032.044-.016.028l.469-.251.022.013-.272.244c.077-.027.115-.068.192-.12l-.083.137.264-.119-.092.124c-.011.02-.011.027.007.01.1-.075.171-.136.283-.19l-.121.143h.029c.061-.052.116-.082.194-.09l-.159.12c.106-.025.173-.084.252-.152l.016.012-.129.139.258-.084-.117.082-.026.008.013.023.268-.098.133-.043c.024-.008.05,0,.017.018l-.169.145.25-.097-.089.097c-.016.01-.019.016.002.013.137-.059.257-.131.39-.14l-.235.14.194-.026-.066.051c-.027.007-.017.013.005.014l.198-.068c.015.005.059.019.029.011l-.086.055.421.028-.336.015ZM1160.866,422.755c-.05.059-.075.084-.107.144l.247-.151-.111.138.02.013.238-.202-.078.183.216-.15-.079.157.282-.196-.094.185.305-.197c-.059.091-.108.134-.142.223l.374-.249c-.052.109-.197.161-.158.257l.26-.193-.095.179c.045-.013.076-.025.097-.041l.207-.153-.026.162c.062-.094.092-.194.184-.251.142-.087.348.005.522-.129l.297-.227c-.065-.098-.042-.199.025-.284.165-.209-.048-.352-.053-.552l-.019-.831c-.006-.243-.024-.459-.102-.691-.044-.133-.087-.287-.071-.431l.123-1.084.106-1.163-.06-.131.029-.348c.013-.158.035-.303.015-.457l-.767.636.139.136c.073.072.158.144.193.241.062.167,0,.334-.124.454l-.974.948-.811.796-1.193,1.181,1.836-.756c.167-.069.656-.006.831.072.066.029.067.127.043.185-.02.048-.071.083-.138.114l.011,1.472c0,.098-.048.247-.151.275l-2.431.675-.175.2.117-.053-.006.045.052-.04c.009-.006.031.02.033.022l.163-.102-.089.133.098-.045c.022-.01.056-.021.08-.025l.123-.074-.122.151.289-.154-.057.1.13-.073-.076.106.222-.116-.082.1-.002.021.132-.104-.017.081.14-.082.004.044.226-.099ZM1161.503,418.57c-.007.007-.029.047-.018.052l.046.023,1.035-1.001c.118-.114.14-.279.006-.388l-.324-.261c-.067-.007-.146.02-.216.055l.228.204c.14.125.157.317.058.474-.079.125-.177.232-.291.328l-.523.514ZM1159.288,420.851l2.107-2.076-.114-.021-2.286,2.221c.118-.029.197-.068.293-.123ZM1164.863,422.852l.359-.136-.17.189.313-.094c-.046.064-.093.098-.152.138.086-.008.161-.063.187-.146.065-.206.27-.152.302-.233.074-.187.115-.385.103-.583-.007-.121-.131-.174-.234-.182-.161-.012-.155-.335-.4-.62l-.501-.586-.47-.494.037.802c.01.214.042.427.009.639-.022.138-.025.26.048.384.074.126.082.264.038.407-.018.058.014.164.001.217-.03.078-.052.14-.037.213l.036-.061-.021.16.338-.228c-.064.087-.121.137-.162.222l.334-.155-.118.132c.134-.039.21-.12.33-.14l-.17.154ZM1159.387,422.867c.239-.212.239-.596.014-.812-.198-.19-.526-.194-.73-.011-.235.21-.24.587-.016.808.196.193.52.205.733.016ZM1156.088,422.898c.249.006.42-.182.42-.417,0-.211-.135-.384-.349-.413-.133-.018-.271.023-.361.12-.082.088-.122.217-.107.346.024.207.179.358.397.363ZM1155.045,422.727c-.107-.104-.127-.225-.05-.345.078-.121.212-.181.362-.214-.217-.175-.531-.08-.634.162-.07.163-.017.339.101.448.125.115.31.149.459.066l-.238-.116Z" fill="#fff"/><path d="M1153.838,422.767l-.042.192c-.001.005.005.031.006.036.001.008.03-.01.035-.019l.098-.198-.021.204.074-.157.024.162.078-.113c.002.068-.037.097.026.141.036-.09.052-.17.066-.267l.026.241.201-.21-.085.157c-.005.009-.016.032-.012.04l.031.049h-.934c.094-.064.146-.12.228-.212l-.031.14.006.045c.001.01.055.004.062-.005l.164-.225Z" fill="#fff"/><path d="M1156.088,422.898c-.219-.005-.374-.156-.397-.363-.015-.129.025-.258.107-.346.091-.097.228-.138.361-.12.214.029.349.202.349.413,0,.235-.171.422-.42.417ZM1156.048,422.367c-.072.027-.095.115-.058.178.031.054.104.08.17.045.049-.026.079-.099.057-.152-.028-.069-.097-.098-.168-.071Z" fill="#fff"/><path d="M1159.387,422.867c-.213.19-.537.177-.733-.016-.224-.22-.219-.597.016-.808.205-.183.532-.179.73.011.225.216.225.599-.014.812ZM1158.99,422.038c-.244.022-.404.244-.378.465.027.23.23.389.456.369.234-.02.403-.223.379-.464-.022-.214-.213-.391-.456-.37Z" fill="#fff"/><path d="M1155.045,422.727l.238.116c-.15.083-.334.049-.459-.066-.118-.108-.17-.285-.101-.448.103-.242.418-.337.634-.162-.151.034-.285.094-.362.214-.077.12-.057.241.05.345Z" fill="#fff"/><path d="M1156.048,422.367c.072-.027.14.002.168.071.022.053-.008.126-.057.152-.066.036-.139.009-.17-.045-.037-.063-.013-.151.058-.178Z" fill="#fff"/><path d="M1158.99,422.038c.243-.022.434.156.456.37.025.241-.144.444-.379.464-.226.02-.428-.139-.456-.369-.026-.221.134-.443.378-.465ZM1158.997,422.339c-.074.019-.104.09-.081.159.02.059.089.098.155.073.058-.021.096-.093.075-.152-.021-.062-.08-.098-.149-.08Z" fill="#fff"/><path d="M1158.997,422.339c.069-.018.128.018.149.08.02.06-.017.131-.075.152-.066.024-.135-.014-.155-.073-.023-.068.008-.14.081-.159Z" fill="#fff"/><path d="M1130.104,417.065c.884.011,1.338.731,1.266.836-.018.027-.107.072-.146.067l-.99-.125.565.56.524.508.122.236c.053.101.049.323.056.458-.004.042-.095.099-.161.136.194.164.294.37.249.629-.038.218-.188.398-.418.51l1.54.045-19.149.002-.017-.024.926-.02,1.687-.015.299-.025,3.468-.008c-.312-.245-1.168-.805-1.134-.948.008-.033.059-.075.095-.103.172-.141.327-.271.537-.345.161-.192.291-.399.403-.623l.326-.583c.167-.3.362-.562.62-.789.121-.107.226-.219.332-.358-.247-.009-.443-.01-.679-.055l.355-2.013.155-.899c.086-.501.237-.971.465-1.427-.119-.08-.159-.171-.181-.293-.115-.639-.217-1.264-.237-1.913-.011-.347.082-.654.348-.878.145-.122.261-.294.246-.486-.307.033-.551-.225-.661-.532l-.088.15c-.004-.089-.008-.17-.032-.224-.235-.091-.41-.359-.328-.609.089-.27.582-.419.775-.198.3-.399.72-.418,1.194-.315.458.1.57.555.471.998.096.13.141.243.083.416l-.104.308c-.034.101-.138.157-.241.146l-.306-.032-.158.469c.184.348.373.674.632.965.168.188.4.504.39.7l-.043.832-.043.091c-.009.019.034.055.054.075.344.179.676.336,1.036.491.389.048.564-.303.905-.025.317.258-.076.401.112.618l.834.963.996,1.099.05-.018-.921-1.008c-.026-.029-.065-.104-.056-.138s.056-.074.093-.107l.22-.192c.317-.074.606-.168.898-.305l.698-.328c.109-.051.207-.088.327-.061l1.718.383-.322.663-.231.389c-.287.412-.605.766-.954,1.146l.466.514c.283-.326.912-.484.964-.192.009.051-.02.173-.066.197l-.258.135c-.067.035-.107.109-.067.186.093.181.279.291.489.294ZM1121.459,409.041c-.161-.088-.281-.225-.405-.383.044.187.189.376.405.383ZM1127.138,418.217l.364-.12c.118-.039.181-.136.171-.271l-.282.013c-.15.007-.285-.011-.371-.152-.428-.702-.8-1.44-1.049-2.231-.043-.137-.022-.256-.142-.359-.218-.187.058-.422-.012-.513l-.152-.197-.35-.388-.52-.538c-.049-.051-.117-.152-.178-.166-.158.034-.317.076-.449.008-.135-.07-.26-.128-.407-.151l-.552-.086.24,1.401.406,2.467c.024.146-.149.094-.297.189.081.203-.038.384-.015.575.083.675.238,1.329.403,1.984.075.298.297.495.554.619.266.128.516.224.82.232.064.002.15.081.141.14-.007.045-.062.091-.132.163h1.215c-.196-.148-.385-.287-.456-.54-.085-.308-.005-.666.232-.886.191-.178.452-.217.694-.263l-.114-.598c-.03-.156.092-.283.239-.332ZM1123.35,420.839c.035-.087.018-.128.034-.209l.067-.344c-.034-.23-.118-.44-.232-.641l-.106-.187c-.215-.382-.462-.979-.468-1.403-.005-.319-.019-.611-.069-.925l-.409-.026c-.012.286-.187.418-.374.57-.289.237-.53.523-.785.795l-.314.334c-.236.251-.458.498-.651.786-.072.108-.105.261-.046.375l.242.469c.086.166.572.159.503.407h2.607ZM1128.66,418.341l1.452-.123-.336-.386-.377.118.192.161-.386-.037c-.205-.02-.402.123-.544.267ZM1128.121,418.176c-.125-.017-.22-.011-.295.038-.03.02-.059.105-.043.134s.096.055.128.043c.103-.036.164-.122.209-.215ZM1130.279,419.925c.165-.273.428-.397.744-.356.027-.119.004-.241-.029-.339.005-.05.026-.181-.012-.217l-.214-.203c-.451.454-.955.807-1.545,1.041-.418.12-.83.139-1.287.127-.002.368-.178.659-.524.857h3.144c-.334-.237-.442-.574-.276-.911ZM1127.799,419.874c-.007-.196-.118-.362-.275-.452l.275.452ZM1126.875,419.759l.086-.258c-.269.003-.418.206-.466.437.163.036.328-.024.38-.179ZM1130.888,419.819c-.19-.013-.34.129-.358.31.194.028.333-.104.358-.31ZM1127.387,420.384c.048-.058.098-.208.098-.311-.08-.027-.196-.016-.255.043-.03.23.09.348.156.268ZM1131.182,420.553c.17-.143.198-.335.109-.508-.079.037-.206.128-.215.206-.011.102.051.217.106.301ZM1126.952,420.27c-.165-.23-.449-.138-.449-.139.003.299.349.488.63.391l-.181-.252ZM1131.016,420.596l-.241-.291c-.038-.046-.177-.039-.257-.02-.002.092.069.217.145.265.106.067.22.088.353.046Z" fill="#fff"/><line x1="672.925" y1="726.329" x2="1627.022" y2="726.329" fill="none" stroke="#fff" stroke-miterlimit="10"/><line x1="677.62" y1="782.699" x2="1627.022" y2="782.699" fill="none" stroke="#fff" stroke-miterlimit="10"/><line x1="1611.523" y1="751.248" x2="1649.955" y2="751.248" fill="none" stroke="#fff" stroke-miterlimit="10"/><polygon points="1648.496 756.235 1657.131 751.248 1648.496 746.262 1648.496 756.235" fill="#fff"/><line x1="1157.376" y1="1212.079" x2="1157.376" y2="771.168" fill="none" stroke="#fff200" stroke-miterlimit="10"/><line x1="1284.64" y1="906.175" x2="1420.891" y2="906.175" fill="none" stroke="#fff" stroke-miterlimit="10"/><polygon points="1418.083 909.878 1419.656 906.175 1418.083 902.472 1426.861 906.175 1418.083 909.878" fill="#fff"/><text transform="translate(3703.2378 636.3966)" fill="#00aeef" font-family="Arial-BoldMT, Arial" font-size="12" font-weight="700"><tspan x="0" y="0">ChatGPT Motif For Retained User</tspan><tspan x="190.014" y="0" letter-spacing="-.037em"> </tspan><tspan x="192.902" y="0">Adoption</tspan></text><polyline points="1695.73 1023.804 1735.707 1023.804 1735.707 981.55 1695.73 981.55" fill="none" stroke="#fff200" stroke-miterlimit="10"/><line x1="1664.59" y1="4128.803" x2="1664.59" y2="4222.089" fill="none" stroke="#fff200" stroke-miterlimit="10"/><line x1="2297.369" y1="4258.199" x2="2126.2" y2="4281.293" fill="none" stroke="#fff200" stroke-miterlimit="10"/><line x1="2469.218" y1="4279.935" x2="2297.369" y2="4258.199" fill="none" stroke="#fff200" stroke-miterlimit="10"/><line x1="1664.253" y1="4221.41" x2="2040.692" y2="4221.41" fill="none" stroke="#fff200" stroke-miterlimit="10"/><line x1="1156.116" y1="4992.463" x2="1156.116" y2="1716.839" fill="none" stroke="#fff" stroke-miterlimit="10"/><text transform="translate(4144.1368 649.3683)" fill="#00aeef" font-family="Arial-BoldMT, Arial" font-size="12" font-weight="700"><tspan x="0" y="0">ChatGPT</tspan><tspan x="-56.353" y="14.4">Umbrella Response Protocol</tspan></text><text transform="translate(4412.2066 650.8077)" fill="#00aeef" font-family="Arial-BoldMT, Arial" font-size="12" font-weight="700"><tspan x="0" y="0">ChatGPT</tspan><tspan x="-36.006" y="14.4">Latest </tspan><tspan x="2.672" y="14.4" letter-spacing="-.055em">T</tspan><tspan x="9.34" y="14.4">raining Model</tspan></text><text transform="translate(1123.764 1349.1149)" fill="#fff" font-family="Arial-BoldMT, Arial" font-size="12" font-weight="700"><tspan x="0" y="0">ChatGPT</tspan><tspan x="-85.33" y="14.4">Reasoning - “How Should I Respond?”</tspan></text><text transform="translate(1125.867 1295.5143)" fill="#fff" font-family="Arial-BoldMT, Arial" font-size="12" font-weight="700"><tspan x="0" y="0">ChatGPT</tspan><tspan x="-88.327" y="14.4">Full-Context Understanding of Question</tspan></text><text transform="translate(1126.4212 1245.5231)" fill="#fff" font-family="Arial-BoldMT, Arial" font-size="12" font-weight="700"><tspan x="0" y="0">ChatGPT</tspan><tspan x="-65.687" y="14.4">Perceived of Nature of Question</tspan></text><text transform="translate(1135.2664 1460.7809)" fill="#fff" font-family="Arial-BoldMT, Arial" font-size="12" font-weight="700"><tspan x="0" y="0">ChatGPT</tspan><tspan x="-113.048" y="14.4">Retrieval Strategy / Evidence Collection Strategy</tspan></text><text transform="translate(1133.2869 1509.2897)" fill="#fff" font-family="Arial-BoldMT, Arial" font-size="12" font-weight="700"><tspan x="0" y="0">ChatGPT</tspan><tspan x="-33.677" y="14.4">Heuristic Knowledge</tspan></text><text transform="translate(565.9894 1363.5153)" fill="#fff" font-family="Arial-BoldMT, Arial" font-size="12" font-weight="700"><tspan x="0" y="0">ChatGPT Heuristics &amp; General Knowledge</tspan></text><text transform="translate(612.7048 1309.9147)" fill="#fff" font-family="Arial-BoldMT, Arial" font-size="12" font-weight="700"><tspan x="0" y="0">User Specific Contextual Memory</tspan></text><text transform="translate(739.3864 1931.4791)" fill="#fff200" font-family="Arial-BoldMT, Arial" font-size="12" font-weight="700"><tspan x="0" y="0">User Specific Context &amp; Heuristic Memory</tspan></text><text transform="translate(1445.2586 4986.0892)" fill="#fff200" font-family="Arial-BoldMT, Arial" font-size="12" font-weight="700"><tspan x="0" y="0">User Confidence in</tspan><tspan x="5.892" y="14.4">ChatGPT</tspan><tspan x="57.226" y="14.4" letter-spacing="-.037em"> </tspan><tspan x="60.114" y="14.4">Answer</tspan></text><text transform="translate(1453.4959 5267.6766)" fill="#fff" font-family="Arial-BoldMT, Arial" font-size="12" font-weight="700"><tspan x="0" y="0">User</tspan><tspan x="26.684" y="0" letter-spacing="-.037em"> </tspan><tspan x="29.572" y="0">Adoption of</tspan><tspan x="-.346" y="14.4">ChatGPT</tspan><tspan x="50.988" y="14.4" letter-spacing="-.037em"> </tspan><tspan x="53.877" y="14.4">Answer</tspan></text><text transform="translate(1423.5818 5093.2982)" fill="#fff200" font-family="Arial-BoldMT, Arial" font-size="12" font-weight="700"><tspan x="0" y="0">Recommended Pathway(s)</tspan></text><text transform="translate(1344.8831 5262.4066)" fill="#fff200" font-family="Arial-BoldMT, Arial" font-size="12" font-weight="700"><tspan x="0" y="0">CX</tspan></text><text transform="translate(1513.2532 5167.6976)" fill="#fbb040" font-family="Arial-BoldMT, Arial" font-size="12" font-weight="700"><tspan x="0" y="0">Friction to</tspan><tspan x="58.658" y="0" letter-spacing="-.037em"> </tspan><tspan x="61.547" y="0">Adoption</tspan></text><text transform="translate(1038.2063 1413.9264)" fill="#fff" font-family="Arial-BoldMT, Arial" font-size="12" font-weight="700"><tspan x="0" y="0">Factual</tspan><tspan x="42.012" y="0" letter-spacing="-.037em"> </tspan><tspan x="44.9" y="0">Answer</tspan></text><text transform="translate(1394.4939 1413.507)" fill="#fff" font-family="Arial-BoldMT, Arial" font-size="12" font-weight="700"><tspan x="0" y="0">AI Perceived Nature of </tspan><tspan x="131.379" y="0" letter-spacing="-.055em">T</tspan><tspan x="138.047" y="0">ruth</tspan></text><text transform="translate(1090.574 1689.318)" fill="#fff" font-family="Arial-BoldMT, Arial" font-size="12" font-weight="700"><tspan x="0" y="0">Answer Sufficient </tspan><tspan x="104.684" y="0" letter-spacing="-.009em">W</tspan><tspan x="115.904" y="0">ithin </tspan><tspan x="-14.396" y="14.4">ChatGPT Heuristic Knowledge</tspan></text><text transform="translate(1482.4227 1690.6764)" fill="#fff" font-family="Arial-BoldMT, Arial" font-size="12" font-weight="700"><tspan x="0" y="0">Answer Not Sufficient </tspan><tspan x="128.01" y="0" letter-spacing="-.009em">W</tspan><tspan x="139.23" y="0">ithin</tspan><tspan x="-4.4" y="14.4">ChatGPT Heuristic Knowledge</tspan></text><text transform="translate(1494.3885 1759.2316)" fill="#fff" font-family="Arial-BoldMT, Arial" font-size="12" font-weight="700"><tspan x="0" y="0">External Search Required</tspan></text><text transform="translate(1480.8577 1817.0997)" fill="#fff" font-family="Arial-BoldMT, Arial" font-size="12" font-weight="700"><tspan x="0" y="0">ChatGPT Identifies Search Goals</tspan><tspan x="38.572" y="14.4">“Questions to</tspan><tspan x="117.908" y="14.4" letter-spacing="-.037em"> </tspan><tspan x="120.797" y="14.4">Ask”</tspan></text><text transform="translate(1486.1141 2183.9034)" fill="#fff200" font-family="Arial-BoldMT, Arial" font-size="12" font-weight="700"><tspan x="0" y="0">ChatGPT Performs </tspan><tspan x="110.689" y="0" letter-spacing="-.018em">W</tspan><tspan x="121.799" y="0">eb Search </tspan><tspan x="-6.686" y="14.4">via Integrated </tspan><tspan x="74.672" y="14.4" letter-spacing="-.018em">W</tspan><tspan x="85.781" y="14.4">eb Search Service</tspan></text><text transform="translate(1884.6502 1907.087)" fill="#fff" font-family="Arial-BoldMT, Arial" font-size="12" font-weight="700"><tspan x="0" y="0">Nature of Information Search</tspan></text><text transform="translate(1581.8147 1907.1671)" fill="#fff200" font-family="Arial-BoldMT, Arial" font-size="12" font-weight="700"><tspan x="0" y="0">Non-Factual, Corroborated </tspan><tspan x="156.006" y="0" letter-spacing="-.055em">T</tspan><tspan x="162.674" y="0">ruth</tspan></text><text transform="translate(1475.9466 1907.1671)" fill="#fff" font-family="Arial-BoldMT, Arial" font-size="12" font-weight="700"><tspan x="0" y="0">Factual </tspan><tspan x="45.346" y="0" letter-spacing="-.055em">T</tspan><tspan x="52.014" y="0">ruth</tspan></text><text transform="translate(1596.9861 3109.2052)" fill="#fff200" font-family="Arial-BoldMT, Arial" font-size="12" font-weight="700"><tspan x="0" y="0">Information Retrieval Stage</tspan></text><text transform="translate(1545.7142 1990.3829)" fill="#fff" font-family="Arial-BoldMT, Arial" font-size="12" font-weight="700"><tspan x="0" y="0">ChatGPT</tspan><tspan x="-54.686" y="14.4">Information Search Strategy</tspan></text><text transform="translate(1398.1121 1363.5153)" fill="#fff" font-family="Arial-BoldMT, Arial" font-size="12" font-weight="700"><tspan x="0" y="0">Nature of</tspan><tspan x="52.67" y="0" letter-spacing="-.037em"> </tspan><tspan x="55.559" y="0">AI Response</tspan></text><text transform="translate(1191.4602 1405.3346)" fill="#fff" font-family="Arial-BoldMT, Arial" font-size="12" font-weight="700"><tspan x="0" y="0">Non-factual, </tspan><tspan x="-34.781" y="14.4">High-Confidence</tspan><tspan x="61.213" y="14.4" letter-spacing="-.037em"> </tspan><tspan x="64.102" y="14.4">Answer</tspan></text><line x1="3984.719" y1="653.259" x2="4073.543" y2="653.259" fill="none" stroke="#00aeef" stroke-miterlimit="10"/><polygon points="3987.528 656.962 3985.954 653.259 3987.528 649.556 3978.749 653.259 3987.528 656.962" fill="#00aeef"/><line x1="1387.407" y1="1360.175" x2="1274.22" y2="1360.175" fill="none" stroke="#fff" stroke-miterlimit="10"/><polygon points="1384.599 1356.472 1386.172 1360.175 1384.599 1363.879 1393.377 1360.175 1384.599 1356.472" fill="#fff"/><line x1="4267.813" y1="652.901" x2="4367.892" y2="652.901" fill="none" stroke="#00aeef" stroke-miterlimit="10"/><polygon points="4270.622 656.604 4269.049 652.901 4270.622 649.198 4261.844 652.901 4270.622 656.604" fill="#00aeef"/><line x1="4513.648" y1="653.604" x2="4591.738" y2="653.604" fill="none" stroke="#00aeef" stroke-miterlimit="10"/><polygon points="4516.457 657.307 4514.884 653.604 4516.457 649.901 4507.679 653.604 4516.457 657.307" fill="#00aeef"/><line x1="1430.982" y1="1888.548" x2="1789.973" y2="1888.548" fill="none" stroke="#fff" stroke-miterlimit="10"/><line x1="1430.982" y1="1917.169" x2="1789.973" y2="1917.169" fill="none" stroke="#fff" stroke-miterlimit="10"/><text transform="translate(2436.1467 4559.1468)" fill="#fff" font-family="Arial-BoldMT, Arial" font-size="12" font-weight="700"><tspan x="0" y="0">x Repetition</tspan></text><text transform="translate(2489.1629 4671.4095)" fill="#fff200" font-family="Arial-BoldMT, Arial" font-size="12" font-weight="700"><tspan x="0" y="0">x Repetition &amp; </tspan><tspan x="84.006" y="0" letter-spacing="-.055em">V</tspan><tspan x="91.348" y="0">alidation Synthesis</tspan><tspan x="200.707" y="0" letter-spacing="-.037em"> </tspan><tspan x="203.596" y="0">Across Other </tspan><tspan x="282.955" y="0" letter-spacing="-.018em">W</tspan><tspan x="294.064" y="0">eb Search Results</tspan></text><text transform="translate(2271.7639 4833.0701)" fill="#fff200" font-family="Arial-BoldMT, Arial" font-size="12" font-weight="700"><tspan x="0" y="0">User-ChatGPT</tspan><tspan x="82.014" y="0" letter-spacing="-.037em"> </tspan><tspan x="84.902" y="0">Aligned Response</tspan></text><text transform="translate(2946.8743 4791.2938)" fill="#fff200" font-family="Arial-BoldMT, Arial" font-size="12" font-weight="700"><tspan x="0" y="0">Continued Refinement of Reasoning, </tspan><tspan x="3.964" y="14.4">User Feedback Iteration, Synthesis, </tspan><tspan x="-8.953" y="28.8">+</tspan><tspan x="-1.945" y="28.8" letter-spacing="-.037em"> </tspan><tspan x=".943" y="28.8">Additional </tspan><tspan x="62.936" y="28.8" letter-spacing="-.018em">W</tspan><tspan x="74.045" y="28.8">eb Search Until</tspan><tspan x="161.402" y="28.8" letter-spacing="-.037em"> </tspan><tspan x="164.291" y="28.8">Alignment</tspan></text><text transform="translate(2737.9109 4748.1644)" fill="#fff200" font-family="Arial-BoldMT, Arial" font-size="12" font-weight="700"><tspan x="0" y="0">Reason, Refine, Synthesize</tspan></text><text transform="translate(3222.9788 4537.5511)" fill="#fff" font-family="Arial-BoldMT, Arial" font-size="10" font-weight="700"><tspan x="0" y="0">Lack of Similar Narrative(s)</tspan><tspan x="36.135" y="12">x Repetition</tspan></text><text transform="translate(2087.7283 4681.6556)" fill="#fff200" font-family="Arial-BoldMT, Arial" font-size="12" font-weight="700"><tspan x="0" y="0">High Cofidence Response</tspan></text><text transform="translate(3340.3616 4989.7459)" fill="#fff200" font-family="Arial-BoldMT, Arial" font-size="12" font-weight="700"><tspan x="0" y="0">ChatGPT Unable to</tspan><tspan x="-19.459" y="14.4">Provide Sufficient</tspan><tspan x="82.559" y="14.4" letter-spacing="-.037em"> </tspan><tspan x="85.447" y="14.4">Answer</tspan></text><text transform="translate(2085.2722 4845.9891)" fill="#fff200" font-family="Arial-BoldMT, Arial" font-size="12" font-weight="700"><tspan x="0" y="0">Higher Cofidence Response</tspan></text><text transform="translate(2430.113 4733.4134)" fill="#fff" font-family="Arial-BoldMT, Arial" font-size="12" font-weight="700"><tspan x="0" y="0">User Feedback</tspan></text><text transform="translate(2414.759 4760.9041)" fill="#fff" font-family="Arial-BoldMT, Arial" font-size="12" font-weight="700"><tspan x="0" y="0">ChatGPT Reasoning</tspan></text><text transform="translate(2411.7864 4788.93)" fill="#fff" font-family="Arial-BoldMT, Arial" font-size="12" font-weight="700"><tspan x="0" y="0">Resposne Refinement</tspan></text><text transform="translate(2176.5129 4251.6151)" fill="#fff200" font-family="Arial-BoldMT, Arial" font-size="12" font-weight="700"><tspan x="0" y="0" letter-spacing="-.074em">V</tspan><tspan x="7.113" y="0">oice of </tspan><tspan x="49.119" y="0" letter-spacing="-.018em">W</tspan><tspan x="60.229" y="0">eb-Search Retrived Corroborator</tspan></text><text transform="translate(2074.5149 4299.3304)" fill="#fff" font-family="Arial-BoldMT, Arial" font-size="12" font-weight="700"><tspan x="0" y="0">Narrative(s) to</tspan><tspan x="-19.676" y="14.4">User Question Exists</tspan></text><text transform="translate(2241.8225 4298.3304)" fill="#fff" font-family="Arial-BoldMT, Arial" font-size="12" font-weight="700"><tspan x="0" y="0">Narrative(s) to</tspan><tspan x="-30.34" y="14.4">Similar Question(s) Exist</tspan></text><text transform="translate(2423.8332 4298.971)" fill="#fff" font-family="Arial-BoldMT, Arial" font-size="12" font-weight="700"><tspan x="0" y="0">Narrative(s) to</tspan><tspan x="-37.667" y="14.4">User Question Do Not Exist</tspan></text><text transform="translate(2124.6741 4361.5023)" fill="#fff" font-family="Arial-BoldMT, Arial" font-size="12" font-weight="700"><tspan x="0" y="0">ChatGPT Scans</tspan><tspan x="12.999" y="14.4">Responses</tspan></text><text transform="translate(2105.6286 4423.0569)" fill="#fff" font-family="Arial-BoldMT, Arial" font-size="12" font-weight="700"><tspan x="0" y="0">ChatGPT Scans Patterns</tspan><tspan x="-6.674" y="14.4">of Narratives in Responses</tspan></text><text transform="translate(2152.9587 4479.7239)" fill="#fff200" font-family="Arial-BoldMT, Arial" font-size="12" font-weight="700"><tspan x="0" y="0">“ABC is the best answer b/c XYZ”</tspan></text><text transform="translate(2361.718 4479.8792)" fill="#fff200" font-family="Arial-BoldMT, Arial" font-size="12" font-weight="700"><tspan x="0" y="0">x Similar Narrative Repetition</tspan></text><text transform="translate(2540.2522 4479.723)" fill="#fff200" font-family="Arial-BoldMT, Arial" font-size="12" font-weight="700"><tspan x="0" y="0">— (Counter Narrative x Repetition)</tspan></text><text transform="translate(2748.7434 4479.723)" fill="#fff200" font-family="Arial-BoldMT, Arial" font-size="12" font-weight="700"><tspan x="0" y="0" xml:space="preserve">=  Confidence Level</tspan></text><text transform="translate(2153.9778 4590.638)" fill="#fff200" font-family="Arial-BoldMT, Arial" font-size="12" font-weight="700"><tspan x="0" y="0">“ABC is the best answer b/c XYZ”</tspan></text><text transform="translate(2362.737 4590.7933)" fill="#fff200" font-family="Arial-BoldMT, Arial" font-size="12" font-weight="700"><tspan x="0" y="0">x Similar Narrative Repetition</tspan></text><text transform="translate(2541.2713 4590.637)" fill="#fff200" font-family="Arial-BoldMT, Arial" font-size="12" font-weight="700"><tspan x="0" y="0">— (Counter Narrative x Repetition)</tspan></text><text transform="translate(2749.7625 4590.637)" fill="#fff200" font-family="Arial-BoldMT, Arial" font-size="12" font-weight="700"><tspan x="0" y="0" xml:space="preserve">=  Confidence Level</tspan></text><text transform="translate(2154.8064 4619.7777)" fill="#fff" font-family="Arial-BoldMT, Arial" font-size="12" font-weight="700"><tspan x="0" y="0">“GHI is the best answer b/c RST”</tspan></text><text transform="translate(2361.5647 4619.9329)" fill="#fff" font-family="Arial-BoldMT, Arial" font-size="12" font-weight="700"><tspan x="0" y="0">x Similar Narrative Repetition</tspan></text><text transform="translate(2540.0989 4619.7767)" fill="#fff" font-family="Arial-BoldMT, Arial" font-size="12" font-weight="700"><tspan x="0" y="0">— (Counter Narrative x Repetition)</tspan></text><text transform="translate(2748.5901 4619.7767)" fill="#fff" font-family="Arial-BoldMT, Arial" font-size="12" font-weight="700"><tspan x="0" y="0" xml:space="preserve">=  Confidence Level</tspan></text><text transform="translate(2360.5456 4504.555)" fill="#fff" font-family="Arial-BoldMT, Arial" font-size="12" font-weight="700"><tspan x="0" y="0">x Similar Narrative Repetition</tspan></text><text transform="translate(2539.0798 4504.3987)" fill="#fff" font-family="Arial-BoldMT, Arial" font-size="12" font-weight="700"><tspan x="0" y="0">— (Counter Narrative x Repetition)</tspan></text><text transform="translate(2748.571 4504.3987)" fill="#fff" font-family="Arial-BoldMT, Arial" font-size="12" font-weight="700"><tspan x="0" y="0" xml:space="preserve">=  Confidence Level</tspan></text><text transform="translate(2150.5813 4504.4778)" fill="#fff" font-family="Arial-BoldMT, Arial" font-size="12" font-weight="700"><tspan x="0" y="0">“DEF is the best answer b/c UVW”</tspan></text><text transform="translate(2066.3928 4483.7669)" fill="#fff" font-family="Arial-BoldMT, Arial" font-size="12" font-weight="700"><tspan x="0" y="0" letter-spacing="-.018em">V</tspan><tspan x="7.787" y="0">isible</tspan><tspan x="-10.119" y="14.4">Narratives</tspan></text><text transform="translate(2067.5705 4595.1566)" fill="#fff" font-family="Arial-BoldMT, Arial" font-size="12" font-weight="700"><tspan x="0" y="0" letter-spacing="-.018em">V</tspan><tspan x="7.787" y="0">isible</tspan><tspan x="-10.119" y="14.4">Narratives</tspan></text><text transform="translate(2434.1677 4361.6009)" fill="#fff" font-family="Arial-BoldMT, Arial" font-size="12" font-weight="700"><tspan x="0" y="0">No Scannable</tspan><tspan x="7.664" y="14.4">Responses</tspan></text><rect x="2040.692" y="4221.06" width="878.217" height="314.261" fill="none" stroke="#fff" stroke-miterlimit="10"/><line x1="2040.692" y1="4390.538" x2="2918.91" y2="4390.538" fill="none" stroke="#fff" stroke-miterlimit="10"/><rect x="2040.692" y="4221.06" width="878.217" height="426.174" fill="none" stroke="#fff" stroke-miterlimit="10"/><rect x="2040.692" y="4710.031" width="878.217" height="94.763" fill="none" stroke="#fff" stroke-miterlimit="10"/><rect x="2040.692" y="4804.794" width="878.217" height="69.391" fill="none" stroke="#fff" stroke-miterlimit="10"/><line x1="1869.167" y1="1902.859" x2="1780.004" y2="1902.859" fill="none" stroke="#fff" stroke-miterlimit="10"/><polygon points="1866.359 1899.156 1867.932 1902.859 1866.359 1906.562 1875.137 1902.859 1866.359 1899.156" fill="#fff"/><line x1="1998.654" y1="2184.012" x2="1691.409" y2="2184.012" fill="none" stroke="#fff200" stroke-miterlimit="10"/><line x1="1998.654" y1="2323.173" x2="1998.654" y2="2184.012" fill="none" stroke="#fff" stroke-miterlimit="10"/><polygon points="2002.357 2320.364 1998.654 2321.937 1994.951 2320.364 1998.654 2329.142 2002.357 2320.364" fill="#fff"/><text transform="translate(1865.0369 1990.3834)" fill="#fff200" font-family="Arial-BoldMT, Arial" font-size="12" font-weight="700"><tspan x="0" y="0">Breakdown User Search Narrative Into</tspan><tspan x="14.133" y="14.4" letter-spacing="-.074em">T</tspan><tspan x="20.572" y="14.4">echnical Constrants &amp; </tspan><tspan x="150.604" y="14.4" letter-spacing="-.055em">T</tspan><tspan x="157.271" y="14.4">radeoffs</tspan></text><text transform="translate(1867.8645 2070.7838)" fill="#fff200" font-family="Arial-BoldMT, Arial" font-size="12" font-weight="700"><tspan x="0" y="0">Form Keywords, Phrases, Narratives</tspan><tspan x="59.145" y="14.4">For </tspan><tspan x="81.809" y="14.4" letter-spacing="-.018em">W</tspan><tspan x="92.918" y="14.4">eb Search</tspan></text><line x1="1847.651" y1="1993.976" x2="1671.105" y2="1993.976" fill="none" stroke="#fff200" stroke-miterlimit="10"/><polygon points="1844.842 1990.273 1846.415 1993.976 1844.842 1997.679 1853.62 1993.976 1844.842 1990.273" fill="#fff200"/><line x1="1571.824" y1="2070.783" x2="1856.751" y2="2070.783" fill="none" stroke="#fff200" stroke-miterlimit="10"/><line x1="1972.577" y1="2045.452" x2="1972.577" y2="2010.645" fill="none" stroke="#fff200" stroke-miterlimit="10"/><polygon points="1976.28 2042.643 1972.577 2044.216 1968.874 2042.643 1972.577 2051.422 1976.28 2042.643" fill="#fff200"/><line x1="1378.564" y1="1409.39" x2="1321.43" y2="1409.39" fill="none" stroke="#fff" stroke-miterlimit="10"/><polygon points="1375.755 1405.687 1377.328 1409.39 1375.755 1413.094 1384.533 1409.39 1375.755 1405.687" fill="#fff"/><line x1="1568.417" y1="1713.746" x2="1568.417" y2="1742.954" fill="none" stroke="#fff" stroke-miterlimit="10"/><line x1="1568.436" y1="1765.708" x2="1568.436" y2="1799.501" fill="none" stroke="#fff" stroke-miterlimit="10"/><line x1="1569.341" y1="1843.94" x2="1569.341" y2="1888.548" fill="none" stroke="#fff" stroke-miterlimit="10"/><line x1="1571.824" y1="2019.731" x2="1571.824" y2="2070.783" fill="none" stroke="#fff" stroke-miterlimit="10"/><line x1="1571.824" y1="2069.995" x2="1571.824" y2="2166.463" fill="none" stroke="#fff200" stroke-miterlimit="10"/><line x1="1569.341" y1="1917.169" x2="1569.341" y2="1964.932" fill="none" stroke="#fff" stroke-miterlimit="10"/><line x1="1567.851" y1="1622.562" x2="1567.851" y2="1669.924" fill="none" stroke="#fff" stroke-miterlimit="10"/><line x1="1156.116" y1="1620.057" x2="1156.116" y2="1669.245" fill="none" stroke="#fff" stroke-miterlimit="10"/><line x1="1156.116" y1="1531.383" x2="1156.116" y2="1620.077" fill="none" stroke="#fff" stroke-miterlimit="10"/><line x1="1156.116" y1="1621.883" x2="1567.851" y2="1621.883" fill="none" stroke="#fff" stroke-miterlimit="10"/><polyline points="2145.503 4497.801 2124.056 4497.801 2124.056 4476.354 2145.503 4476.354" fill="none" stroke="#fff" stroke-miterlimit="10"/><polyline points="2867.519 4587.229 2898.069 4587.229 2898.069 4475.354 2867.52 4475.354" fill="none" stroke="#fff200" stroke-miterlimit="10"/><polyline points="3863.234 5090.557 3968.076 5090.556 3968.078 652.086 3863.236 652.087" fill="none" stroke="#00aeef" stroke-miterlimit="10" stroke-width="2"/><polyline points="2145.503 4610.688 2124.056 4610.688 2124.056 4589.241 2145.503 4589.241" fill="none" stroke="#fff" stroke-miterlimit="10"/><line x1="2507.635" y1="4555.551" x2="3390.588" y2="4555.551" fill="none" stroke="#fff200" stroke-miterlimit="10"/><polygon points="3387.78 4559.255 3389.353 4555.551 3387.78 4551.848 3396.558 4555.551 3387.78 4559.255" fill="#fff200"/><line x1="3395.58" y1="4367.428" x2="3395.58" y2="4956.211" fill="none" stroke="#fff200" stroke-miterlimit="10"/><polygon points="3391.877 4953.402 3395.58 4954.976 3399.283 4953.402 3395.58 4962.181 3391.877 4953.402" fill="#fff200"/><line x1="2520.841" y1="4367.154" x2="3397.128" y2="4367.154" fill="none" stroke="#fff200" stroke-miterlimit="10"/><line x1="2898.069" y1="4584.409" x2="2898.069" y2="4757.412" fill="none" stroke="#fff200" stroke-miterlimit="10"/><line x1="2251.037" y1="4678.79" x2="2898.069" y2="4678.79" fill="none" stroke="#fff200" stroke-miterlimit="10"/><polygon points="2253.846 4682.493 2252.273 4678.79 2253.846 4675.087 2245.067 4678.79 2253.846 4682.493" fill="#fff200"/><line x1="2559.663" y1="4757.412" x2="2898.069" y2="4757.412" fill="none" stroke="#fff200" stroke-miterlimit="10"/><polygon points="2562.472 4761.115 2560.898 4757.412 2562.472 4753.709 2553.693 4757.412 2562.472 4761.115" fill="#fff200"/><line x1="2894.211" y1="4757.412" x2="3202.972" y2="4757.412" fill="none" stroke="#fff200" stroke-miterlimit="10"/><polygon points="3200.164 4761.115 3201.737 4757.412 3200.164 4753.709 3208.942 4757.412 3200.164 4761.115" fill="#fff200"/><line x1="3207.395" y1="4758.494" x2="3207.395" y2="4838.505" fill="none" stroke="#fff200" stroke-miterlimit="10"/><polygon points="3203.692 4835.697 3207.395 4837.27 3211.098 4835.697 3207.395 4844.475 3203.692 4835.697" fill="#fff200"/><line x1="2897.659" y1="4841.67" x2="2897.659" y2="4767.181" fill="none" stroke="#fff200" stroke-miterlimit="10"/><polygon points="2901.362 4769.989 2897.659 4768.416 2893.956 4769.989 2897.659 4761.211 2901.362 4769.989" fill="#fff200"/><line x1="2900.181" y1="4843.394" x2="3208.942" y2="4843.394" fill="none" stroke="#fff200" stroke-miterlimit="10"/><polygon points="2902.99 4847.097 2901.416 4843.394 2902.99 4839.691 2894.211 4843.394 2902.99 4847.097" fill="#fff200"/><line x1="2381.205" y1="4757.412" x2="728.551" y2="4757.412" fill="none" stroke="#fff200" stroke-miterlimit="10"/><polygon points="2378.396 4753.709 2379.97 4757.412 2378.396 4761.115 2387.175 4757.412 2378.396 4753.709" fill="#fff200"/><line x1="2258.509" y1="4843.394" x2="2898.069" y2="4843.394" fill="none" stroke="#fff200" stroke-miterlimit="10"/><polygon points="2261.318 4847.097 2259.744 4843.394 2261.318 4839.691 2252.539 4843.394 2261.318 4847.097" fill="#fff200"/><line x1="1499.935" y1="4843.394" x2="2065.067" y2="4843.394" fill="none" stroke="#fff200" stroke-miterlimit="10"/><line x1="1499.935" y1="5008.963" x2="1499.935" y2="5063.289" fill="none" stroke="#fff200" stroke-miterlimit="10"/><polygon points="1496.232 5060.48 1499.935 5062.054 1503.639 5060.48 1499.935 5069.259 1496.232 5060.48" fill="#fff200"/><line x1="1499.935" y1="5106.52" x2="1499.935" y2="5241.889" fill="none" stroke="#fff200" stroke-miterlimit="10"/><polygon points="1496.232 5239.081 1499.935 5240.654 1503.639 5239.081 1499.935 5247.859 1496.232 5239.081" fill="#fff200"/><line x1="1015.906" y1="1388.593" x2="1301.421" y2="1388.593" fill="none" stroke="#fff" stroke-miterlimit="10"/><line x1="728.551" y1="1520.098" x2="1080.747" y2="1520.098" fill="none" stroke="#fff200" stroke-miterlimit="10"/><line x1="728.551" y1="1941.05" x2="1569.341" y2="1941.05" fill="none" stroke="#fff200" stroke-miterlimit="10"/><line x1="818.073" y1="1305.044" x2="1019.421" y2="1305.044" fill="none" stroke="#fff" stroke-miterlimit="10"/><line x1="813.073" y1="1360.175" x2="1019.421" y2="1305.045" fill="none" stroke="#fff" stroke-miterlimit="10"/><line x1="728.551" y1="1396.587" x2="728.551" y2="4757.412" fill="none" stroke="#fff200" stroke-miterlimit="10"/><line x1="813.073" y1="1360.175" x2="1019.421" y2="1360.175" fill="none" stroke="#fff" stroke-miterlimit="10"/><line x1="1014.568" y1="1432.427" x2="1303.34" y2="1432.427" fill="none" stroke="#fff" stroke-miterlimit="10"/><line x1="813.072" y1="1305.045" x2="1019.421" y2="1360.175" fill="none" stroke="#fff" stroke-miterlimit="10"/><path d="M4603.939,658.952c-3.823-.489-6.441-3.708-6.451-7.283-.011-3.584,2.632-6.75,6.314-7.301,4.487-.672,8.406,2.698,8.529,7.054.125,4.451-3.658,8.137-8.391,7.531ZM4605.095,656.362c2.713-.103,4.366-2.326,4.384-4.695.018-2.37-1.697-4.545-4.248-4.71-2.783-.18-4.879,2.069-4.883,4.704-.004,2.468,1.937,4.808,4.747,4.701Z" fill="#00aeef"/><path d="M4659.291,655.691l-6.685-.014-1.194,3.131-2.891-.011,5.779-14.24,3.311-.065,5.768,14.299-2.941.027-1.146-3.128ZM4658.29,653.288l-2.365-5.824-2.392,5.853,4.757-.028Z" fill="#00aeef"/><path d="M4613.824,662.926v-14.335s2.587-.026,2.587-.026l.256,1.062c1.417-1.414,3.475-1.577,5.356-.775,1.641.7,2.812,2.424,2.947,4.458.138,2.083-.858,4.093-2.488,5.004-1.933,1.081-4.056.97-5.948-.378l-.031,4.984-2.679.007ZM4618.701,656.615c1.994.453,3.488-1.081,3.555-2.773.071-1.776-1.303-3.331-3.226-3.115-1.534.172-2.489,1.484-2.54,2.871-.046,1.251.679,2.668,2.21,3.017Z" fill="#00aeef"/><path d="M4633.731,655.598l2.543.036c-.608,2.219-2.513,3.26-4.64,3.395-3.19.202-5.618-2.128-5.605-5.31.013-3.254,2.586-5.622,5.86-5.325,3.06.277,5.003,2.948,4.496,6.149l-7.716.028c.269,1.255,1.126,2.004,1.98,2.205,1.236.291,2.223-.021,3.082-1.178ZM4633.893,652.623c-.437-1.764-1.599-2.132-2.851-2.062-1.035.058-2.133.864-2.276,2.09l5.127-.029Z" fill="#00aeef"/><path d="M4640.649,652.481l-.107,6.324-2.683-.003-.002-10.166,2.552-.089.244,1.089c1.108-1.234,2.746-1.528,4.379-1.01,1.388.441,2.441,1.94,2.446,3.679l.02,6.497-2.693.014v-5.821c0-1.204-.57-2.132-1.699-2.298-.904-.133-2.433.398-2.457,1.784Z" fill="#00aeef"/><polygon points="4667.204 658.777 4664.472 658.803 4664.471 644.529 4667.201 644.51 4667.204 658.777" fill="#00aeef"/><line x1="3899.673" y1="651.531" x2="1482.615" y2="651.531" fill="none" stroke="#00aeef" stroke-miterlimit="10" stroke-width="2"/><line x1="3968.076" y1="5089.72" x2="1588.577" y2="5089.72" fill="none" stroke="#00aeef" stroke-miterlimit="10" stroke-width="2"/><line x1="1509.211" y1="915.508" x2="1509.211" y2="970.042" fill="none" stroke="#fff" stroke-miterlimit="10"/><line x1="1509.211" y1="1035.781" x2="1509.211" y2="1072.172" fill="none" stroke="#fff200" stroke-miterlimit="10"/><line x1="1509.211" y1="1071.296" x2="1157.376" y2="1071.296" fill="none" stroke="#fff200" stroke-miterlimit="10"/><line x1="1157.376" y1="1117.079" x2="742.97" y2="1117.079" fill="none" stroke="#fff200" stroke-miterlimit="10"/><line x1="1706.166" y1="981.55" x2="1670.948" y2="981.55" fill="none" stroke="#fff200" stroke-miterlimit="10"/><line x1="1300.577" y1="773.818" x2="1300.577" y2="827.818" fill="none" stroke="#fff" stroke-miterlimit="10"/><line x1="1408.316" y1="773.818" x2="1408.316" y2="827.818" fill="none" stroke="#fff" stroke-miterlimit="10"/><line x1="1509.211" y1="774.168" x2="1509.211" y2="828.168" fill="none" stroke="#fff" stroke-miterlimit="10"/><line x1="859.186" y1="773.818" x2="859.186" y2="827.818" fill="none" stroke="#fff" stroke-miterlimit="10"/><line x1="743.97" y1="827.469" x2="743.97" y2="1117.079" fill="none" stroke="#fff" stroke-miterlimit="10"/><line x1="986.796" y1="774.168" x2="986.796" y2="828.168" fill="none" stroke="#fff" stroke-miterlimit="10"/><line x1="742.97" y1="827.818" x2="1509.211" y2="827.818" fill="none" stroke="#fff" stroke-miterlimit="10"/><line x1="742.97" y1="770.688" x2="742.97" y2="827.818" fill="none" stroke="#fff" stroke-miterlimit="10"/><rect x="526.106" y="1266.862" width="286.435" height="129.725" fill="none" stroke="#fff200" stroke-miterlimit="10"/><text transform="translate(1961.9245 2350.8878)" fill="#fff" font-family="ArialMT, Arial" font-size="12"><tspan x="0" y="0">Search Engine</tspan><tspan x="-13.655" y="14.4">General Framework</tspan></text><text transform="translate(1754.3196 2530.8351)" fill="#fff" font-family="ArialMT, Arial" font-size="12"><tspan x="0" y="0">Hyperlinks</tspan></text><text transform="translate(1951.241 2640.673)" fill="#fff" font-family="ArialMT, Arial" font-size="12"><tspan x="0" y="0">Download </tspan><tspan x="56.701" y="0" letter-spacing="-.018em">W</tspan><tspan x="67.811" y="0">ebpage </tspan></text><text transform="translate(1952.1531 2705.6847)" fill="#fff" font-family="ArialMT, Arial" font-size="12"><tspan x="0" y="0">Extract Main Content</tspan></text><text transform="translate(1952.1531 2736.9015)" fill="#fff" font-family="ArialMT, Arial" font-size="12"><tspan x="0" y="0">Detect Language</tspan></text><text transform="translate(1952.1531 2767.049)" fill="#fff" font-family="ArialMT, Arial" font-size="12"><tspan x="0" y="0" letter-spacing="-.111em">T</tspan><tspan x="6" y="0">okenize</tspan><tspan x="47.361" y="0" letter-spacing="-.018em"> </tspan><tspan x="50.479" y="0" letter-spacing="-.111em">T</tspan><tspan x="56.479" y="0">ext</tspan></text><text transform="translate(2204.7859 2767.1813)" fill="#fff" font-family="ArialMT, Arial" font-size="12"><tspan x="0" y="0">“best”, “shoes”, “for”, “running”, “red”</tspan></text><text transform="translate(2204.7751 2818.5763)" fill="#fff" font-family="ArialMT, Arial" font-size="12"><tspan x="0" y="0">“people”, “companies”, “cities”, “products”, “organizations”, “hiking”, “boxing”</tspan></text><text transform="translate(2262.9568 2908.3107)" fill="#fff" font-family="ArialMT, Arial" font-size="12"><tspan x="0" y="0">Originalit</tspan><tspan x="47.35" y="0" letter-spacing="-.074em">y</tspan><tspan x="52.459" y="0">, completeness, clarit</tspan><tspan x="165.17" y="0" letter-spacing="-.074em">y</tspan><tspan x="170.279" y="0">, trustworthiness</tspan></text><text transform="translate(2262.261 2934.7716)" fill="#fff" font-family="ArialMT, Arial" font-size="12"><tspan x="0" y="0">Meaning, concepts, and relationships between them</tspan></text><text transform="translate(1951.6731 2794.1671)" fill="#fff" font-family="ArialMT, Arial" font-size="12"><tspan x="0" y="0">Normalize </tspan><tspan x="57.346" y="0" letter-spacing="-.018em">W</tspan><tspan x="68.455" y="0">ords</tspan></text><text transform="translate(1951.6853 2822.5763)" fill="#fff" font-family="ArialMT, Arial" font-size="12"><tspan x="0" y="0">Recognize Entities and</tspan><tspan x="122.742" y="0" letter-spacing="-.018em"> </tspan><tspan x="125.859" y="0" letter-spacing="-.111em">T</tspan><tspan x="131.859" y="0">opics</tspan></text><text transform="translate(1951.6853 2850.6857)" fill="#fff" font-family="ArialMT, Arial" font-size="12"><tspan x="0" y="0">Analyze Images, </tspan><tspan x="92.045" y="0" letter-spacing="-.018em">V</tspan><tspan x="99.832" y="0">ideos, and Structured Data</tspan></text><text transform="translate(1951.6853 2880.9288)" fill="#fff" font-family="ArialMT, Arial" font-size="12"><tspan x="0" y="0">Detect Duplicates and Choose Canonical Pages</tspan></text><text transform="translate(1951.9851 2908.3107)" fill="#fff" font-family="ArialMT, Arial" font-size="12"><tspan x="0" y="0">Evaluate Quality Signals</tspan></text><text transform="translate(1952.2951 2934.7716)" fill="#fff" font-family="ArialMT, Arial" font-size="12"><tspan x="0" y="0">Build Internal, Searchable, Semantic Representation</tspan></text><text transform="translate(1952.2829 2962.8712)" fill="#fff" font-family="ArialMT, Arial" font-size="12"><tspan x="0" y="0">Build Inverted Index</tspan></text><text transform="translate(1951.675 2990.8712)" fill="#fff" font-family="ArialMT, Arial" font-size="12"><tspan x="0" y="0">Ready for Retrieval During Search</tspan></text><text transform="translate(1952.1531 2671.965)" fill="#fff" font-family="ArialMT, Arial" font-size="12"><tspan x="0" y="0">Parse HTM</tspan><tspan x="60.674" y="0" letter-spacing="-.037em">L</tspan></text><text transform="translate(2204.7868 2672.0968)" fill="#fff" font-family="ArialMT, Arial" font-size="12"><tspan x="0" y="0" letter-spacing="-.037em">T</tspan><tspan x="6.885" y="0">itles, Headings, Paragraphs, Links, Metadata, Descriptions</tspan></text><text transform="translate(2204.4866 2705.8165)" fill="#fff" font-family="ArialMT, Arial" font-size="12"><tspan x="0" y="0">Article, menus, repeated template content</tspan></text><text transform="translate(1826.7264 2530.8351)" fill="#fff" font-family="ArialMT, Arial" font-size="12"><tspan x="0" y="0">Sitemaps</tspan></text><text transform="translate(1894.3655 2530.8351)" fill="#fff" font-family="ArialMT, Arial" font-size="12"><tspan x="0" y="0">Revisit Known Pages</tspan></text><text transform="translate(2016.6492 2530.8351)" fill="#fff" font-family="ArialMT, Arial" font-size="12"><tspan x="0" y="0" letter-spacing="-.018em">V</tspan><tspan x="7.787" y="0">isit New Pages</tspan></text><text transform="translate(2114.5339 2530.8351)" fill="#fff" font-family="ArialMT, Arial" font-size="12"><tspan x="0" y="0">UR</tspan><tspan x="17.332" y="0" letter-spacing="-.037em">L</tspan><tspan x="23.561" y="0" xml:space="preserve"> Redirects</tspan></text><text transform="translate(2199.6648 2530.8351)" fill="#fff" font-family="ArialMT, Arial" font-size="12"><tspan x="0" y="0">HTT</tspan><tspan x="23.326" y="0" letter-spacing="-.018em">P</tspan><tspan x="31.113" y="0" xml:space="preserve"> Responses</tspan></text><text transform="translate(1981.5105 2495.5045)" fill="#fff" font-family="ArialMT, Arial" font-size="12"><tspan x="0" y="0">Crawling</tspan></text><text transform="translate(1981.9426 2605.1398)" fill="#fff" font-family="ArialMT, Arial" font-size="12"><tspan x="0" y="0">Indexing</tspan></text><text transform="translate(1979.8547 3075.7711)" fill="#fff200" font-family="ArialMT, Arial" font-size="12"><tspan x="0" y="0">Ranking</tspan></text><text transform="translate(1913.9852 3196.8766)" fill="#fff" font-family="ArialMT, Arial" font-size="12"><tspan x="0" y="0">Understand ChatGP</tspan><tspan x="108.059" y="0" letter-spacing="-.018em">T</tspan><tspan x="115.172" y="0" xml:space="preserve"> Search Query</tspan></text><text transform="translate(1951.8733 3133.5753)" fill="#fff200" font-family="ArialMT, Arial" font-size="12"><tspan x="0" y="0">User Search Query</tspan></text><text transform="translate(1936.8118 3389.0035)" fill="#fff" font-family="ArialMT, Arial" font-size="12"><tspan x="0" y="0">Compute </tspan><tspan x="52.025" y="0" letter-spacing="-.018em">W</tspan><tspan x="63.135" y="0">ebpage Signals</tspan></text><text transform="translate(1958.7732 3510.257)" fill="#fff" font-family="ArialMT, Arial" font-size="12"><tspan x="0" y="0">Synthesize Signals</tspan></text><text transform="translate(1394.0184 3749.276)" fill="#fff" font-family="ArialMT, Arial" font-size="12"><tspan x="0" y="0">Continous ChatGP</tspan><tspan x="100.055" y="0" letter-spacing="-.018em">T</tspan><tspan x="107.168" y="0" xml:space="preserve"> Reasoning</tspan></text><text transform="translate(1474.056 3936.2189)" fill="#fff200" font-family="Arial-BoldMT, Arial" font-size="12" font-weight="700"><tspan x="0" y="0">ChatGPT Synthesis of </tspan><tspan x="129.352" y="0" letter-spacing="-.018em">W</tspan><tspan x="140.461" y="0">eb Results</tspan></text><text transform="translate(1577.7918 3830.0875)" fill="#fff" font-family="ArialMT, Arial" font-size="12"><tspan x="0" y="0">Potential</tspan><tspan x="46.699" y="0" letter-spacing="-.055em"> </tspan><tspan x="49.371" y="0">Additional Round(s) of </tspan><tspan x="171.439" y="0" letter-spacing="-.018em">W</tspan><tspan x="182.549" y="0">eb Search</tspan></text><text transform="translate(1963.595 3570.2701)" fill="#fff" font-family="ArialMT, Arial" font-size="12"><tspan x="0" y="0">Diversity Factor</tspan></text><text transform="translate(1891.18 3635.3815)" fill="#fff" font-family="ArialMT, Arial" font-size="12"><tspan x="0" y="0">Generate the Search Engine Results Page (SERP)</tspan></text><text transform="translate(1942.2937 3316.7477)" fill="#fff" font-family="ArialMT, Arial" font-size="12"><tspan x="0" y="0">Retrieve Candidate Pages</tspan></text><text transform="translate(1874.7435 3234.1041)" fill="#fff" font-family="ArialMT, Arial" font-size="12"><tspan x="0" y="0">Nature of Search</tspan></text><text transform="translate(1974.7917 3234.2365)" fill="#fff" font-family="ArialMT, Arial" font-size="12"><tspan x="0" y="0">Search Intent</tspan></text><text transform="translate(2057.3879 3234.3688)" fill="#fff" font-family="ArialMT, Arial" font-size="12"><tspan x="0" y="0">Nature of</tspan><tspan x="49.359" y="0" letter-spacing="-.018em"> </tspan><tspan x="52.477" y="0" letter-spacing="-.037em">T</tspan><tspan x="59.361" y="0">ruth</tspan></text><text transform="translate(1985.1633 3430.2633)" fill="#fff" font-family="ArialMT, Arial" font-size="12"><tspan x="0" y="0">Semantic Relavance</tspan></text><text transform="translate(2183.3254 3430.7706)" fill="#fff" font-family="ArialMT, Arial" font-size="12"><tspan x="0" y="0">Freshness</tspan></text><text transform="translate(2252.7278 3430.2633)" fill="#fff" font-family="ArialMT, Arial" font-size="12"><tspan x="0" y="0">Authority</tspan></text><text transform="translate(2316.0867 3430.2638)" fill="#fff" font-family="ArialMT, Arial" font-size="12"><tspan x="0" y="0">User Experience</tspan></text><text transform="translate(2111.7829 3430.2633)" fill="#fff" font-family="ArialMT, Arial" font-size="12"><tspan x="0" y="0">Originality</tspan></text><text transform="translate(1657.3352 3430.2638)" fill="#fff" font-family="ArialMT, Arial" font-size="12"><tspan x="0" y="0">Entity Relevance</tspan></text><text transform="translate(1761.6849 3430.2633)" fill="#fff" font-family="ArialMT, Arial" font-size="12"><tspan x="0" y="0" letter-spacing="-.111em">T</tspan><tspan x="6" y="0">opical Coverage</tspan></text><text transform="translate(1874.3006 3430.2633)" fill="#fff" font-family="ArialMT, Arial" font-size="12"><tspan x="0" y="0">Lexical Relevance</tspan></text><text transform="translate(1963.7473 2419.4)" fill="#fff" font-family="ArialMT, Arial" font-size="12"><tspan x="0" y="0">Underlying Motif:</tspan><tspan x="-153.621" y="14.4">Retrieve Results</tspan><tspan x="-65.59" y="14.4" letter-spacing="-.018em"> </tspan><tspan x="-62.473" y="14.4">That Will Display Most Relevant and</tspan><tspan x="130.266" y="14.4" letter-spacing="-.055em"> </tspan><tspan x="132.938" y="14.4">Accurate Information</tspan></text><line x1="2000.766" y1="2378.661" x2="2000.766" y2="2399.008" fill="none" stroke="#fff" stroke-miterlimit="10"/><line x1="2000.766" y1="2444.617" x2="2000.766" y2="2477.269" fill="none" stroke="#fff" stroke-miterlimit="10"/><line x1="1571.98" y1="3127.768" x2="1943.897" y2="3127.768" fill="none" stroke="#fff200" stroke-miterlimit="10"/><line x1="2062.621" y1="3130.485" x2="2687.935" y2="3130.485" fill="none" stroke="#fff" stroke-miterlimit="10"/><line x1="2091.15" y1="2070.862" x2="2687.527" y2="2070.862" fill="none" stroke="#fff" stroke-miterlimit="10"/><line x1="1646.144" y1="3440.568" x2="2416.301" y2="3440.568" fill="none" stroke="#fff" stroke-miterlimit="10"/><line x1="1646.144" y1="3410.786" x2="2416.301" y2="3410.786" fill="none" stroke="#fff" stroke-miterlimit="10"/><line x1="1866.635" y1="3214.791" x2="2137.809" y2="3214.791" fill="none" stroke="#fff" stroke-miterlimit="10"/><line x1="1866.635" y1="3246.487" x2="2137.809" y2="3246.487" fill="none" stroke="#fff" stroke-miterlimit="10"/><line x1="2000.766" y1="2550.226" x2="2000.766" y2="2588.954" fill="none" stroke="#fff" stroke-miterlimit="10"/><line x1="2000.766" y1="3009.443" x2="2000.766" y2="3056.356" fill="none" stroke="#fff" stroke-miterlimit="10"/><line x1="2000.766" y1="3088.463" x2="2000.766" y2="3114.632" fill="none" stroke="#fff" stroke-miterlimit="10"/><line x1="2000.766" y1="3141.18" x2="2000.766" y2="3180.916" fill="none" stroke="#fff200" stroke-miterlimit="10"/><line x1="2000.766" y1="3250.878" x2="2000.766" y2="3297.669" fill="none" stroke="#fff200" stroke-miterlimit="10"/><line x1="2000.766" y1="3326.356" x2="2000.766" y2="3367.029" fill="none" stroke="#fff200" stroke-miterlimit="10"/><line x1="2000.766" y1="3443.784" x2="2000.766" y2="3491.106" fill="none" stroke="#fff200" stroke-miterlimit="10"/><line x1="2000.766" y1="3518.246" x2="2000.766" y2="3556.991" fill="none" stroke="#fff200" stroke-miterlimit="10"/><line x1="2000.766" y1="3579.633" x2="2000.766" y2="3617.218" fill="none" stroke="#fff200" stroke-miterlimit="10"/><line x1="2000.766" y1="3642.35" x2="2000.766" y2="3677.274" fill="none" stroke="#fff200" stroke-miterlimit="10"/><line x1="2001.124" y1="3677.029" x2="1573.294" y2="3677.029" fill="none" stroke="#fff200" stroke-miterlimit="10"/><line x1="1822.577" y1="3792.463" x2="1573.294" y2="3792.463" fill="none" stroke="#fff200" stroke-miterlimit="10"/><line x1="1822.558" y1="3863.765" x2="1573.275" y2="3863.765" fill="none" stroke="#fff200" stroke-miterlimit="10"/><line x1="1823.256" y1="3863.859" x2="1823.256" y2="3792.104" fill="none" stroke="#fff200" stroke-miterlimit="10"/><line x1="1571.98" y1="2208.237" x2="1571.98" y2="3919.765" fill="none" stroke="#fff200" stroke-miterlimit="10"/><line x1="2687.527" y1="2073.067" x2="2687.527" y2="3130.485" fill="none" stroke="#fff" stroke-miterlimit="10"/><line x1="1946.207" y1="2626.855" x2="1946.207" y2="3000.835" fill="none" stroke="#fff" stroke-miterlimit="10"/><line x1="1737.026" y1="2513.748" x2="2291.113" y2="2513.748" fill="none" stroke="#fff" stroke-miterlimit="10"/><line x1="1737.026" y1="2541.226" x2="2291.113" y2="2541.226" fill="none" stroke="#fff" stroke-miterlimit="10"/><text transform="translate(1871.0721 4018.3641)" fill="#fff" font-family="Arial-BoldMT, Arial" font-size="12" font-weight="700"><tspan x="0" y="0">Nature of Information Search</tspan></text><text transform="translate(1673.6292 4208.538)" fill="#fff200" font-family="Arial-BoldMT, Arial" font-size="12" font-weight="700"><tspan x="0" y="0">ChatGPT Corroboration Synthesis to </tspan><tspan x="213.346" y="0" letter-spacing="-.074em">T</tspan><tspan x="219.785" y="0">arget Confidence Level</tspan></text><text transform="translate(1564.2293 4018.4442)" fill="#fff200" font-family="Arial-BoldMT, Arial" font-size="12" font-weight="700"><tspan x="0" y="0">Non-Factual, Corroborated Nature</tspan></text><text transform="translate(1458.3611 4018.4442)" fill="#fff" font-family="Arial-BoldMT, Arial" font-size="12" font-weight="700"><tspan x="0" y="0">Factual Nature</tspan></text><text transform="translate(1443.053 4107.8217)" fill="#fff" font-family="Arial-BoldMT, Arial" font-size="12" font-weight="700"><tspan x="0" y="0">ChatGPT Navigation</tspan><tspan x="-5.104" y="14.4">to Source of</tspan><tspan x="64.898" y="14.4" letter-spacing="-.037em"> </tspan><tspan x="67.787" y="14.4">Authority</tspan></text><text transform="translate(1449.6941 4304.4632)" fill="#fff" font-family="Arial-BoldMT, Arial" font-size="12" font-weight="700"><tspan x="0" y="0">ChatGPT Navigate</tspan><tspan x="16.564" y="14.4">Find</tspan><tspan x="41.889" y="14.4" letter-spacing="-.037em"> </tspan><tspan x="44.777" y="14.4">Answer</tspan></text><text transform="translate(1599.032 4107.8217)" fill="#fff200" font-family="Arial-BoldMT, Arial" font-size="12" font-weight="700"><tspan x="0" y="0">ChatGPT Latest Protocol</tspan><tspan x="5.016" y="14.4">on </tspan><tspan x="23.01" y="14.4" letter-spacing="-.055em">T</tspan><tspan x="29.678" y="14.4">ruth Corroboration</tspan></text><line x1="1417.404" y1="3997.826" x2="1776.395" y2="3997.826" fill="none" stroke="#fff" stroke-miterlimit="10"/><line x1="1417.404" y1="4030.446" x2="1776.395" y2="4030.446" fill="none" stroke="#fff" stroke-miterlimit="10"/><line x1="1855.589" y1="4014.135" x2="1766.426" y2="4014.135" fill="none" stroke="#fff" stroke-miterlimit="10"/><polygon points="1852.781 4010.432 1854.354 4014.135 1852.781 4017.839 1861.559 4014.135 1852.781 4010.432" fill="#fff"/><line x1="1499.707" y1="4029.972" x2="1499.707" y2="4090.425" fill="none" stroke="#fff" stroke-miterlimit="10"/><line x1="1499.707" y1="4135.935" x2="1499.707" y2="4286.557" fill="none" stroke="#fff" stroke-miterlimit="10"/><line x1="1499.707" y1="4328.331" x2="1499.707" y2="4957.142" fill="none" stroke="#fff" stroke-miterlimit="10"/><line x1="1572.047" y1="3944.559" x2="1572.047" y2="3996.689" fill="none" stroke="#fff200" stroke-miterlimit="10"/><line x1="1664.556" y1="4030.35" x2="1664.556" y2="4092.803" fill="none" stroke="#fff200" stroke-miterlimit="10"/><line x1="2297.709" y1="4258.538" x2="2297.709" y2="4284.689" fill="none" stroke="#fff200" stroke-miterlimit="10"/><line x1="2473.634" y1="4318.312" x2="2473.634" y2="4347.52" fill="none" stroke="#fff200" stroke-miterlimit="10"/><line x1="2291.256" y1="4321.708" x2="2175.784" y2="4346.501" fill="none" stroke="#fff200" stroke-miterlimit="10"/><line x1="2119.747" y1="4319.67" x2="2175.784" y2="4346.501" fill="none" stroke="#fff200" stroke-miterlimit="10"/><path d="M2221.633,4360.765c91.565-15.282,104.078,58.434,44.978,68.514" fill="none" stroke="#fff200" stroke-miterlimit="10"/><polygon points="2268.866 4425.157 2267.825 4429.044 2269.899 4432.491 2260.69 4430.048 2268.866 4425.157" fill="#fff200"/><rect x="2040.692" y="4646.368" width="878.217" height="64.529" fill="none" stroke="#fff200" stroke-miterlimit="10"/><line x1="2162.2" y1="4686.84" x2="2162.2" y2="4745.192" fill="none" stroke="#fff200" stroke-miterlimit="10"/><polygon points="2158.496 4742.383 2162.2 4743.956 2165.903 4742.383 2162.2 4751.161 2158.496 4742.383" fill="#fff200"/><line x1="1156.116" y1="4992.463" x2="1433.369" y2="4992.463" fill="none" stroke="#fff" stroke-miterlimit="10"/><line x1="1430.531" y1="5272.312" x2="462.049" y2="5272.312" fill="none" stroke="#fff" stroke-miterlimit="10"/><line x1="462.049" y1="404.84" x2="462.049" y2="5273.387" fill="none" stroke="#fff200" stroke-miterlimit="10"/><line x1="462.049" y1="404.84" x2="1069.973" y2="404.84" fill="none" stroke="#fff200" stroke-miterlimit="10"/></svg>