<?xml version="1.0" encoding="UTF-8"?><svg xmlns="http://www.w3.org/2000/svg" width="4626.402" height="5804.106" viewBox="0 0 4626.402 5804.106"><g id="Layer_1"><rect width="4626.402" height="5804.106" fill="#1a2f5a"/><text transform="translate(816.835 467.678)" fill="#fff" font-family="Arial-BoldMT, Arial" font-size="60" font-weight="700"><tspan x="0" y="0">Day to day </tspan><tspan x="320.098" y="0" letter-spacing="-.018em">W</tspan><tspan x="375.645" y="0">orkflow</tspan></text><text transform="translate(3003.3485 2256.8469)" fill="#fff" font-family="Arial-BoldMT, Arial" font-size="60" font-weight="700"><tspan x="0" y="0">AI </tspan><tspan x="76.67" y="0" letter-spacing="-.018em">W</tspan><tspan x="132.217" y="0">eb Search</tspan></text><text transform="translate(1259.0124 5662.4865)" fill="#fff" font-family="Arial-BoldMT, Arial" font-size="60" font-weight="700"><tspan x="0" y="0">Product</tspan><tspan x="226.67" y="0" letter-spacing="-.037em"> </tspan><tspan x="241.113" y="0">Adoption</tspan></text><text transform="translate(2941.7217 4094.2612)" fill="#fff" font-family="Arial-BoldMT, Arial" font-size="60" font-weight="700"><tspan x="0" y="0">AI Synthesis of </tspan><tspan x="0" y="72">Corroborated Proof</tspan></text><text transform="translate(1190.7664 578.0686)" fill="#fff" font-family="Arial-BoldMT, Arial" font-size="12" font-weight="700"><tspan x="0" y="0">Leisure </tspan><tspan x="46.02" y="0" letter-spacing="-.018em">T</tspan><tspan x="53.133" y="0">ime</tspan></text><text transform="translate(975.242 578.554)" fill="#fff" font-family="Arial-BoldMT, Arial" font-size="12" font-weight="700"><tspan x="0" y="0" letter-spacing="-.018em">W</tspan><tspan x="11.109" y="0">ork &amp; Routines</tspan></text><text transform="translate(997.631 649.269)" fill="#fff" font-family="Arial-BoldMT, Arial" font-size="12" font-weight="700"><tspan x="0" y="0" letter-spacing="-.018em">W</tspan><tspan x="11.109" y="0">orkflow of</tspan><tspan x="-33.021" y="14.4">Image &amp; </tspan><tspan x="16.995" y="14.4" letter-spacing="-.018em">V</tspan><tspan x="24.782" y="14.4">ideo Creation</tspan></text><text transform="translate(1193.7989 648.7893)" fill="#fff" font-family="Arial-BoldMT, Arial" font-size="12" font-weight="700"><tspan x="0" y="0" letter-spacing="-.018em">W</tspan><tspan x="11.109" y="0">orkflow of</tspan><tspan x="3.548" y="14.4">Reasoning</tspan></text><text transform="translate(1190.8736 719.0139)" fill="#fff" font-family="Arial-BoldMT, Arial" font-size="12" font-weight="700"><tspan x="0" y="0">AI adoption</tspan><tspan x="-21.343" y="14.4">Reasoning &amp; Logic</tspan></text><text transform="translate(1002.9632 719.1462)" fill="#fff" font-family="Arial-BoldMT, Arial" font-size="12" font-weight="700"><tspan x="0" y="0">AI adoption</tspan><tspan x="-34.245" y="14.4">Image &amp; </tspan><tspan x="15.771" y="14.4" letter-spacing="-.018em">V</tspan><tspan x="23.558" y="14.4">ideo Creation</tspan></text><text transform="translate(800.544 650.425)" fill="#fff" font-family="Arial-BoldMT, Arial" font-size="12" font-weight="700"><tspan x="0" y="0" letter-spacing="-.018em">W</tspan><tspan x="11.109" y="0">orkflow of</tspan><tspan x="-17.669" y="14.4" letter-spacing="-.018em">W</tspan><tspan x="-6.56" y="14.4">riting &amp; Reading</tspan></text><text transform="translate(806.794 718.99)" fill="#fff" font-family="Arial-BoldMT, Arial" font-size="12" font-weight="700"><tspan x="0" y="0">AI adoption</tspan><tspan x="-38.232" y="14.4" letter-spacing="-.018em">W</tspan><tspan x="-27.123" y="14.4">riting &amp; Summarization</tspan></text><text transform="translate(447.064 232.223)" fill="#fff200" font-family="Arial-BoldMT, Arial" font-size="12" font-weight="700"><tspan x="0" y="0">Product Narrative Contribution in Day-to-day </tspan><tspan x="258.686" y="0" letter-spacing="-.018em">W</tspan><tspan x="269.795" y="0">orkflow</tspan></text><text transform="translate(960.854 1104.0583)" fill="#fff200" font-family="Arial-BoldMT, Arial" font-size="12" font-weight="700"><tspan x="0" y="0">Conversation Point Requiring</tspan><tspan x="-46.664" y="14.4">Solution or Product Recommendation</tspan></text><text transform="translate(597.966 885.012)" fill="#fff" font-family="Arial-BoldMT, Arial" font-size="12" font-weight="700"><tspan x="0" y="0">Horizontal &amp; </tspan><tspan x="73.998" y="0" letter-spacing="-.055em">V</tspan><tspan x="81.34" y="0">ertical</tspan><tspan x="-30.674" y="14.4">Conversation Expansions</tspan></text><text transform="translate(528.048 960.298)" fill="#fff" font-family="Arial-BoldMT, Arial" font-size="12" font-weight="700"><tspan x="0" y="0">AI Build-up of User Preference &amp;</tspan><tspan x="74.684" y="14.4">Contextual Memory</tspan></text><text transform="translate(1347.1744 650.5803)" fill="#fff" font-family="Arial-BoldMT, Arial" font-size="12" font-weight="700"><tspan x="0" y="0" letter-spacing="-.018em">W</tspan><tspan x="11.109" y="0">orkflow of</tspan><tspan x="4.881" y="14.4">Questions</tspan></text><text transform="translate(1351.7583 717.6501)" fill="#fff" font-family="Arial-BoldMT, Arial" font-size="12" font-weight="700"><tspan x="0" y="0">AI adoption</tspan><tspan x="-31.342" y="14.4">Questions &amp; Solutions</tspan></text><text transform="translate(1466.6036 811.0344)" fill="#fff" font-family="Arial-BoldMT, Arial" font-size="12" font-weight="700"><tspan x="0" y="0">Personal</tspan><tspan x="-3.993" y="14.4">Questions</tspan></text><text transform="translate(1355.5777 811.0339)" fill="#fff" font-family="Arial-BoldMT, Arial" font-size="12" font-weight="700"><tspan x="0" y="0">Reasoning</tspan><tspan x="4.67" y="14.4">Question</tspan></text><text transform="translate(905.514 811.034)" fill="#fff" font-family="Arial-BoldMT, Arial" font-size="12" font-weight="700"><tspan x="0" y="0">Knowledge / Research</tspan><tspan x="38.019" y="14.4">Question</tspan></text><text transform="translate(816.416 811.034)" fill="#fff" font-family="Arial-BoldMT, Arial" font-size="12" font-weight="700"><tspan x="0" y="0">Solution</tspan><tspan x="-2.007" y="14.4">Question</tspan></text><text transform="translate(1065.4388 811.9602)" fill="#fff200" font-family="Arial-BoldMT, Arial" font-size="12" font-weight="700"><tspan x="0" y="0">Product Recommendation</tspan><tspan x="48.674" y="14.4">Question</tspan></text><text transform="translate(675.813 811.034)" fill="#fff" font-family="Arial-BoldMT, Arial" font-size="12" font-weight="700"><tspan x="0" y="0">Guidance/</tspan><tspan x="58.014" y="0" letter-spacing="-.018em">W</tspan><tspan x="69.123" y="0">orkflow</tspan><tspan x="29.895" y="14.4">Question</tspan></text><text transform="translate(1255.5699 811.9597)" fill="#fff" font-family="Arial-BoldMT, Arial" font-size="12" font-weight="700"><tspan x="0" y="0">Decision</tspan><tspan x="-.993" y="14.4">Question</tspan></text><text transform="translate(1647.6158 814.2717)" fill="#fff" font-family="Arial-BoldMT, Arial" font-size="12" font-weight="700"><tspan x="0" y="0">Nature of Question</tspan></text><text transform="translate(1368.2657 1043.322)" fill="#fff200" font-family="Arial-BoldMT, Arial" font-size="12" font-weight="700"><tspan x="0" y="0">What is the best</tspan><tspan x="92.01" y="0" letter-spacing="-.037em"> </tspan><tspan x="94.898" y="0">ABC for XYZ?</tspan></text><text transform="translate(1368.3018 1078.4362)" fill="#fff200" font-family="Arial-BoldMT, Arial" font-size="12" font-weight="700"><tspan x="0" y="0">What</tspan><tspan x="29.326" y="0" letter-spacing="-.037em"> </tspan><tspan x="32.215" y="0">ABC do you recommend fo</tspan><tspan x="186.891" y="0" letter-spacing="-.055em">r</tspan><tspan x="190.898" y="0">...Narrative XYZ?</tspan></text><text transform="translate(1366.8433 974.8899)" fill="#fff200" font-family="Arial-BoldMT, Arial" font-size="12" font-weight="700"><tspan x="0" y="0">Direction Recommendation Question Narrative</tspan></text><circle cx="1129.394" cy="236.407" r="141.511" fill="#1a2f5a" stroke="#fff" stroke-miterlimit="10" stroke-width="5"/><path d="M1071.006,200.135c-.017-.959-1.293-2.433-1.128-4.453-.572-.49-1.148-.931-1.798-1.326l-.142-2.814c-.468.484-.538,1.007-.654,1.564l-.422,2.03-.958.759c-.12.756-.245,1.49-.573,2.177-.235.493-.65.985-.755,1.522-.173.884-.192,1.774-.183,2.674.01,1.084-.272,2.039-.573,3.055l-.978,3.303c-.198.669.069,1.338.103,1.968l.131,2.444c-.712-.062-.864.591-1.263.912-.561.452-1.473.274-2.17.19-.56-1.234-.315-1.622.603-2.524.266-.547.446-1.115.594-1.7.268-.131.37-.389.37-.735l-.121-8.333c-.004-.268.223-.733.341-.95.799-1.468.395-2.551.849-4.076l-1.316-.685c.115-1.252.181-2.433.424-3.64.286-1.42.57-2.789.641-4.246.092-1.883.092-2.981,1.206-4.777.154-.248.355-.38.357-.708.006-1.17.269-2.332.058-3.481-.378-2.059-1.558-3.577-1.652-5.687-.074-1.658.04-2.266-1.28-3.28-.755-.58-1.272-1.222-1.674-2.089-.545-1.176-.991-2.397-1.596-3.542-.243-.46-.477-.79-.55-1.338l-.559-4.164-.144-2.643c-.01-.185-.122-.669-.294-.691-.219-.028-.588-.037-.849-.041-.111,1.433.092,3.429-.574,4.448-.541.007-1.15.021-1.641-.048-.372-.189-.419-.881-.404-1.219l-.853-.088c-.178-.018-.296-.401-.37-.628-.256-.008-.809-.055-1.028-.244-.263-.712-.367-1.477-.431-2.203l-.836-.066c-.368-.029-.593-.516-.55-.79.074-.467.406-.696.881-.687l.589.011c.084-.526.14-1.074.352-1.527.111-.237.773-.217,1.037-.147.095-.613.495-.907,1.123-.873.043-.525.159-1.055.508-1.485.377-.087.999-.13,1.394.001.262.087.498.719.52.994l.253,3.04,1.052-.002c.037-.411.254-.608.619-.639l1.324-.112c.539-.046.925.223,1.063.773h17.535c.276,0,.552-.481.761-.55,1.067-.356,1.849-.359,2.493.547l1.547.009c.082-1.266.147-2.477.416-3.774.645-.047,1.237-.119,1.822.038.398.107.417.938.418,1.216.289.032.654.068.819.171.152.095.233.424.327.705.29-.126,1.018-.202,1.104.225l.282,1.393.95.051c.221.012.5.41.526.623s-.155.734-.371.756l-1.026.101c-.064.693-.137,1.446-.4,2.129-.125.326-.762.358-1.036.295-.044.123-.155.516-.281.595-.202.127-.663.136-.964.154.021.339-.005,1.134-.466,1.218-.478.088-1.078.058-1.591.052-.645-1.072-.453-3.03-.559-4.463l-1.151.03c-.546.014-.589.526-.576.926.067,2.082.122,4.093-.263,6.134l-.365,1.388c-.606.836-1.021,1.625-1.215,2.646-.307,1.613-1.351,2.924-2.522,4.033l-.91.862c-.13,2.377-.736,4.548-1.995,6.553-.145.231-.232.701-.214.971l.275,4.355c.776,1.063,1.179,2.304,1.256,3.671.166,2.962.409,5.803.773,8.781-.253.341-.776.436-1.106.664-.444.307-.194,1.111-.019,1.522.263.615-.022,1.36.169,1.949.388,1.125.779,2.193.722,3.423l-.28,6.041c-.037.807.484,1.587.856,2.25l.801,1.431c.213.38.153,1.04.126,1.53-1.483.307-2.989.621-2.886-.54.025-.287-.278-.52-.562-.668-.239-2.337.46-3.857-.368-6.201-.351-.993-.691-2.026-.867-3.081-.185-1.104-.036-2.154-.058-3.34ZM1069.128,161.538c.994.512,1.403,1.597,1.242,2.678-.077.512.75.639-.19,1.941l-.037.872c-.138.618-.195,1.06-.076,1.691,1.061-.448,1.139-1.517,2.854-1.792.341-.055.712-.386.786-.726.275-1.266,1.062-2.231,2.174-2.888.395-.233.622-.496.634-.975.037-1.555.376-3.014.955-4.445.339-.838.469-1.712.358-2.561-.66.018-1.106-.119-1.531-.521h-16.926c-.095.303-.305.508-.554.541l-.763.102c-.165,1.927.843,3.161,1.145,4.836l.42,2.327c1.782.859,2.482,2.168,3.442,3.784,1.093.311,2.007.795,2.58,1.839.116.212.348.405.657.568.027-.439.039-.784-.036-1.127l-.3-1.363c-.056-.254-.913-1.199-.106-1.651-.033-.467-.155-1.121-.04-1.645.313-1.424,2.119-2.099,3.313-1.484Z" fill="#fff"/><path d="M1124.284,254.733c-2.538-.016-4.998-.045-7.509-.205-1.979-.126-3.912-.329-5.868-.562l-.004,4.793c0,.261-.221.466-.381.624-.583.488-1.286.653-2.039.654l-2.625.002c-.879,0-1.713-.206-2.446-.709-.152-.143-.3-.428-.361-.657v-13.089s-.756-.125-.756-.125c-.186-.743-.396-1.698-.19-2.395.088-.301.32-.499.639-.548-.438-1.667-.692-3.333-.859-5.044-.036-.371-.042-.733,0-1.108.038-.343.699-.623,1.162-.649-.197-.186-.332-.414-.241-.653.242-.64.5-1.252.799-1.867.26-.536.57-1.01.963-1.458.678-.774,1.612-1.201,2.604-1.483l-.023-.493c-.538-.003-1.062-.011-1.613-.1-.321-.675-.482-1.374-.459-2.118.19-.389,1.229-.407,1.809-.41.682-.003,1.337.004,2.011.095.181.354.236.68.306,1.076l1.898-3.857,2.227-4.1,1.864-3.227.406.329c.114-.117.264-.282.442-.306,1.451-.199,2.875-.299,4.336-.333l2.228-.053,1.675-.023,1.741-.089h3.744s8.334.022,8.334.022l7.747.191,3.302.249c.296.022.552.175.759.352.128-.137.253-.256.399-.328l1.244,2.171c1.679,2.9,3.233,5.835,4.652,8.869l.061.101c.01.016.03-.024.042-.056l.248-.987,1.534-.095c.794-.049,1.568.029,2.337.226.034.742-.074,1.442-.369,2.103-.074.166-.319.294-.502.295l-1.171.009c-.017.01-.073.04-.065.036l.026.482c.828.212,1.593.535,2.231,1.101,1.066.948,1.815,2.667,2.186,4.044l-.302.265c.385.093.737.185,1.03.446l-.008,2.348c-.003.719-.108,1.394-.248,2.095l-.434,1.822c-.005.017-.025.099-.008.103l.122.032c.901.234.555,1.969.366,2.893l-.756.163-.06.98-.008,12.172c0,.605-1.373,1.28-2.325,1.279l-3.58-.006c-.472,0-.914-.226-1.325-.432-.326-.163-.629-.521-.63-.91l-.004-4.615c-.002-.035-.007-.074-.023-.073l-.098.011c-3.035.329-6.062.579-9.127.63l-7.468.124h-10.416s-3.173-.021-3.173-.021ZM1129.498,228.408h7.956s1.972-1.165,1.972-1.165c.523-.309,1.09-.461,1.692-.477-.011-.298.053-.636-.05-.92l-.39-.56-.431-1.524c-.07-.247.014-.544-.025-.809-.056-.385-.47-.67-.133-1.626.184-.521.544-.92,1.073-1.101l.831-.284c.401-.085.817-.044,1.196.082.931.31,1.522,1.16,1.471,2.14-.038.73.461,1.414-.389,2.13l-.233.836-.072,1.628c.861.385,1.711.74,2.613,1.034.226.074.462.13.647.276.255.201.447.433.657.684,2.011.142,3.976.319,5.965.598.024-.002.047-.021.06-.051-.798-1.807-1.61-3.572-2.563-5.303l-2.428-4.411-1.147-.186c-1.952-.157-3.909-.309-5.885-.31l-16.729-.01-1.786.023-2.974.11c-1.291.048-2.537.171-3.827.342l-2.635,4.851c-.879,1.618-1.639,3.264-2.392,4.963l3.159-.363,3.481-.315,3.062-1.469c.352-.169.643-.362.949-.599.114-.088.194-.169.215-.331.123-.939.369-1.013-.501-2.053-.674-.805-.798-1.851-.362-2.804.245-.536.629-.951,1.171-1.205.652-.305,1.355-.429,2.075-.342.218.026.402.137.54.299l1.016,1.191c.173.203.223.431.229.683l.657.637c.115.112.106.316-.006.418l-.251.229.102,1.39c.008.104.043.273-.007.356-.043.072-.178.16-.279.181l-.864.177c-.308.063-.525.32-.542.623l-.023.408c.589.752,1.336,1.019,2.224,1.274.656.188,1.254.393,1.911.653ZM1107.872,230.052c.2.032.365.024.523-.077.117-.074.197-.218.208-.387l-.73.127v.336ZM1157.62,230.07l.007-.362-.737-.117c-.01.219.14.445.382.459l.347.02ZM1110.94,241.25c.965-.49,1.501-1.529,1.392-2.572-.146-1.396-1.38-2.403-2.768-2.229-1.082.136-1.926.919-2.182,1.976-.23.949.139,1.923.878,2.521.741.6,1.784.759,2.681.304ZM1155.312,241.447c1.446.223,2.712-.77,2.874-2.198.089-.787-.156-1.54-.703-2.092-.536-.541-1.289-.829-2.075-.725-.867.115-1.626.613-1.996,1.41-.356.767-.311,1.657.103,2.379.389.679,1.012,1.105,1.797,1.226Z" fill="#fff"/><path d="M1157.62,230.07l-.347-.02c-.243-.014-.392-.24-.382-.459l.737.117-.007.362Z" fill="#fff"/><path d="M1107.872,230.052v-.336s.731-.127.731-.127c-.011.168-.091.312-.208.387-.158.101-.323.109-.523.077Z" fill="#fff"/><path d="M1192.992,212.792c-.266,1.208-.283,2.394-.182,3.581.043.51-.197.876-.601,1.122-.551.335-1.151.598-1.823.497-.637-.358-1.019-1.039-1.062-1.762l.857-4.264-.038-1.475c.111-.756-.093-1.468-.213-2.218l-1.081-6.742c-.226-1.408-.011-2.754.21-4.13l.154-1.919-1.013-.233-.216-4.331-.4-6.113c-.127-1.94.02-3.808.399-5.692-.753-.211-1.427-.398-2.15-.713.829-2.558,1.713-4.939,2.676-7.384.914-2.319.564-5.065-.498-7.287-.063-.132-.188-.285-.284-.331s-.373-.029-.482.012c-1.866.701-3.749,1.036-5.707,1.269-.759.09-1.384.249-2.159.048-.564-.147-1.185-.287-1.785-.351l-3.795-.407c-.268-.029-.678-.14-.863-.302-.213-.47-.194-.965-.182-1.443-1.56.367-3.046.038-4.544-.352-.041-.606-.63-.234-1.281-.53-.106-.443-.826-.312-.709-.647.035-.102.182-.253.27-.354.103-.119.011-.485.465-.554l1.776-.273c.585-.09,1.069-.153,1.696-.354l-.867-.426c-.543-.267-.832-.904-.609-1.082.281-.225.907.423,1.796.694.881.268,1.811.727,2.202,1.466.231.435.499.129.759.156l4.198.434c.846.087,1.67.067,2.495.153.301.031.466.068.759-.061.555-.243,1.274-.195,1.806-.473.642-.336,1.26-.652,1.987-.425l.712-.437,1.435-.859.444-.789c.125-.221.414-.472.677-.474l2.39-.018.169-.992c.354-2.073.663-4.099.851-6.198.057-.64.213-1.239.439-1.81.194-.491.58-.711.991-.99l1.197-.814c.578-.393,1.215-.275,1.848-.183.576.083,1.102.139,1.596.503.744.549,1.259,1.307,1.563,2.192.367,1.067.562,2.143.666,3.281.186,2.038.373,4.026.879,6.04l2.383,1.007c.232.098.338.516.425.756.249,1.6.233,3.17.055,4.79.275.902.494,1.771.333,2.709-.034.344.015.677.225.965l4.379-6.276c.163-.234.425-.36.695-.33l3.279.428c.076.031.235.099.227.163l-.04.298-2.255,3.132c.318.433.354.909.229,1.371.058.113.221.343.172.437l-.207.395-.417.758c-.102.186-.288.391-.475.461l-.991.368c.005.677-.041,1.263-.291,1.878l-2.399.684-3.1.928c-.431.129-.823.065-1.277-.161.592,2.346,1.097,4.648,1.434,7.041l-.429.202c.177,1.655.094,3.238-.034,4.919l-.787,10.29-1.429.395-.036,1.437c.165,1.708.205,3.342-.03,5.056l-.992,7.23c-.098.713-.058,1.476.001,2.186.059.7.34,1.366.492,2.046.381,1.704,1.578,2.375,1.536,3.932-.846.353-2.373-.019-3.229-.417-.776-.36-.223-1.72-1.07-2.913l-.044,1.399c-.002.063-.196.191-.245.155-.049-.036-.147-.166-.153-.238l-.153-1.813c-.03-.35-.198-.67-.363-.964-.611-1.095.143-1.857.701-2.8.492-.83-.181-5.345-.464-6.962-.26-1.485-.258-2.903-.078-4.405.11-.923.047-1.833-.215-2.693l-2.35-.019c-.498-.004-.74,2.433-.697,3.565.049,1.317-.067,2.559-.218,3.87l-.605,5.261c-.076.657-.045,1.385.26,1.959.383.722.623,1.415.435,2.268ZM1199.376,159.371c-.002-1.117-.441-2.599-1.532-3.265.005.39.107.676.244,1.033.16.418.107.996-.294,1.241-.418.255-.68.57-.764,1.044l-.311,1.765-.934-2.026c-.241-.522-.406-.825-.915-1.171-.464-.316-1.186-1.327-1.182-2.027,0-.047-.043-.062-.169-.109-.48.327-.688.892-.623,1.474l.212,1.88.574-.436.446-.346,1.641,4.534,1.207,4.17c1.022-1.849,1.784-3.336,1.691-5.469l-.139-3.162c.389.315.527.526.849.87ZM1173.497,163.138c.18.089.511.102.725.116.499-.746.672-1.676.334-2.485-.166-.396-.494-.704-.94-.636.776.428.743,1.546.357,2.407l-.944-.3c.034.317.117.727.468.899ZM1207.67,170.066l-.329-.625c-.032-.06-.162-.116-.266-.11.131.535.349.991.666,1.468.514-.237.831-.659.775-1.289l-.847.556Z" fill="#fff200"/><path d="M1224.897,315.571l-39.676.004-1.056-.003h-18.428c.132-.105.412-.245.457-.381l.221-.671.041.842.139-.817.057.759.029.049.056-.327.065.204c.007.021.029.04.043.022l.113-.148.051.319.063-.315.134.397.368-.256c-.558-.411-1.015-.955-1.046-1.692-.055-1.281.982-2.403,2.274-2.415.667-.007,1.204.34,1.661.82l.796-.183c.721-.668,1.649-.779,2.568-.412l-.194-.15c-.055-.042-.103-.189-.103-.266l.004-.4c-.699.039-1.672-.17-1.67-.629l.007-1.892c0-.252.173-.562.432-.644l2.237-.709c.149-.399.41-.858.864-.86l2.794-.009c.279,0,.507.262.601.485l.218.52c.022.053.166.188.197.145l.137-.194c.146-.207.442-.311.732-.258.189.034.423.242.593.418l.48.093c.217.042.194.678.318.705l.363.077.028,2.282c.001.089-.078.299-.138.388l-1.409.086c-.048.003-.165.066-.174.111-.035.19.345.09.432.408.85-.123,1.665-.411,2.382-.986l.058-1.797c.008-.248.071-.533.255-.71l4.557-4.383,5.708-5.499c-.147-.257-.058-.427.149-.569l.308-.211c.071-.049.248.069.338.133l2.976-2.926c.492-.484.369-1.226-.137-1.669-.52-.454-1.095-.772-1.703-1.138-.313-.188-.724-.552-.577-.968.132-.375.394-.754.616-1.069.291-.411.747-.472,1.21-.359l1.29.313c.548-.695.983-1.337,1.429-2.067l1.615-2.642c.273-.446.348-.911.342-1.428l-.041-3.686c-.014-1.274.137-2.525.551-3.719.14-.405.144-.755-.151-1.088-.242-.274-.616-.315-.89-.018-.155.168-.416.357-.633.429-.29.096-.526-.136-.59-.401l-.702-.349c-.054-.114-.127-.248-.188-.292-.072-.051-.251.054-.344.097l-.216.1c-.048.022-.156-.126-.166-.178l-.186-.992-.323-.427c-.874.497-1.811.876-2.812,1.064-.125-.076-.242-.172-.245-.257-.019-.573,1.326-1.644,1.95-2.27l-.643-2.24c-.062-.216.043-.478.21-.604,1.153-.866,2.43-1.641,3.849-1.856.376-.057.604.134.777.414l1.085,1.754c.948-.124,1.802-.225,2.732-.24.201-.003.525.136.551.335-.347.477-.888.771-1.404,1.01l-.945.438c.183,1.125.983,1.927,1.978,2.458l.364.041c2.274,1.32,3.545,4.082,3.782,6.651.265,2.88.335,5.732.229,8.624-.015.399-.086.749-.027,1.134l.237,1.546-.43.238c.013.71-.121,1.355-.451,1.974-.36.676-.547,1.387-.546,2.167l.004,2.105-.187,1.017c-.057.309-.063.699.097.958.233.376.28.788.179,1.216-.057.242.592.283.681.552.038.116.007.355-.018.521.334.07.647.212.873.475l1.844,2.152,1.794,2.066c.701.807.345,1.371.939,1.425.395.036.615.224.873.502.21.226.527.442.792.604.372.228.456.597.685.887.322.408.955.549,1.147,1.104-.476.866-1.141,1.709-1.952,2.252-.109-.07-.261-.143-.291-.109-.474.82-1.056,1.498-1.634,2.162.221-.112.449-.357.589-.442l.134-.081c.017-.01-.022.054-.034.071l-.343.48,1.256-.596c.105-.004.106.023.018.067-.028.104-.049.143-.027.133l.148-.068.583-.378-.746,1.011,1.04-.558-.178.44-.051.12c-.006.015.016-.008.044-.029l.696-.522-.345.533,1.222-.635-.42.414c-.034.044-.131.176-.065.112l1.899-1.017.091.052-1.102.988c.311-.11.464-.275.778-.487l-.336.554,1.069-.483-.374.502c-.043.081-.044.111.03.041.403-.305.694-.549,1.146-.769l-.489.581h.118c.246-.21.469-.332.785-.365l-.643.485c.428-.1.701-.338,1.02-.616l.064.048-.524.561,1.043-.34-.473.331-.105.032.053.094,1.084-.397.54-.175c.097-.033.204.002.068.075l-.685.589,1.011-.393-.362.393c-.063.039-.078.064.009.053.555-.239,1.041-.532,1.579-.567l-.953.569.785-.106-.268.206c-.108.027-.068.053.02.058l.803-.275c.061.019.241.079.119.046l-.35.223,1.704.115-1.36.059ZM1192.115,314.482c-.203.239-.305.34-.432.585l1-.609-.448.559.08.053.963-.819-.318.742.873-.606-.321.638,1.14-.796-.381.751,1.233-.797c-.241.37-.436.542-.575.901l1.515-1.008c-.209.443-.798.651-.64,1.041l1.054-.782-.383.726c.181-.054.308-.102.394-.166l.837-.62-.104.657c.251-.381.371-.787.746-1.016.576-.352,1.409.02,2.114-.521l1.201-.921c-.264-.396-.17-.807.103-1.151.669-.845-.195-1.426-.214-2.237l-.079-3.366c-.023-.983-.098-1.859-.411-2.798-.179-.537-.352-1.162-.286-1.743l.498-4.39.428-4.709-.243-.532.117-1.409c.053-.641.142-1.228.063-1.851l-3.103,2.577.561.551c.295.29.638.585.783.975.251.676-.003,1.352-.504,1.839l-3.944,3.838-3.285,3.225-4.832,4.781,7.433-3.06c.676-.278,2.658-.022,3.363.291.266.118.27.516.173.751-.08.193-.289.337-.561.46l.046,5.96c.003.398-.193.999-.611,1.115l-9.842,2.733-.707.811.474-.216-.026.183.212-.16c.035-.026.127.08.135.09l.658-.413-.359.539.397-.181c.088-.04.225-.085.325-.103l.5-.3-.493.611,1.172-.623-.231.406.527-.295-.308.43.9-.468-.333.404-.008.086.534-.421-.067.33.565-.333.016.18.915-.399ZM1194.694,297.536c-.028.027-.117.19-.073.212l.187.095,4.19-4.054c.478-.463.567-1.131.022-1.57l-1.313-1.057c-.27-.029-.591.082-.875.222l.923.825c.567.507.635,1.285.236,1.917-.32.506-.716.939-1.178,1.33l-2.119,2.08ZM1185.726,306.772l8.53-8.407-.46-.086-9.256,8.992c.479-.117.797-.276,1.187-.499ZM1208.299,314.875l1.455-.55-.687.765,1.265-.38c-.186.261-.375.397-.614.557.347-.033.652-.255.758-.591.263-.835,1.092-.614,1.222-.944.299-.757.464-1.557.418-2.359-.028-.491-.53-.705-.949-.737-.651-.05-.627-1.355-1.618-2.512l-2.03-2.371-1.904-2.002.151,3.247c.04.867.172,1.729.037,2.587-.088.558-.103,1.052.195,1.554.301.509.33,1.067.152,1.648-.073.237.055.664.006.88-.123.316-.209.567-.15.862l.145-.245-.085.648,1.369-.922c-.26.351-.49.553-.655.899l1.351-.627-.478.534c.543-.156.851-.486,1.335-.567l-.687.624ZM1186.126,314.936c.967-.86.966-2.412.055-3.287-.803-.771-2.128-.787-2.956-.046-.951.851-.971,2.378-.065,3.269.795.782,2.103.832,2.967.064ZM1172.769,315.06c1.008.023,1.701-.735,1.7-1.687,0-.855-.548-1.554-1.414-1.671-.54-.073-1.096.091-1.462.485-.333.358-.493.879-.433,1.401.096.84.724,1.451,1.609,1.472ZM1168.547,314.366c-.434-.42-.513-.912-.201-1.398.314-.49.857-.732,1.467-.868-.877-.709-2.15-.324-2.568.655-.282.659-.071,1.374.407,1.813.506.464,1.254.603,1.86.267l-.964-.468Z" fill="#fff"/><path d="M1163.66,314.531l-.17.778c-.005.022.021.125.025.147.006.033.122-.042.14-.077l.397-.802-.087.825.298-.637.099.655.317-.457c.007.275-.151.392.106.569.144-.363.209-.689.267-1.081l.107.977.815-.852-.346.636c-.02.038-.066.13-.047.161l.124.2h-3.781c.379-.261.59-.484.922-.86l-.125.568.025.181c.006.042.223.015.249-.02l.663-.911Z" fill="#fff"/><path d="M1172.769,315.06c-.885-.02-1.513-.632-1.609-1.472-.06-.522.099-1.043.433-1.401.367-.394.922-.558,1.462-.485.867.117,1.414.816,1.414,1.671,0,.951-.692,1.71-1.7,1.687ZM1172.609,312.911c-.29.11-.386.464-.237.721.127.219.419.326.688.182.199-.107.319-.399.23-.616-.114-.278-.391-.397-.682-.287Z" fill="#fff"/><path d="M1186.126,314.936c-.864.768-2.172.718-2.967-.064-.905-.891-.886-2.419.065-3.269.828-.741,2.154-.724,2.956.046.911.875.913,2.427-.055,3.287ZM1184.518,311.579c-.989.088-1.637.986-1.532,1.882.11.933.93,1.575,1.845,1.495.949-.083,1.633-.905,1.533-1.88-.089-.867-.862-1.584-1.846-1.497Z" fill="#fff"/><path d="M1168.547,314.366l.964.468c-.605.336-1.354.197-1.86-.267-.478-.438-.689-1.153-.407-1.813.418-.979,1.691-1.364,2.568-.655-.609.137-1.152.379-1.467.868-.312.486-.232.977.201,1.398Z" fill="#fff"/><path d="M1172.609,312.911c.291-.11.568.009.682.287.088.217-.032.509-.23.616-.269.144-.561.038-.688-.182-.149-.257-.053-.611.237-.721Z" fill="#fff"/><path d="M1184.518,311.579c.984-.087,1.757.63,1.846,1.497.1.976-.584,1.797-1.533,1.88-.914.08-1.735-.562-1.845-1.495-.106-.896.543-1.794,1.532-1.882ZM1184.547,312.798c-.298.078-.422.366-.329.643.079.238.359.395.627.297.235-.087.387-.375.306-.617-.085-.25-.324-.396-.603-.323Z" fill="#fff"/><path d="M1184.547,312.798c.279-.073.519.072.603.323.082.242-.071.53-.306.617-.268.099-.548-.059-.627-.297-.092-.277.031-.565.329-.643Z" fill="#fff"/><path d="M1091.124,299.81c3.047.039,4.613,2.52,4.364,2.882-.063.092-.367.25-.502.233l-3.414-.43,1.948,1.931,1.805,1.75.422.813c.181.349.17,1.113.194,1.578-.015.146-.327.34-.556.47.67.566,1.015,1.277.86,2.169-.131.752-.65,1.372-1.442,1.758l5.309.155-66.02.006-.057-.084,3.192-.07,5.815-.053,1.031-.084,11.955-.028c-1.074-.845-4.027-2.774-3.908-3.269.028-.115.203-.26.328-.356.594-.487,1.126-.933,1.851-1.191.554-.662,1.002-1.376,1.388-2.148l1.124-2.01c.577-1.033,1.25-1.936,2.137-2.721.417-.369.78-.755,1.146-1.233-.853-.029-1.526-.036-2.341-.19l1.223-6.939.534-3.101c.297-1.726.816-3.347,1.604-4.921-.412-.275-.547-.59-.623-1.01-.396-2.202-.747-4.357-.818-6.594-.038-1.195.284-2.255,1.2-3.026.499-.42.899-1.013.849-1.676-1.057.114-1.901-.777-2.28-1.835l-.303.516c-.015-.306-.026-.586-.109-.772-.812-.312-1.413-1.238-1.13-2.099.306-.932,2.008-1.443,2.673-.681,1.034-1.375,2.484-1.441,4.117-1.085,1.579.344,1.964,1.914,1.623,3.44.332.449.487.837.285,1.435l-.358,1.061c-.118.35-.477.541-.829.504l-1.055-.112-.545,1.616c.633,1.2,1.285,2.324,2.179,3.326.579.648,1.38,1.739,1.346,2.413l-.147,2.869-.15.315c-.031.065.117.189.187.26,1.185.618,2.33,1.16,3.571,1.692,1.342.166,1.945-1.045,3.122-.086,1.093.891-.262,1.383.388,2.132l2.876,3.321,3.434,3.79.171-.063-3.175-3.475c-.091-.099-.226-.358-.195-.474s.191-.256.321-.369l.76-.661c1.092-.255,2.091-.578,3.097-1.051l2.408-1.132c.377-.177.713-.302,1.127-.21l5.923,1.322-1.112,2.287-.797,1.342c-.989,1.422-2.085,2.641-3.288,3.952l1.608,1.772c.976-1.125,3.144-1.67,3.325-.663.031.176-.07.595-.229.678l-.889.465c-.233.122-.367.377-.232.641.32.624.963,1.003,1.685,1.012ZM1061.317,272.146c-.554-.303-.969-.777-1.397-1.322.153.644.652,1.296,1.397,1.322ZM1080.897,303.785l1.254-.415c.405-.134.626-.467.589-.936l-.973.044c-.517.023-.983-.036-1.28-.524-1.477-2.419-2.759-4.964-3.615-7.69-.148-.471-.075-.884-.489-1.238-.753-.645.2-1.455-.042-1.769l-.523-.678-1.208-1.336-1.793-1.856c-.169-.175-.402-.524-.613-.571-.546.118-1.095.264-1.549.027-.464-.241-.895-.441-1.402-.519l-1.903-.295.827,4.829,1.399,8.506c.083.505-.515.324-1.026.65.278.699-.131,1.323-.05,1.984.285,2.328.821,4.582,1.389,6.839.259,1.029,1.024,1.707,1.911,2.135.916.442,1.78.773,2.828.798.222.005.518.28.485.484-.026.157-.214.312-.454.563l4.188-.005c-.676-.504-1.329-.984-1.571-1.857-.294-1.062-.017-2.297.799-3.054.66-.612,1.557-.749,2.393-.908l-.395-2.061c-.103-.539.318-.977.825-1.145ZM1067.837,312.824c.12-.301.062-.44.117-.722l.232-1.187c-.117-.792-.408-1.518-.799-2.211l-.365-.646c-.742-1.316-1.592-3.374-1.614-4.838-.017-1.101-.066-2.107-.238-3.189l-1.411-.088c-.042.985-.646,1.44-1.289,1.967-.997.816-1.826,1.804-2.705,2.74l-1.082,1.152c-.814.867-1.579,1.719-2.243,2.711-.249.373-.361.899-.158,1.292l.834,1.617c.296.574,1.971.547,1.735,1.404h8.987ZM1086.147,304.211l5.007-.424-1.16-1.33-1.301.405.661.555-1.332-.128c-.707-.068-1.386.423-1.875.921ZM1084.288,303.643c-.429-.06-.76-.037-1.016.129-.104.068-.205.363-.149.463s.332.189.443.149c.356-.126.564-.421.722-.742ZM1091.726,309.673c.569-.943,1.475-1.369,2.564-1.229.093-.41.014-.832-.1-1.168.017-.174.088-.624-.041-.747l-.738-.701c-1.554,1.566-3.291,2.784-5.326,3.589-1.44.413-2.862.478-4.438.438-.007,1.27-.613,2.273-1.808,2.956h10.839c-1.15-.817-1.523-1.978-.952-3.139ZM1083.179,309.497c-.023-.676-.408-1.249-.947-1.557l.947,1.557ZM1079.992,309.101l.298-.888c-.929.01-1.441.712-1.607,1.505.563.124,1.13-.081,1.31-.617ZM1093.826,309.306c-.657-.044-1.172.445-1.234,1.067.669.098,1.148-.357,1.234-1.067ZM1081.758,311.256c.167-.199.338-.716.339-1.071-.277-.094-.677-.055-.879.147-.102.794.309,1.199.539.924ZM1094.842,311.838c.587-.493.682-1.154.375-1.75-.271.126-.711.44-.74.712-.037.35.176.748.364,1.038ZM1080.255,310.861c-.569-.793-1.547-.474-1.547-.479.009,1.032,1.204,1.684,2.171,1.348l-.624-.869ZM1094.268,311.986l-.831-1.003c-.131-.158-.611-.134-.885-.068-.006.317.238.747.5.913.367.233.757.302,1.216.157Z" fill="#fff"/><line x1="655.662" y1="785.353" x2="1609.759" y2="785.353" fill="none" stroke="#fff" stroke-miterlimit="10"/><line x1="660.358" y1="841.722" x2="1609.759" y2="841.722" fill="none" stroke="#fff" stroke-miterlimit="10"/><line x1="1594.26" y1="810.272" x2="1632.693" y2="810.272" fill="none" stroke="#fff" stroke-miterlimit="10"/><polygon points="1631.234 815.259 1639.869 810.272 1631.234 805.286 1631.234 815.259" fill="#fff"/><line x1="1140.113" y1="1271.103" x2="1140.113" y2="830.191" fill="none" stroke="#fff200" stroke-miterlimit="10" stroke-width="2.5"/><line x1="1140.619" y1="972.89" x2="1356.454" y2="972.89" fill="none" stroke="#fff200" stroke-miterlimit="10" stroke-width="2.5"/><text transform="translate(3354.2661 700.0612)" fill="#00aeef" font-family="Arial-BoldMT, Arial" font-size="12" font-weight="700"><tspan x="0" y="0">ChatGPT Motif For Retained User</tspan><tspan x="190.014" y="0" letter-spacing="-.037em"> </tspan><tspan x="192.902" y="0">Adoption</tspan></text><polyline points="1678.467 1074.828 1718.445 1074.828 1718.445 1037.574 1678.467 1037.574" fill="none" stroke="#fff200" stroke-miterlimit="10" stroke-width="2.5"/><line x1="1647.328" y1="4184.826" x2="1647.328" y2="4278.113" fill="none" stroke="#fff200" stroke-miterlimit="10" stroke-width="2.5"/><line x1="2280.107" y1="4314.222" x2="2108.937" y2="4337.317" fill="none" stroke="#fff200" stroke-miterlimit="10"/><line x1="2451.956" y1="4335.958" x2="2280.107" y2="4314.222" fill="none" stroke="#fff200" stroke-miterlimit="10"/><line x1="1646.991" y1="4277.434" x2="2023.43" y2="4277.434" fill="none" stroke="#fff200" stroke-miterlimit="10" stroke-width="2.5"/><line x1="1138.854" y1="5048.487" x2="1138.854" y2="1772.863" fill="none" stroke="#fff" stroke-miterlimit="10"/><text transform="translate(3780.0049 735.8859)" fill="#00aeef" font-family="Arial-BoldMT, Arial" font-size="12" font-weight="700"><tspan x="0" y="0">ChatGPT</tspan><tspan x="-56.353" y="14.4">Umbrella Response Protocol</tspan></text><text transform="translate(4051.0747 737.3254)" fill="#00aeef" font-family="Arial-BoldMT, Arial" font-size="12" font-weight="700"><tspan x="0" y="0">ChatGPT</tspan><tspan x="-36.006" y="14.4">Latest </tspan><tspan x="2.672" y="14.4" letter-spacing="-.055em">T</tspan><tspan x="9.34" y="14.4">raining Model</tspan></text><text transform="translate(1106.5017 1405.1384)" fill="#fff" font-family="Arial-BoldMT, Arial" font-size="12" font-weight="700"><tspan x="0" y="0">ChatGPT</tspan><tspan x="-85.33" y="14.4">Reasoning - “How Should I Respond?”</tspan></text><text transform="translate(1108.6048 1351.5378)" fill="#fff" font-family="Arial-BoldMT, Arial" font-size="12" font-weight="700"><tspan x="0" y="0">ChatGPT</tspan><tspan x="-88.327" y="14.4">Full-Context Understanding of Question</tspan></text><text transform="translate(1109.159 1301.5466)" fill="#fff" font-family="Arial-BoldMT, Arial" font-size="12" font-weight="700"><tspan x="0" y="0">ChatGPT</tspan><tspan x="-65.687" y="14.4">Perceived of Nature of Question</tspan></text><text transform="translate(1118.0042 1516.8044)" fill="#fff" font-family="Arial-BoldMT, Arial" font-size="12" font-weight="700"><tspan x="0" y="0">ChatGPT</tspan><tspan x="-113.048" y="14.4">Retrieval Strategy / Evidence Collection Strategy</tspan></text><text transform="translate(1116.0247 1565.3132)" fill="#fff" font-family="Arial-BoldMT, Arial" font-size="12" font-weight="700"><tspan x="0" y="0">ChatGPT</tspan><tspan x="-33.677" y="14.4">Heuristic Knowledge</tspan></text><text transform="translate(548.7271 1419.5388)" fill="#fff200" font-family="Arial-BoldMT, Arial" font-size="12" font-weight="700"><tspan x="0" y="0">ChatGPT Heuristics &amp; General Knowledge</tspan></text><text transform="translate(595.4424 1365.9382)" fill="#fff200" font-family="Arial-BoldMT, Arial" font-size="12" font-weight="700"><tspan x="0" y="0">User Specific Contextual Memory</tspan></text><text transform="translate(722.1241 1986.5026)" fill="#fff200" font-family="Arial-BoldMT, Arial" font-size="12" font-weight="700"><tspan x="0" y="0">User Specific Context &amp; Heuristic Memory</tspan></text><text transform="translate(1427.9961 5042.1128)" fill="#fff200" font-family="Arial-BoldMT, Arial" font-size="12" font-weight="700"><tspan x="0" y="0">User Confidence in</tspan><tspan x="5.892" y="14.4">ChatGPT</tspan><tspan x="57.226" y="14.4" letter-spacing="-.037em"> </tspan><tspan x="60.114" y="14.4">Answer</tspan></text><text transform="translate(1436.2334 5323.7003)" fill="#fff" font-family="Arial-BoldMT, Arial" font-size="12" font-weight="700"><tspan x="0" y="0">User</tspan><tspan x="26.684" y="0" letter-spacing="-.037em"> </tspan><tspan x="29.572" y="0">Adoption of</tspan><tspan x="-.346" y="14.4">ChatGPT</tspan><tspan x="50.988" y="14.4" letter-spacing="-.037em"> </tspan><tspan x="53.877" y="14.4">Answer</tspan></text><text transform="translate(1406.3194 5149.3218)" fill="#fff200" font-family="Arial-BoldMT, Arial" font-size="12" font-weight="700"><tspan x="0" y="0">Recommended Pathway(s)</tspan></text><text transform="translate(1327.6206 5318.4303)" fill="#fff200" font-family="Arial-BoldMT, Arial" font-size="12" font-weight="700"><tspan x="0" y="0">CX</tspan></text><text transform="translate(1495.9908 5223.7213)" fill="#fbb040" font-family="Arial-BoldMT, Arial" font-size="12" font-weight="700"><tspan x="0" y="0">Friction to</tspan><tspan x="58.658" y="0" letter-spacing="-.037em"> </tspan><tspan x="61.547" y="0">Adoption</tspan></text><text transform="translate(1020.9441 1469.9499)" fill="#fff" font-family="Arial-BoldMT, Arial" font-size="12" font-weight="700"><tspan x="0" y="0">Factual</tspan><tspan x="42.012" y="0" letter-spacing="-.037em"> </tspan><tspan x="44.9" y="0">Answer</tspan></text><text transform="translate(1377.2315 1469.5305)" fill="#fff" font-family="Arial-BoldMT, Arial" font-size="12" font-weight="700"><tspan x="0" y="0">AI Perceived Nature of </tspan><tspan x="131.379" y="0" letter-spacing="-.055em">T</tspan><tspan x="138.047" y="0">ruth</tspan></text><text transform="translate(1073.3118 1745.3415)" fill="#fff" font-family="Arial-BoldMT, Arial" font-size="12" font-weight="700"><tspan x="0" y="0">Answer Sufficient </tspan><tspan x="104.684" y="0" letter-spacing="-.009em">W</tspan><tspan x="115.904" y="0">ithin </tspan><tspan x="-14.396" y="14.4">ChatGPT Heuristic Knowledge</tspan></text><text transform="translate(1465.1602 1746.6999)" fill="#fff" font-family="Arial-BoldMT, Arial" font-size="12" font-weight="700"><tspan x="0" y="0">Answer Not Sufficient </tspan><tspan x="128.01" y="0" letter-spacing="-.009em">W</tspan><tspan x="139.23" y="0">ithin</tspan><tspan x="-4.4" y="14.4">ChatGPT Heuristic Knowledge</tspan></text><text transform="translate(1477.126 1815.2551)" fill="#fff" font-family="Arial-BoldMT, Arial" font-size="12" font-weight="700"><tspan x="0" y="0">External Search Required</tspan></text><text transform="translate(1463.5953 1873.1233)" fill="#fff" font-family="Arial-BoldMT, Arial" font-size="12" font-weight="700"><tspan x="0" y="0">ChatGPT Identifies Search Goals</tspan><tspan x="38.572" y="14.4">“Questions to</tspan><tspan x="117.908" y="14.4" letter-spacing="-.037em"> </tspan><tspan x="120.797" y="14.4">Ask”</tspan></text><text transform="translate(1468.8516 2239.927)" fill="#fff200" font-family="Arial-BoldMT, Arial" font-size="12" font-weight="700"><tspan x="0" y="0">ChatGPT Performs </tspan><tspan x="110.689" y="0" letter-spacing="-.018em">W</tspan><tspan x="121.799" y="0">eb Search </tspan><tspan x="-6.686" y="14.4">via Integrated </tspan><tspan x="74.672" y="14.4" letter-spacing="-.018em">W</tspan><tspan x="85.781" y="14.4">eb Search Service</tspan></text><text transform="translate(1867.3877 1963.1106)" fill="#fff" font-family="Arial-BoldMT, Arial" font-size="12" font-weight="700"><tspan x="0" y="0">Nature of Information Search</tspan></text><text transform="translate(1564.5523 1963.1906)" fill="#fff200" font-family="Arial-BoldMT, Arial" font-size="12" font-weight="700"><tspan x="0" y="0">Non-Factual, Corroborated </tspan><tspan x="156.006" y="0" letter-spacing="-.055em">T</tspan><tspan x="162.674" y="0">ruth</tspan></text><text transform="translate(1458.6841 1963.1906)" fill="#fff" font-family="Arial-BoldMT, Arial" font-size="12" font-weight="700"><tspan x="0" y="0">Factual </tspan><tspan x="45.346" y="0" letter-spacing="-.055em">T</tspan><tspan x="52.014" y="0">ruth</tspan></text><text transform="translate(1579.7237 3010.2287)" fill="#fff200" font-family="Arial-BoldMT, Arial" font-size="12" font-weight="700"><tspan x="0" y="0">Information Retrieval Stage</tspan></text><text transform="translate(1528.4517 2046.4065)" fill="#fff" font-family="Arial-BoldMT, Arial" font-size="12" font-weight="700"><tspan x="0" y="0">ChatGPT</tspan><tspan x="-54.686" y="14.4">Information Search Strategy</tspan></text><text transform="translate(1380.8496 1419.5388)" fill="#fff" font-family="Arial-BoldMT, Arial" font-size="12" font-weight="700"><tspan x="0" y="0">Nature of</tspan><tspan x="52.67" y="0" letter-spacing="-.037em"> </tspan><tspan x="55.559" y="0">AI Response</tspan></text><text transform="translate(1174.1978 1461.3581)" fill="#fff" font-family="Arial-BoldMT, Arial" font-size="12" font-weight="700"><tspan x="0" y="0">Non-factual, </tspan><tspan x="-34.781" y="14.4">High-Confidence</tspan><tspan x="61.213" y="14.4" letter-spacing="-.037em"> </tspan><tspan x="64.102" y="14.4">Answer</tspan></text><line x1="3620.587" y1="739.777" x2="3709.411" y2="739.777" fill="none" stroke="#00aeef" stroke-miterlimit="10"/><polygon points="3623.396 743.48 3621.823 739.777 3623.396 736.074 3614.618 739.777 3623.396 743.48" fill="#00aeef"/><line x1="1370.145" y1="1416.199" x2="1256.958" y2="1416.199" fill="none" stroke="#fff" stroke-miterlimit="10"/><polygon points="1367.336 1412.496 1368.91 1416.199 1367.336 1419.902 1376.115 1416.199 1367.336 1412.496" fill="#fff"/><line x1="3906.682" y1="739.419" x2="4006.76" y2="739.419" fill="none" stroke="#00aeef" stroke-miterlimit="10"/><polygon points="3909.491 743.122 3907.917 739.419 3909.491 735.716 3900.712 739.419 3909.491 743.122" fill="#00aeef"/><line x1="4152.517" y1="740.122" x2="4230.606" y2="740.122" fill="none" stroke="#00aeef" stroke-miterlimit="10"/><polygon points="4155.326 743.825 4153.752 740.122 4155.326 736.419 4146.547 740.122 4155.326 743.825" fill="#00aeef"/><line x1="1413.719" y1="1944.572" x2="1772.711" y2="1944.572" fill="none" stroke="#fff" stroke-miterlimit="10"/><line x1="1413.719" y1="1973.192" x2="1772.711" y2="1973.192" fill="none" stroke="#fff" stroke-miterlimit="10"/><text transform="translate(2418.8843 4615.1705)" fill="#fff" font-family="Arial-BoldMT, Arial" font-size="12" font-weight="700"><tspan x="0" y="0">x Repetition</tspan></text><text transform="translate(2471.9004 4727.4332)" fill="#fff200" font-family="Arial-BoldMT, Arial" font-size="12" font-weight="700"><tspan x="0" y="0">x Repetition &amp; </tspan><tspan x="84.006" y="0" letter-spacing="-.055em">V</tspan><tspan x="91.348" y="0">alidation Synthesis</tspan><tspan x="200.707" y="0" letter-spacing="-.037em"> </tspan><tspan x="203.596" y="0">Across Other </tspan><tspan x="282.955" y="0" letter-spacing="-.018em">W</tspan><tspan x="294.064" y="0">eb Search Results</tspan></text><text transform="translate(2270.5015 4888.0938)" fill="#fff200" font-family="Arial-BoldMT, Arial" font-size="12" font-weight="700"><tspan x="0" y="0">User-ChatGPT</tspan><tspan x="82.014" y="0" letter-spacing="-.037em"> </tspan><tspan x="84.902" y="0">Aligned Response</tspan></text><text transform="translate(2929.6118 4847.3174)" fill="#fff200" font-family="Arial-BoldMT, Arial" font-size="12" font-weight="700"><tspan x="0" y="0">Continued Refinement of Reasoning, </tspan><tspan x="3.964" y="14.4">User Feedback Iteration, Synthesis, </tspan><tspan x="-8.953" y="28.8">+</tspan><tspan x="-1.945" y="28.8" letter-spacing="-.037em"> </tspan><tspan x=".943" y="28.8">Additional </tspan><tspan x="62.936" y="28.8" letter-spacing="-.018em">W</tspan><tspan x="74.045" y="28.8">eb Search Until</tspan><tspan x="161.402" y="28.8" letter-spacing="-.037em"> </tspan><tspan x="164.291" y="28.8">Alignment</tspan></text><text transform="translate(2720.6485 4804.188)" fill="#fff200" font-family="Arial-BoldMT, Arial" font-size="12" font-weight="700"><tspan x="0" y="0">Reason, Refine, Synthesize</tspan></text><text transform="translate(3205.7163 4593.5749)" fill="#fff" font-family="Arial-BoldMT, Arial" font-size="10" font-weight="700"><tspan x="0" y="0">Lack of Similar Narrative(s)</tspan><tspan x="36.135" y="12">x Repetition</tspan></text><text transform="translate(2070.4659 4737.6793)" fill="#fff200" font-family="Arial-BoldMT, Arial" font-size="12" font-weight="700"><tspan x="0" y="0">High Cofidence Response</tspan></text><text transform="translate(3323.0992 5045.7696)" fill="#fff200" font-family="Arial-BoldMT, Arial" font-size="12" font-weight="700"><tspan x="0" y="0">ChatGPT Unable to</tspan><tspan x="-19.459" y="14.4">Provide Sufficient</tspan><tspan x="82.559" y="14.4" letter-spacing="-.037em"> </tspan><tspan x="85.447" y="14.4">Answer</tspan></text><text transform="translate(2068.0098 4902.0127)" fill="#fff200" font-family="Arial-BoldMT, Arial" font-size="12" font-weight="700"><tspan x="0" y="0">Higher Cofidence Response</tspan></text><text transform="translate(2412.8506 4789.4371)" fill="#fff" font-family="Arial-BoldMT, Arial" font-size="12" font-weight="700"><tspan x="0" y="0">User Feedback</tspan></text><text transform="translate(2397.4966 4816.9278)" fill="#fff" font-family="Arial-BoldMT, Arial" font-size="12" font-weight="700"><tspan x="0" y="0">ChatGPT Reasoning</tspan></text><text transform="translate(2394.524 4844.9537)" fill="#fff" font-family="Arial-BoldMT, Arial" font-size="12" font-weight="700"><tspan x="0" y="0">Resposne Refinement</tspan></text><text transform="translate(2159.2505 4307.6387)" fill="#fff200" font-family="Arial-BoldMT, Arial" font-size="12" font-weight="700"><tspan x="0" y="0" letter-spacing="-.074em">V</tspan><tspan x="7.113" y="0">oice of </tspan><tspan x="49.119" y="0" letter-spacing="-.018em">W</tspan><tspan x="60.229" y="0">eb-Search Retrived Corroborator</tspan></text><text transform="translate(2057.2525 4355.354)" fill="#fff" font-family="Arial-BoldMT, Arial" font-size="12" font-weight="700"><tspan x="0" y="0">Narrative(s) to</tspan><tspan x="-19.676" y="14.4">User Question Exists</tspan></text><text transform="translate(2224.5601 4354.354)" fill="#fff" font-family="Arial-BoldMT, Arial" font-size="12" font-weight="700"><tspan x="0" y="0">Narrative(s) to</tspan><tspan x="-30.34" y="14.4">Similar Question(s) Exist</tspan></text><text transform="translate(2406.5708 4354.9947)" fill="#fff" font-family="Arial-BoldMT, Arial" font-size="12" font-weight="700"><tspan x="0" y="0">Narrative(s) to</tspan><tspan x="-37.667" y="14.4">User Question Do Not Exist</tspan></text><text transform="translate(2107.4117 4417.526)" fill="#fff" font-family="Arial-BoldMT, Arial" font-size="12" font-weight="700"><tspan x="0" y="0">ChatGPT Scans</tspan><tspan x="12.999" y="14.4">Responses</tspan></text><text transform="translate(2088.3662 4479.0807)" fill="#fff" font-family="Arial-BoldMT, Arial" font-size="12" font-weight="700"><tspan x="0" y="0">ChatGPT Scans Patterns</tspan><tspan x="-6.674" y="14.4">of Narratives in Responses</tspan></text><text transform="translate(2135.6963 4535.7477)" fill="#fff200" font-family="Arial-BoldMT, Arial" font-size="12" font-weight="700"><tspan x="0" y="0">“ABC is the best answer b/c XYZ”</tspan></text><text transform="translate(2344.4556 4535.903)" fill="#fff200" font-family="Arial-BoldMT, Arial" font-size="12" font-weight="700"><tspan x="0" y="0">x Similar Narrative Repetition</tspan></text><text transform="translate(2522.9898 4535.7467)" fill="#fff200" font-family="Arial-BoldMT, Arial" font-size="12" font-weight="700"><tspan x="0" y="0">— (Counter Narrative x Repetition)</tspan></text><text transform="translate(2731.481 4535.7467)" fill="#fff200" font-family="Arial-BoldMT, Arial" font-size="12" font-weight="700"><tspan x="0" y="0" xml:space="preserve">=  Confidence Level</tspan></text><text transform="translate(2136.7154 4646.6617)" fill="#fff200" font-family="Arial-BoldMT, Arial" font-size="12" font-weight="700"><tspan x="0" y="0">“ABC is the best answer b/c XYZ”</tspan></text><text transform="translate(2345.4746 4646.817)" fill="#fff200" font-family="Arial-BoldMT, Arial" font-size="12" font-weight="700"><tspan x="0" y="0">x Similar Narrative Repetition</tspan></text><text transform="translate(2524.0088 4646.6607)" fill="#fff200" font-family="Arial-BoldMT, Arial" font-size="12" font-weight="700"><tspan x="0" y="0">— (Counter Narrative x Repetition)</tspan></text><text transform="translate(2732.5 4646.6607)" fill="#fff200" font-family="Arial-BoldMT, Arial" font-size="12" font-weight="700"><tspan x="0" y="0" xml:space="preserve">=  Confidence Level</tspan></text><text transform="translate(2137.544 4675.8014)" fill="#fff" font-family="Arial-BoldMT, Arial" font-size="12" font-weight="700"><tspan x="0" y="0">“GHI is the best answer b/c RST”</tspan></text><text transform="translate(2344.3023 4675.9566)" fill="#fff" font-family="Arial-BoldMT, Arial" font-size="12" font-weight="700"><tspan x="0" y="0">x Similar Narrative Repetition</tspan></text><text transform="translate(2522.8364 4675.8004)" fill="#fff" font-family="Arial-BoldMT, Arial" font-size="12" font-weight="700"><tspan x="0" y="0">— (Counter Narrative x Repetition)</tspan></text><text transform="translate(2731.3277 4675.8004)" fill="#fff" font-family="Arial-BoldMT, Arial" font-size="12" font-weight="700"><tspan x="0" y="0" xml:space="preserve">=  Confidence Level</tspan></text><text transform="translate(2343.2832 4560.5788)" fill="#fff" font-family="Arial-BoldMT, Arial" font-size="12" font-weight="700"><tspan x="0" y="0">x Similar Narrative Repetition</tspan></text><text transform="translate(2521.8174 4560.4225)" fill="#fff" font-family="Arial-BoldMT, Arial" font-size="12" font-weight="700"><tspan x="0" y="0">— (Counter Narrative x Repetition)</tspan></text><text transform="translate(2731.3086 4560.4225)" fill="#fff" font-family="Arial-BoldMT, Arial" font-size="12" font-weight="700"><tspan x="0" y="0" xml:space="preserve">=  Confidence Level</tspan></text><text transform="translate(2133.3189 4560.5016)" fill="#fff" font-family="Arial-BoldMT, Arial" font-size="12" font-weight="700"><tspan x="0" y="0">“DEF is the best answer b/c UVW”</tspan></text><text transform="translate(2049.1304 4539.7907)" fill="#fff" font-family="Arial-BoldMT, Arial" font-size="12" font-weight="700"><tspan x="0" y="0" letter-spacing="-.018em">V</tspan><tspan x="7.787" y="0">isible</tspan><tspan x="-10.119" y="14.4">Narratives</tspan></text><text transform="translate(2050.3081 4651.1803)" fill="#fff" font-family="Arial-BoldMT, Arial" font-size="12" font-weight="700"><tspan x="0" y="0" letter-spacing="-.018em">V</tspan><tspan x="7.787" y="0">isible</tspan><tspan x="-10.119" y="14.4">Narratives</tspan></text><text transform="translate(2416.9053 4417.6247)" fill="#fff" font-family="Arial-BoldMT, Arial" font-size="12" font-weight="700"><tspan x="0" y="0">No Scannable</tspan><tspan x="7.664" y="14.4">Responses</tspan></text><rect x="2023.43" y="4277.083" width="878.217" height="314.261" fill="none" stroke="#fff" stroke-miterlimit="10"/><line x1="2023.43" y1="4446.562" x2="2901.647" y2="4446.562" fill="none" stroke="#fff" stroke-miterlimit="10"/><rect x="2023.43" y="4277.083" width="878.217" height="426.174" fill="none" stroke="#fff200" stroke-miterlimit="10" stroke-width="2.5"/><rect x="2023.43" y="4766.055" width="878.217" height="94.763" fill="none" stroke="#fff200" stroke-miterlimit="10" stroke-width="2.5"/><rect x="2023.43" y="4860.817" width="878.217" height="69.391" fill="none" stroke="#fff200" stroke-miterlimit="10" stroke-width="2.5"/><line x1="1851.905" y1="1958.882" x2="1762.741" y2="1958.882" fill="none" stroke="#fff" stroke-miterlimit="10"/><polygon points="1849.096 1955.179 1850.669 1958.882 1849.096 1962.585 1857.875 1958.882 1849.096 1955.179" fill="#fff"/><text transform="translate(1847.7745 2046.4069)" fill="#fff200" font-family="Arial-BoldMT, Arial" font-size="12" font-weight="700"><tspan x="0" y="0">Breakdown User Search Narrative Into</tspan><tspan x="14.133" y="14.4" letter-spacing="-.074em">T</tspan><tspan x="20.572" y="14.4">echnical Constrants &amp; </tspan><tspan x="150.604" y="14.4" letter-spacing="-.055em">T</tspan><tspan x="157.271" y="14.4">radeoffs</tspan></text><text transform="translate(1850.6021 2126.8073)" fill="#fff200" font-family="Arial-BoldMT, Arial" font-size="12" font-weight="700"><tspan x="0" y="0">Form Keywords, Phrases, Narratives</tspan><tspan x="59.145" y="14.4">For </tspan><tspan x="81.809" y="14.4" letter-spacing="-.018em">W</tspan><tspan x="92.918" y="14.4">eb Search</tspan></text><line x1="1827.403" y1="2050" x2="1653.843" y2="2050" fill="none" stroke="#fff200" stroke-miterlimit="10" stroke-width="1.5"/><polygon points="1823.19 2044.445 1825.55 2050 1823.19 2055.554 1836.358 2050 1823.19 2044.445" fill="#fff200"/><line x1="1572.958" y1="2126.807" x2="1839.488" y2="2126.807" fill="none" stroke="#fff200" stroke-miterlimit="10" stroke-width="2"/><polygon points="1578.575 2134.213 1575.429 2126.807 1578.575 2119.401 1561.019 2126.807 1578.575 2134.213" fill="#fff200"/><line x1="1955.315" y1="2101.491" x2="1955.315" y2="2069.668" fill="none" stroke="#fff200" stroke-miterlimit="10" stroke-width="1.5"/><polygon points="1960.869 2097.278 1955.315 2099.638 1949.76 2097.278 1955.315 2110.445 1960.869 2097.278" fill="#fff200"/><line x1="1361.301" y1="1465.414" x2="1304.168" y2="1465.414" fill="none" stroke="#fff" stroke-miterlimit="10"/><polygon points="1358.493 1461.711 1360.066 1465.414 1358.493 1469.117 1367.271 1465.414 1358.493 1461.711" fill="#fff"/><line x1="1551.155" y1="1769.77" x2="1551.155" y2="1798.977" fill="none" stroke="#fff200" stroke-miterlimit="10" stroke-width="2.5"/><line x1="1551.174" y1="1821.732" x2="1551.174" y2="1855.524" fill="none" stroke="#fff200" stroke-miterlimit="10" stroke-width="2.5"/><line x1="1552.079" y1="1899.964" x2="1552.079" y2="1944.572" fill="none" stroke="#fff200" stroke-miterlimit="10" stroke-width="2.5"/><line x1="1554.562" y1="2075.755" x2="1554.562" y2="2126.807" fill="none" stroke="#fff200" stroke-miterlimit="10" stroke-width="2.5"/><line x1="1554.562" y1="2126.019" x2="1554.562" y2="2222.487" fill="none" stroke="#fff200" stroke-miterlimit="10" stroke-width="2.5"/><line x1="1552.079" y1="1973.192" x2="1552.079" y2="2020.955" fill="none" stroke="#fff200" stroke-miterlimit="10" stroke-width="2.5"/><line x1="1550.589" y1="1678.586" x2="1550.589" y2="1725.948" fill="none" stroke="#fff200" stroke-miterlimit="10" stroke-width="2.5"/><line x1="1138.854" y1="1676.081" x2="1138.854" y2="1725.269" fill="none" stroke="#fff" stroke-miterlimit="10"/><line x1="1138.854" y1="1587.407" x2="1138.854" y2="1676.101" fill="none" stroke="#fff" stroke-miterlimit="10"/><line x1="1138.854" y1="1677.907" x2="1550.589" y2="1677.907" fill="none" stroke="#fff200" stroke-miterlimit="10" stroke-width="2.5"/><polyline points="2128.241 4553.825 2106.794 4553.825 2106.794 4532.378 2128.241 4532.378" fill="none" stroke="#fff" stroke-miterlimit="10"/><polyline points="2850.257 4643.252 2880.806 4643.252 2880.806 4531.378 2850.257 4531.378" fill="none" stroke="#fff200" stroke-miterlimit="10"/><polyline points="3494.972 5146.581 3599.814 5146.58 3599.815 710.555 3494.973 710.556" fill="none" stroke="#00aeef" stroke-miterlimit="10" stroke-width="2"/><polyline points="2128.241 4666.712 2106.794 4666.712 2106.794 4645.265 2128.241 4645.265" fill="none" stroke="#fff" stroke-miterlimit="10"/><line x1="2490.373" y1="4611.575" x2="3373.326" y2="4611.575" fill="none" stroke="#fff200" stroke-miterlimit="10"/><polygon points="3370.517 4615.278 3372.091 4611.575 3370.517 4607.872 3379.296 4611.575 3370.517 4615.278" fill="#fff200"/><line x1="3378.318" y1="4423.451" x2="3378.318" y2="5012.234" fill="none" stroke="#fff200" stroke-miterlimit="10"/><polygon points="3374.615 5009.426 3378.318 5010.999 3382.021 5009.426 3378.318 5018.204 3374.615 5009.426" fill="#fff200"/><line x1="2503.579" y1="4423.178" x2="3379.865" y2="4423.178" fill="none" stroke="#fff200" stroke-miterlimit="10"/><line x1="2880.806" y1="4640.432" x2="2880.806" y2="4813.436" fill="none" stroke="#fff200" stroke-miterlimit="10"/><line x1="2233.775" y1="4734.814" x2="2880.806" y2="4734.814" fill="none" stroke="#fff200" stroke-miterlimit="10"/><polygon points="2236.583 4738.517 2235.01 4734.814 2236.583 4731.11 2227.805 4734.814 2236.583 4738.517" fill="#fff200"/><line x1="2551.355" y1="4813.436" x2="2880.806" y2="4813.436" fill="none" stroke="#fff200" stroke-miterlimit="10" stroke-width="2.5"/><polygon points="2558.377 4822.694 2554.444 4813.436 2558.377 4804.178 2536.431 4813.436 2558.377 4822.694" fill="#fff200"/><line x1="2876.949" y1="4813.436" x2="3185.71" y2="4813.436" fill="none" stroke="#fff200" stroke-miterlimit="10"/><polygon points="3182.901 4817.139 3184.474 4813.436 3182.901 4809.733 3191.679 4813.436 3182.901 4817.139" fill="#fff200"/><line x1="3190.132" y1="4814.517" x2="3190.132" y2="4894.529" fill="none" stroke="#fff200" stroke-miterlimit="10"/><polygon points="3186.429 4891.72 3190.132 4893.294 3193.835 4891.72 3190.132 4900.499 3186.429 4891.72" fill="#fff200"/><line x1="2880.396" y1="4897.694" x2="2880.396" y2="4823.204" fill="none" stroke="#fff200" stroke-miterlimit="10"/><polygon points="2884.1 4826.013 2880.396 4824.439 2876.693 4826.013 2880.396 4817.234 2884.1 4826.013" fill="#fff200"/><line x1="2882.919" y1="4899.417" x2="3191.679" y2="4899.417" fill="none" stroke="#fff200" stroke-miterlimit="10"/><polygon points="2885.727 4903.12 2884.154 4899.417 2885.727 4895.714 2876.949 4899.417 2885.727 4903.12" fill="#fff200"/><line x1="2354.988" y1="4813.436" x2="711.289" y2="4813.436" fill="none" stroke="#fff200" stroke-miterlimit="10" stroke-width="2.5"/><polygon points="2347.967 4804.178 2351.9 4813.436 2347.967 4822.694 2369.912 4813.436 2347.967 4804.178" fill="#fff200"/><line x1="2250.201" y1="4899.417" x2="2880.806" y2="4899.417" fill="none" stroke="#fff200" stroke-miterlimit="10" stroke-width="2.5"/><polygon points="2257.223 4908.675 2253.289 4899.417 2257.223 4890.16 2235.277 4899.417 2257.223 4908.675" fill="#fff200"/><line x1="1482.673" y1="4899.417" x2="2058.129" y2="4899.417" fill="none" stroke="#fff200" stroke-miterlimit="10" stroke-width="2.5"/><line x1="1482.673" y1="5064.986" x2="1482.673" y2="5117.309" fill="none" stroke="#fff200" stroke-miterlimit="10" stroke-width="2.5"/><polygon points="1473.415 5110.287 1482.673 5114.22 1491.931 5110.287 1482.673 5132.233 1473.415 5110.287" fill="#fff200"/><line x1="1482.445" y1="4900.216" x2="1482.445" y2="5003.439" fill="none" stroke="#fff200" stroke-miterlimit="10" stroke-width="2.5"/><polygon points="1473.187 4996.418 1482.445 5000.351 1491.702 4996.418 1482.445 5018.364 1473.187 4996.418" fill="#fff200"/><line x1="1482.673" y1="5162.543" x2="1482.673" y2="5288.959" fill="none" stroke="#fff200" stroke-miterlimit="10" stroke-width="2.5"/><polygon points="1473.415 5281.937 1482.673 5285.87 1491.931 5281.937 1482.673 5303.883 1473.415 5281.937" fill="#fff200"/><line x1="998.644" y1="1444.617" x2="1284.158" y2="1444.617" fill="none" stroke="#fff" stroke-miterlimit="10"/><line x1="711.289" y1="1576.122" x2="1048.56" y2="1576.122" fill="none" stroke="#fff200" stroke-miterlimit="10" stroke-width="2.5"/><polygon points="1041.538 1585.379 1045.471 1576.122 1041.538 1566.864 1063.484 1576.122 1041.538 1585.379" fill="#fff200"/><line x1="711.289" y1="1997.074" x2="1552.079" y2="1997.074" fill="none" stroke="#fff200" stroke-miterlimit="10" stroke-width="2.5"/><line x1="795.81" y1="1388.634" x2="1002.158" y2="1361.068" fill="none" stroke="#fff200" stroke-miterlimit="10" stroke-width="2"/><line x1="711.289" y1="1452.61" x2="711.289" y2="4813.436" fill="none" stroke="#fff200" stroke-miterlimit="10" stroke-width="2.5"/><line x1="997.306" y1="1488.451" x2="1286.077" y2="1488.451" fill="none" stroke="#fff" stroke-miterlimit="10"/><line x1="795.81" y1="1388.634" x2="1002.158" y2="1416.199" fill="none" stroke="#fff200" stroke-miterlimit="10" stroke-width="2"/><path d="M4242.807,745.47c-3.823-.489-6.441-3.708-6.451-7.283-.011-3.584,2.632-6.75,6.314-7.301,4.487-.672,8.406,2.698,8.529,7.054.125,4.451-3.658,8.137-8.391,7.531ZM4243.964,742.88c2.713-.103,4.366-2.326,4.384-4.695.018-2.37-1.697-4.545-4.248-4.71-2.783-.18-4.879,2.069-4.883,4.704-.004,2.468,1.937,4.808,4.747,4.701Z" fill="#00aeef"/><path d="M4298.159,742.209l-6.685-.014-1.194,3.131-2.891-.011,5.779-14.24,3.311-.065,5.768,14.299-2.941.027-1.146-3.128ZM4297.158,739.806l-2.365-5.824-2.392,5.853,4.757-.028Z" fill="#00aeef"/><path d="M4252.693,749.444v-14.335s2.587-.026,2.587-.026l.256,1.062c1.417-1.414,3.475-1.577,5.356-.775,1.641.7,2.812,2.424,2.947,4.458.138,2.083-.858,4.093-2.488,5.004-1.933,1.081-4.056.97-5.948-.378l-.031,4.984-2.679.007ZM4257.569,743.133c1.994.453,3.488-1.081,3.555-2.773.071-1.776-1.303-3.331-3.226-3.115-1.534.172-2.489,1.484-2.54,2.871-.046,1.251.679,2.668,2.21,3.017Z" fill="#00aeef"/><path d="M4272.599,742.116l2.543.036c-.608,2.219-2.513,3.26-4.64,3.395-3.19.202-5.618-2.128-5.605-5.31.013-3.254,2.586-5.622,5.86-5.325,3.06.277,5.003,2.948,4.496,6.149l-7.716.028c.269,1.255,1.126,2.004,1.98,2.205,1.236.291,2.223-.021,3.082-1.178ZM4272.761,739.141c-.437-1.764-1.599-2.132-2.851-2.062-1.035.058-2.133.864-2.276,2.09l5.127-.029Z" fill="#00aeef"/><path d="M4279.518,738.999l-.107,6.324-2.683-.003-.002-10.166,2.552-.089.244,1.089c1.108-1.234,2.746-1.528,4.379-1.01,1.388.441,2.441,1.94,2.446,3.679l.02,6.497-2.693.014v-5.821c0-1.204-.57-2.132-1.699-2.298-.904-.133-2.433.398-2.457,1.784Z" fill="#00aeef"/><polygon points="4306.072 745.295 4303.34 745.321 4303.339 731.047 4306.07 731.028 4306.072 745.295" fill="#00aeef"/><line x1="3599.815" y1="710.555" x2="1465.352" y2="710.555" fill="none" stroke="#00aeef" stroke-miterlimit="10" stroke-width="2"/><line x1="3599.815" y1="5145.743" x2="1571.315" y2="5145.743" fill="none" stroke="#00aeef" stroke-miterlimit="10" stroke-width="2"/><line x1="1492.454" y1="983.67" x2="1492.454" y2="1025.07" fill="none" stroke="#fff200" stroke-miterlimit="10" stroke-width="2.5"/><line x1="1491.949" y1="1089.805" x2="1491.949" y2="1130.962" fill="none" stroke="#fff200" stroke-miterlimit="10" stroke-width="2.5"/><line x1="1490.689" y1="1130.962" x2="1138.854" y2="1130.962" fill="none" stroke="#fff200" stroke-miterlimit="10" stroke-width="2.5"/><line x1="1142.113" y1="1130.962" x2="727.708" y2="1130.962" fill="none" stroke="#fff200" stroke-miterlimit="10" stroke-width="2.5"/><line x1="1688.903" y1="1037.574" x2="1553.134" y2="1037.574" fill="none" stroke="#fff200" stroke-miterlimit="10" stroke-width="2.5"/><line x1="1688.903" y1="1074.828" x2="1659.595" y2="1074.828" fill="none" stroke="#fff200" stroke-miterlimit="10" stroke-width="2.5"/><line x1="1283.315" y1="832.842" x2="1283.315" y2="886.842" fill="none" stroke="#fff" stroke-miterlimit="10"/><line x1="1391.054" y1="832.842" x2="1391.054" y2="886.842" fill="none" stroke="#fff" stroke-miterlimit="10"/><line x1="1491.949" y1="833.191" x2="1491.949" y2="887.191" fill="none" stroke="#fff" stroke-miterlimit="10"/><line x1="841.923" y1="832.842" x2="841.923" y2="886.842" fill="none" stroke="#fff" stroke-miterlimit="10"/><line x1="726.708" y1="886.492" x2="726.708" y2="1130.962" fill="none" stroke="#fff" stroke-miterlimit="10"/><line x1="969.534" y1="833.191" x2="969.534" y2="887.191" fill="none" stroke="#fff" stroke-miterlimit="10"/><line x1="725.708" y1="886.842" x2="1491.949" y2="886.842" fill="none" stroke="#fff" stroke-miterlimit="10"/><line x1="725.708" y1="829.711" x2="725.708" y2="886.842" fill="none" stroke="#fff" stroke-miterlimit="10"/><rect x="537.367" y="1322.885" width="257.911" height="129.725" fill="none" stroke="#fff200" stroke-miterlimit="10" stroke-width="2.5"/><text transform="translate(1944.6621 2236.9113)" fill="#fff" font-family="ArialMT, Arial" font-size="12"><tspan x="0" y="0">Search Engine</tspan><tspan x="-13.655" y="14.4">General Framework</tspan></text><text transform="translate(1737.0572 2416.8586)" fill="#fff" font-family="ArialMT, Arial" font-size="12"><tspan x="0" y="0">Hyperlinks</tspan></text><text transform="translate(1933.9786 2526.6965)" fill="#fff" font-family="ArialMT, Arial" font-size="12"><tspan x="0" y="0">Download </tspan><tspan x="56.701" y="0" letter-spacing="-.018em">W</tspan><tspan x="67.811" y="0">ebpage </tspan></text><text transform="translate(1934.8907 2591.7082)" fill="#fff" font-family="ArialMT, Arial" font-size="12"><tspan x="0" y="0">Extract Main Content</tspan></text><text transform="translate(1934.8907 2622.925)" fill="#fff" font-family="ArialMT, Arial" font-size="12"><tspan x="0" y="0">Detect Language</tspan></text><text transform="translate(1934.8907 2653.0725)" fill="#fff" font-family="ArialMT, Arial" font-size="12"><tspan x="0" y="0" letter-spacing="-.111em">T</tspan><tspan x="6" y="0">okenize</tspan><tspan x="47.361" y="0" letter-spacing="-.018em"> </tspan><tspan x="50.479" y="0" letter-spacing="-.111em">T</tspan><tspan x="56.479" y="0">ext</tspan></text><text transform="translate(2187.5235 2653.2048)" fill="#fff" font-family="ArialMT, Arial" font-size="12"><tspan x="0" y="0">“best”, “shoes”, “for”, “running”, “red”</tspan></text><text transform="translate(2187.5127 2704.5998)" fill="#fff" font-family="ArialMT, Arial" font-size="12"><tspan x="0" y="0">“people”, “companies”, “cities”, “products”, “organizations”, “hiking”, “boxing”</tspan></text><text transform="translate(2245.6944 2794.3342)" fill="#fff" font-family="ArialMT, Arial" font-size="12"><tspan x="0" y="0">Originalit</tspan><tspan x="47.35" y="0" letter-spacing="-.074em">y</tspan><tspan x="52.459" y="0">, completeness, clarit</tspan><tspan x="165.17" y="0" letter-spacing="-.074em">y</tspan><tspan x="170.279" y="0">, trustworthiness</tspan></text><text transform="translate(2244.9986 2820.7951)" fill="#fff" font-family="ArialMT, Arial" font-size="12"><tspan x="0" y="0">Meaning, concepts, and relationships between them</tspan></text><text transform="translate(1934.4107 2680.1906)" fill="#fff" font-family="ArialMT, Arial" font-size="12"><tspan x="0" y="0">Normalize </tspan><tspan x="57.346" y="0" letter-spacing="-.018em">W</tspan><tspan x="68.455" y="0">ords</tspan></text><text transform="translate(1934.4229 2708.5998)" fill="#fff" font-family="ArialMT, Arial" font-size="12"><tspan x="0" y="0">Recognize Entities and</tspan><tspan x="122.742" y="0" letter-spacing="-.018em"> </tspan><tspan x="125.859" y="0" letter-spacing="-.111em">T</tspan><tspan x="131.859" y="0">opics</tspan></text><text transform="translate(1934.4229 2736.7092)" fill="#fff" font-family="ArialMT, Arial" font-size="12"><tspan x="0" y="0">Analyze Images, </tspan><tspan x="92.045" y="0" letter-spacing="-.018em">V</tspan><tspan x="99.832" y="0">ideos, and Structured Data</tspan></text><text transform="translate(1934.4229 2766.9524)" fill="#fff" font-family="ArialMT, Arial" font-size="12"><tspan x="0" y="0">Detect Duplicates and Choose Canonical Pages</tspan></text><text transform="translate(1934.7227 2794.3342)" fill="#fff" font-family="ArialMT, Arial" font-size="12"><tspan x="0" y="0">Evaluate Quality Signals</tspan></text><text transform="translate(1935.0328 2820.7951)" fill="#fff" font-family="ArialMT, Arial" font-size="12"><tspan x="0" y="0">Build Internal, Searchable, Semantic Representation</tspan></text><text transform="translate(1935.0205 2848.8947)" fill="#fff" font-family="ArialMT, Arial" font-size="12"><tspan x="0" y="0">Build Inverted Index</tspan></text><text transform="translate(1934.4126 2876.8947)" fill="#fff" font-family="ArialMT, Arial" font-size="12"><tspan x="0" y="0">Ready for Retrieval During Search</tspan></text><text transform="translate(1934.8907 2557.9885)" fill="#fff" font-family="ArialMT, Arial" font-size="12"><tspan x="0" y="0">Parse HTM</tspan><tspan x="60.674" y="0" letter-spacing="-.037em">L</tspan></text><text transform="translate(2187.5245 2558.1203)" fill="#fff" font-family="ArialMT, Arial" font-size="12"><tspan x="0" y="0" letter-spacing="-.037em">T</tspan><tspan x="6.885" y="0">itles, Headings, Paragraphs, Links, Metadata, Descriptions</tspan></text><text transform="translate(2187.2242 2591.84)" fill="#fff" font-family="ArialMT, Arial" font-size="12"><tspan x="0" y="0">Article, menus, repeated template content</tspan></text><text transform="translate(1809.4639 2416.8586)" fill="#fff" font-family="ArialMT, Arial" font-size="12"><tspan x="0" y="0">Sitemaps</tspan></text><text transform="translate(1877.1031 2416.8586)" fill="#fff" font-family="ArialMT, Arial" font-size="12"><tspan x="0" y="0">Revisit Known Pages</tspan></text><text transform="translate(1999.3868 2416.8586)" fill="#fff" font-family="ArialMT, Arial" font-size="12"><tspan x="0" y="0" letter-spacing="-.018em">V</tspan><tspan x="7.787" y="0">isit New Pages</tspan></text><text transform="translate(2097.2715 2416.8586)" fill="#fff" font-family="ArialMT, Arial" font-size="12"><tspan x="0" y="0">UR</tspan><tspan x="17.332" y="0" letter-spacing="-.037em">L</tspan><tspan x="23.561" y="0" xml:space="preserve"> Redirects</tspan></text><text transform="translate(2182.4024 2416.8586)" fill="#fff" font-family="ArialMT, Arial" font-size="12"><tspan x="0" y="0">HTT</tspan><tspan x="23.326" y="0" letter-spacing="-.018em">P</tspan><tspan x="31.113" y="0" xml:space="preserve"> Responses</tspan></text><text transform="translate(1964.2481 2381.528)" fill="#fff" font-family="ArialMT, Arial" font-size="12"><tspan x="0" y="0">Crawling</tspan></text><text transform="translate(1964.6802 2491.1633)" fill="#fff" font-family="ArialMT, Arial" font-size="12"><tspan x="0" y="0">Indexing</tspan></text><text transform="translate(1962.5923 2961.7946)" fill="#fff200" font-family="ArialMT, Arial" font-size="12"><tspan x="0" y="0">Ranking</tspan></text><text transform="translate(1896.7227 3097.9001)" fill="#fff" font-family="ArialMT, Arial" font-size="12"><tspan x="0" y="0">Understand ChatGP</tspan><tspan x="108.059" y="0" letter-spacing="-.018em">T</tspan><tspan x="115.172" y="0" xml:space="preserve"> Search Query</tspan></text><text transform="translate(1934.6109 3034.5988)" fill="#fff200" font-family="ArialMT, Arial" font-size="12"><tspan x="0" y="0">User Search Query</tspan></text><text transform="translate(1919.5494 3290.0271)" fill="#fff" font-family="ArialMT, Arial" font-size="12"><tspan x="0" y="0">Compute </tspan><tspan x="52.025" y="0" letter-spacing="-.018em">W</tspan><tspan x="63.135" y="0">ebpage Signals</tspan></text><text transform="translate(1941.5108 3411.2805)" fill="#fff" font-family="ArialMT, Arial" font-size="12"><tspan x="0" y="0">Synthesize Signals</tspan></text><text transform="translate(1378.272 3663.6562)" fill="#fff" font-family="ArialMT, Arial" font-size="12"><tspan x="0" y="0">Continous ChatGP</tspan><tspan x="100.055" y="0" letter-spacing="-.018em">T</tspan><tspan x="107.168" y="0" xml:space="preserve"> Reasoning</tspan></text><text transform="translate(1456.7935 3992.2424)" fill="#fff200" font-family="Arial-BoldMT, Arial" font-size="12" font-weight="700"><tspan x="0" y="0">ChatGPT Synthesis of </tspan><tspan x="129.352" y="0" letter-spacing="-.018em">W</tspan><tspan x="140.461" y="0">eb Results</tspan></text><text transform="translate(1559.3008 3754.8125)" fill="#fff" font-family="ArialMT, Arial" font-size="12"><tspan x="0" y="0">Potential</tspan><tspan x="46.699" y="0" letter-spacing="-.055em"> </tspan><tspan x="49.371" y="0">Additional Round(s) of </tspan><tspan x="171.439" y="0" letter-spacing="-.018em">W</tspan><tspan x="182.549" y="0">eb Search</tspan></text><text transform="translate(1946.3326 3471.2937)" fill="#fff" font-family="ArialMT, Arial" font-size="12"><tspan x="0" y="0">Diversity Factor</tspan></text><text transform="translate(1873.9175 3536.405)" fill="#fff" font-family="ArialMT, Arial" font-size="12"><tspan x="0" y="0">Generate the Search Engine Results Page (SERP)</tspan></text><text transform="translate(1925.0313 3217.7712)" fill="#fff" font-family="ArialMT, Arial" font-size="12"><tspan x="0" y="0">Retrieve Candidate Pages</tspan></text><text transform="translate(1857.481 3135.1276)" fill="#fff" font-family="ArialMT, Arial" font-size="12"><tspan x="0" y="0">Nature of Search</tspan></text><text transform="translate(1957.5293 3135.26)" fill="#fff" font-family="ArialMT, Arial" font-size="12"><tspan x="0" y="0">Search Intent</tspan></text><text transform="translate(2040.1255 3135.3923)" fill="#fff" font-family="ArialMT, Arial" font-size="12"><tspan x="0" y="0">Nature of</tspan><tspan x="49.359" y="0" letter-spacing="-.018em"> </tspan><tspan x="52.477" y="0" letter-spacing="-.037em">T</tspan><tspan x="59.361" y="0">ruth</tspan></text><text transform="translate(1967.9009 3331.2868)" fill="#fff" font-family="ArialMT, Arial" font-size="12"><tspan x="0" y="0">Semantic Relavance</tspan></text><text transform="translate(2166.063 3331.7942)" fill="#fff" font-family="ArialMT, Arial" font-size="12"><tspan x="0" y="0">Freshness</tspan></text><text transform="translate(2235.4654 3331.2868)" fill="#fff" font-family="ArialMT, Arial" font-size="12"><tspan x="0" y="0">Authority</tspan></text><text transform="translate(2298.8243 3331.2873)" fill="#fff" font-family="ArialMT, Arial" font-size="12"><tspan x="0" y="0">User Experience</tspan></text><text transform="translate(2094.5205 3331.2868)" fill="#fff" font-family="ArialMT, Arial" font-size="12"><tspan x="0" y="0">Originality</tspan></text><text transform="translate(1640.0728 3331.2873)" fill="#fff" font-family="ArialMT, Arial" font-size="12"><tspan x="0" y="0">Entity Relevance</tspan></text><text transform="translate(1744.4224 3331.2868)" fill="#fff" font-family="ArialMT, Arial" font-size="12"><tspan x="0" y="0" letter-spacing="-.111em">T</tspan><tspan x="6" y="0">opical Coverage</tspan></text><text transform="translate(1857.0381 3331.2868)" fill="#fff" font-family="ArialMT, Arial" font-size="12"><tspan x="0" y="0">Lexical Relevance</tspan></text><text transform="translate(1946.4849 2305.4235)" fill="#fff" font-family="ArialMT, Arial" font-size="12"><tspan x="0" y="0">Underlying Motif:</tspan><tspan x="-153.621" y="14.4">Retrieve Results</tspan><tspan x="-65.59" y="14.4" letter-spacing="-.018em"> </tspan><tspan x="-62.473" y="14.4">That Will Display Most Relevant and</tspan><tspan x="130.266" y="14.4" letter-spacing="-.055em"> </tspan><tspan x="132.938" y="14.4">Accurate Information</tspan></text><line x1="1983.503" y1="2264.684" x2="1983.503" y2="2285.032" fill="none" stroke="#fff" stroke-miterlimit="10"/><line x1="1983.503" y1="2330.641" x2="1983.503" y2="2363.293" fill="none" stroke="#fff" stroke-miterlimit="10"/><line x1="1554.717" y1="3028.791" x2="1926.635" y2="3028.791" fill="none" stroke="#fff200" stroke-miterlimit="10" stroke-width="2.5"/><line x1="2045.359" y1="3031.508" x2="2670.673" y2="3031.508" fill="none" stroke="#fff" stroke-miterlimit="10"/><line x1="2073.887" y1="2126.886" x2="2670.264" y2="2126.886" fill="none" stroke="#fff" stroke-miterlimit="10"/><line x1="1628.881" y1="3341.591" x2="2399.038" y2="3341.591" fill="none" stroke="#fff" stroke-miterlimit="10"/><line x1="1628.881" y1="3311.81" x2="2399.038" y2="3311.81" fill="none" stroke="#fff" stroke-miterlimit="10"/><line x1="1849.373" y1="3115.815" x2="2120.547" y2="3115.815" fill="none" stroke="#fff" stroke-miterlimit="10"/><line x1="1849.373" y1="3147.51" x2="2120.547" y2="3147.51" fill="none" stroke="#fff" stroke-miterlimit="10"/><line x1="1983.503" y1="2436.25" x2="1983.503" y2="2474.977" fill="none" stroke="#fff" stroke-miterlimit="10"/><line x1="1983.503" y1="2895.467" x2="1983.503" y2="2942.38" fill="none" stroke="#fff" stroke-miterlimit="10"/><line x1="1983.503" y1="2973.407" x2="1983.503" y2="3015.656" fill="none" stroke="#fff" stroke-miterlimit="10"/><line x1="1983.503" y1="3042.204" x2="1983.503" y2="3081.939" fill="none" stroke="#fff200" stroke-miterlimit="10" stroke-width="2.5"/><line x1="1983.503" y1="3151.902" x2="1983.503" y2="3198.693" fill="none" stroke="#fff200" stroke-miterlimit="10" stroke-width="2.5"/><line x1="1983.503" y1="3227.38" x2="1983.503" y2="3272.755" fill="none" stroke="#fff200" stroke-miterlimit="10" stroke-width="2.5"/><line x1="1983.503" y1="3344.807" x2="1983.503" y2="3392.13" fill="none" stroke="#fff200" stroke-miterlimit="10" stroke-width="2.5"/><line x1="1983.503" y1="3419.269" x2="1983.503" y2="3458.015" fill="none" stroke="#fff200" stroke-miterlimit="10" stroke-width="2.5"/><line x1="1983.503" y1="3480.656" x2="1983.503" y2="3518.241" fill="none" stroke="#fff200" stroke-miterlimit="10" stroke-width="2.5"/><line x1="1983.503" y1="3543.373" x2="1983.503" y2="3578.298" fill="none" stroke="#fff200" stroke-miterlimit="10" stroke-width="2.5"/><line x1="1983.862" y1="3578.053" x2="1556.032" y2="3578.053" fill="none" stroke="#fff200" stroke-miterlimit="10" stroke-width="2.5"/><line x1="1804.086" y1="3717.188" x2="1554.803" y2="3717.188" fill="none" stroke="#fff200" stroke-miterlimit="10"/><line x1="1804.067" y1="3788.49" x2="1554.784" y2="3788.49" fill="none" stroke="#fff200" stroke-miterlimit="10"/><line x1="1804.765" y1="3788.584" x2="1804.765" y2="3716.83" fill="none" stroke="#fff200" stroke-miterlimit="10"/><line x1="1554.717" y1="2264.26" x2="1554.717" y2="3975.789" fill="none" stroke="#fff200" stroke-miterlimit="10" stroke-width="2.5"/><line x1="2670.264" y1="2126.019" x2="2670.264" y2="3031.508" fill="none" stroke="#fff" stroke-miterlimit="10"/><line x1="1928.945" y1="2512.878" x2="1928.945" y2="2886.858" fill="none" stroke="#fff" stroke-miterlimit="10"/><line x1="1719.764" y1="2399.771" x2="2273.851" y2="2399.771" fill="none" stroke="#fff" stroke-miterlimit="10"/><line x1="1719.764" y1="2427.25" x2="2273.851" y2="2427.25" fill="none" stroke="#fff" stroke-miterlimit="10"/><text transform="translate(1853.8096 4074.3878)" fill="#fff" font-family="Arial-BoldMT, Arial" font-size="12" font-weight="700"><tspan x="0" y="0">Nature of Information Search</tspan></text><text transform="translate(1656.3667 4264.5617)" fill="#fff200" font-family="Arial-BoldMT, Arial" font-size="12" font-weight="700"><tspan x="0" y="0">ChatGPT Corroboration Synthesis to </tspan><tspan x="213.346" y="0" letter-spacing="-.074em">T</tspan><tspan x="219.785" y="0">arget Confidence Level</tspan></text><text transform="translate(1546.9668 4074.4679)" fill="#fff200" font-family="Arial-BoldMT, Arial" font-size="12" font-weight="700"><tspan x="0" y="0">Non-Factual, Corroborated Nature</tspan></text><text transform="translate(1441.0987 4074.4679)" fill="#fff" font-family="Arial-BoldMT, Arial" font-size="12" font-weight="700"><tspan x="0" y="0">Factual Nature</tspan></text><text transform="translate(1425.7906 4163.8453)" fill="#fff" font-family="Arial-BoldMT, Arial" font-size="12" font-weight="700"><tspan x="0" y="0">ChatGPT Navigation</tspan><tspan x="-5.104" y="14.4">to Source of</tspan><tspan x="64.898" y="14.4" letter-spacing="-.037em"> </tspan><tspan x="67.787" y="14.4">Authority</tspan></text><text transform="translate(1432.4317 4360.4868)" fill="#fff" font-family="Arial-BoldMT, Arial" font-size="12" font-weight="700"><tspan x="0" y="0">ChatGPT Navigate</tspan><tspan x="16.564" y="14.4">Find</tspan><tspan x="41.889" y="14.4" letter-spacing="-.037em"> </tspan><tspan x="44.777" y="14.4">Answer</tspan></text><text transform="translate(1581.7696 4163.8453)" fill="#fff200" font-family="Arial-BoldMT, Arial" font-size="12" font-weight="700"><tspan x="0" y="0">ChatGPT Latest Protocol</tspan><tspan x="5.016" y="14.4">on </tspan><tspan x="23.01" y="14.4" letter-spacing="-.055em">T</tspan><tspan x="29.678" y="14.4">ruth Corroboration</tspan></text><line x1="1400.142" y1="4053.849" x2="1759.133" y2="4053.849" fill="none" stroke="#fff" stroke-miterlimit="10"/><line x1="1400.142" y1="4086.469" x2="1759.133" y2="4086.469" fill="none" stroke="#fff" stroke-miterlimit="10"/><line x1="1838.327" y1="4070.159" x2="1749.164" y2="4070.159" fill="none" stroke="#fff" stroke-miterlimit="10"/><polygon points="1835.518 4066.456 1837.092 4070.159 1835.518 4073.862 1844.297 4070.159 1835.518 4066.456" fill="#fff"/><line x1="1482.445" y1="4085.996" x2="1482.445" y2="4146.449" fill="none" stroke="#fff" stroke-miterlimit="10"/><line x1="1482.445" y1="4191.958" x2="1482.445" y2="4342.581" fill="none" stroke="#fff" stroke-miterlimit="10"/><line x1="1482.445" y1="4384.355" x2="1482.445" y2="4899.417" fill="none" stroke="#fff" stroke-miterlimit="10"/><line x1="1554.784" y1="4000.583" x2="1554.784" y2="4052.713" fill="none" stroke="#fff200" stroke-miterlimit="10"/><line x1="1647.294" y1="4086.373" x2="1647.294" y2="4148.826" fill="none" stroke="#fff200" stroke-miterlimit="10" stroke-width="2.5"/><line x1="2280.447" y1="4314.562" x2="2280.447" y2="4340.713" fill="none" stroke="#fff200" stroke-miterlimit="10"/><line x1="2456.371" y1="4374.336" x2="2456.371" y2="4403.543" fill="none" stroke="#fff200" stroke-miterlimit="10"/><line x1="2273.994" y1="4377.732" x2="2158.522" y2="4402.524" fill="none" stroke="#fff200" stroke-miterlimit="10"/><line x1="2102.484" y1="4375.694" x2="2158.522" y2="4402.524" fill="none" stroke="#fff200" stroke-miterlimit="10"/><path d="M2204.371,4416.789c91.565-15.282,104.078,58.434,44.978,68.513" fill="none" stroke="#fff200" stroke-miterlimit="10"/><polygon points="2251.604 4481.181 2250.562 4485.067 2252.637 4488.515 2243.428 4486.072 2251.604 4481.181" fill="#fff200"/><rect x="2023.43" y="4702.392" width="878.217" height="64.529" fill="none" stroke="#fff200" stroke-miterlimit="10" stroke-width="2.5"/><line x1="2144.937" y1="4742.864" x2="2144.937" y2="4801.215" fill="none" stroke="#fff200" stroke-miterlimit="10"/><polygon points="2141.234 4798.406 2144.937 4799.98 2148.64 4798.406 2144.937 4807.185 2141.234 4798.406" fill="#fff200"/><line x1="1138.854" y1="5048.487" x2="1416.107" y2="5048.487" fill="none" stroke="#fff" stroke-miterlimit="10"/><line x1="1413.269" y1="5328.336" x2="444.786" y2="5328.336" fill="none" stroke="#fff200" stroke-miterlimit="10" stroke-width="2.5"/><line x1="444.786" y1="246.339" x2="444.786" y2="5329.411" fill="none" stroke="#fff200" stroke-miterlimit="10" stroke-width="2.5"/><line x1="445.341" y1="246.339" x2="929.125" y2="246.339" fill="none" stroke="#fff200" stroke-miterlimit="10" stroke-width="2.5"/><polygon points="922.103 255.597 926.036 246.339 922.103 237.081 944.049 246.339 922.103 255.597" fill="#fff200"/><path d="M2779.827,4033.557c.038.91-.205,2.869-.702,2.813l-3.784-.427c1.03-7.793-3.118-14.282-10.224-15.057-7.791-.851-13.897,4.67-13.298,12.585.563,7.449,7.129,12.389,15.818,10.541l.074,30.472c-3.768.496-8.673.561-12.333.128-7.377-11.962-18.579-18.879-21.677-32.762-4.094-18.348,3.355-37.075,18.162-47.379,15.285-10.636,36.211-10.666,51.478-.012,14.829,10.347,22.282,29.019,18.161,47.394-3.228,14.392-14.601,20.636-21.528,32.957l-12.427.01.002-30.792c8.234,1.41,14.465-2.208,15.725-9.566,1.101-6.425-3.165-13.168-10.394-13.724-6.802-.523-13.409,4.29-13.054,12.82Z" fill="#fff200"/><path d="M2900.219,4152.641c-10.812,15.714-58.727,18.913-78.954,2.78-3.991-3.183-4.619-8.93-.835-12.773,12.557-12.749,42.914-13.232,61.98-8.539,12.358,3.042,22.878,11.164,17.809,18.532Z" fill="#fff"/><path d="M2734.303,4142.111c14.843,13.477-24.587,32.273-64.732,20.064-4.514-1.373-8.788-3.9-12.299-6.732-4.328-3.49-4.576-9.435-.403-13.327,15.299-14.269,61.282-14.67,77.435-.005Z" fill="#fff"/><path d="M2789.948,4117.793c-8.536.347-17.122.37-25.123-.032-5.854-.294-8.029-7.063-7.925-11.509l.152-6.507c-5.521-.029-8.809-3.21-9.556-7.46-.787-4.479,2.833-9.822,8.108-9.821l44.016.011c4.863.001,8.474,4.721,8.184,8.898-.323,4.663-3.632,8.205-9.498,8.462l.009,6.375c.007,4.55-1.932,11.322-8.368,11.583Z" fill="#fff200"/><path d="M2809.942,4183.478l-64.444-.041c-.505-3.259-.479-5.618-.037-8.409l28.019.04-.027-37.478-4.773,3.932c-1.472,1.212-4.564,1.221-6.19-.816-.994-1.246-.377-3.971,1.113-5.463l10.672-10.689c1.962-1.965,4.696-1.964,6.66,0l10.679,10.679c1.493,1.493,2.08,4.244,1.065,5.546-1.345,1.725-4.801,1.961-6.145.804l-4.629-3.989-.142,37.443,28.007-.008.172,8.451Z" fill="#fff"/><path d="M2736.621,4162.847c2.823,6.655-.804,13.228-6.918,16.388-18.594,9.611-50.857,9.701-68.784-.388-6.119-3.443-8.729-9.596-6.663-16.281,21.839,14.686,59.897,14.931,82.365.281Z" fill="#fff"/><path d="M2900.855,4162.814c2.37,6.575-.73,13.029-7.214,16.414-18.517,9.67-50.693,9.621-68.676-.399-5.932-3.306-8.948-9.54-6.473-16.092,18.348,12.087,42.957,12.974,64.043,8.206,6.328-1.832,11.52-4.15,18.319-8.13Z" fill="#fff"/><path d="M2736.947,4204.237c2.061,6.549-.933,12.321-6.7,15.568-17.99,10.13-50.16,10.155-68.686.38-6.111-3.224-9.555-8.949-7.22-15.872,21.973,13.942,60.671,13.87,82.606-.076Z" fill="#fff"/><path d="M2736.354,4184.186c2.694,4.331.564,10.834-4.605,14.128-18.014,11.478-50.951,11.378-70.402,1.232-6.099-3.181-9.337-9.325-6.843-15.635,16.121,10.236,35.856,11.153,54.463,9.535,9.455-1.76,18.166-3.412,27.387-9.26Z" fill="#fff"/><path d="M2900.829,4184.026c3.426,10.158-5.779,16.519-16.82,19.603-17.296,4.83-35.579,4.641-52.544-1.248-9.659-3.353-15.555-9.032-13.147-18.353,22.758,13.539,59.936,13.63,82.511,0Z" fill="#fff"/><path d="M2900.747,4204.598c2.643,6.156-1.128,12.428-7.113,15.596-18.425,9.752-50.441,9.726-68.667-.394-5.787-3.213-8.712-9.107-6.74-15.561,19.1,12.006,43.339,11.977,64.563,7.94,6.095-1.778,11.151-3.902,17.958-7.58Z" fill="#fff"/><path d="M2779.776,4072.454c-.002.731-1.232,2.45-1.763,2.7-.706.333-2.574-1.485-2.577-2.767l-.062-25.407c-.002-.867,1.111-2.713,1.875-2.932.955-.274,2.594,1.711,2.591,2.848l-.064,25.558Z" fill="#fff"/><path d="M2789.7,4036.7c-1.144-.165-2.661-2.452-2.46-3.584.433-2.438,2.407-4.949,4.053-4.895,2.186.071,4.198,1.95,4.515,3.642.459,2.444-1.819,5.454-6.109,4.837Z" fill="#fff"/><path d="M2766.589,4036.005c-4.239,1.854-6.755-.486-7.141-3.512-.255-1.999,2.023-4.515,4.843-4.161,3.5.439,4.816,6.571,2.298,7.672Z" fill="#fff"/><path d="M2917.954,2258.162l-11.995.41-3.276,19.687c8.121,4.118,15.117,8.745,22.377,14.698l4.394-5.094,5.273,15.95c-36.039,39.878-95.704,46.316-139.169,15.871-43.818-30.693-57.836-89.472-32.283-136.824,25.239-46.768,81.618-67.469,131.51-47.982,49.188,19.212,76.992,72.477,63.664,124.538l-13.386-4.447,2.39-14.657-20.253-.03-.06,7.16c-.04,4.695-3.512,10.527-9.187,10.72ZM2885.663,2179.75c-4.741-14.743-13.208-35.447-28.885-38.113-15.873.9-25.715,23.347-30.029,38.152,19.517,6.437,39.481,6.476,58.914-.039ZM2813.434,2174.146c3.37-10.225,7.138-18.576,12.456-27.256-10.62,3.793-20.008,9.173-28.591,16.377,5.186,4.033,10.291,7.494,16.135,10.878ZM2914.791,2163.221c-8.86-7.54-18.086-12.741-28.262-16.176,5.456,9.126,9.187,17.314,12.254,27.009,5.682-3.14,10.824-6.47,16.009-10.833ZM2796.007,2208.008l10.385-.044,3.259-19.809c-8.139-4.273-15.755-9.1-22.492-14.937-12.957,15.024-20.509,33.315-22.189,52.782l20.28-.029.027-7.392c.021-5.799,4.38-10.544,10.73-10.571ZM2926.826,2216.889l.49,9.116,19.986-.064c-1.674-19.909-9.407-38.009-22.15-52.67-7.049,5.979-14.621,10.773-22.474,14.879l3.318,19.814,11.792.179c4.377.066,8.792,4.152,9.038,8.745ZM2891.453,2208.015l-2.341-14.37c-21.887,6.847-43.726,6.979-65.935-.015l-2.567,14.374,70.843.012ZM2832.665,2224.357c.636-1.319-.402-3.454-1.778-3.806-.957-.245-2.711,1.064-3.068,2.103l-4.574,13.313-4.513-13.41c-.28-.831-1.742-2.199-2.57-2.103-.691.08-2.04,1.273-2.303,2.034l-4.692,13.533-4.545-13.534c-.312-.93-2.11-2.379-2.89-2.024s-1.796,1.86-2.203,2.836l7.367,23.207,2.603,1.324c.603.307,1.926-1.465,2.182-2.207l4.527-13.142,4.752,13.426c.242.684,1.693,2.355,2.263,1.986l2.428-1.571,7.014-21.965ZM2872.822,2224.176c.478-1.308-.834-3.376-1.935-3.644-.831-.202-2.525.914-2.836,1.816l-4.727,13.698-4.562-13.618c-.277-.827-1.91-2.179-2.71-1.965-.666.178-1.913,1.448-2.161,2.17l-4.579,13.304-4.76-13.765c-.347-1.003-2.436-2.002-3.307-1.535-.746.4-1.711,2.42-1.454,3.228l6.96,21.888c.274.862,1.825,2.178,2.647,2.103.684-.062,2.008-1.211,2.273-1.973l4.662-13.432,4.803,13.821c.234.674,2.054,2.017,2.593,1.603l1.962-1.51,7.132-22.19ZM2913.277,2222.986c-.802-1.219-2.125-2.549-2.963-2.51-.698.033-2.02,1.346-2.254,2.029l-4.57,13.36-4.84-13.712c-.318-.901-2.041-1.883-2.679-1.644-.511.191-1.636,1.209-1.818,1.724l-4.798,13.637-4.462-13.267c-.348-1.033-2.276-2.535-3.124-2.065-.726.403-1.784,1.923-2.098,2.735l7.488,23.465,2.677,1.155c.502.217,1.706-1.457,1.885-1.969l4.677-13.35,4.808,13.636c.226.642,1.936,2.062,2.472,1.638l2.233-1.769,7.366-23.094ZM2795.072,2258.331c-4.171-.06-9.233-3.895-9.421-7.97l-.463-10.068-20.168-.025c1.551,19.205,8.928,37.622,22.152,52.723,6.984-5.718,14.535-10.702,22.466-14.827l-3.213-19.67-11.354-.163ZM2889.134,2272.735l2.315-14.255-70.789.003,2.453,14.307c21.41-6.928,43.977-7.07,66.021-.056ZM2864.943,2321.683c11.118-8.782,16.788-22.575,20.69-35.174-19.807-6.402-39.558-6.357-58.973.091,4.041,12.925,10.098,27.025,20.699,35,5.483,3.806,11.659,3.878,17.584.083ZM2825.76,2319.271c-5.218-8.582-8.995-17.052-12.345-27.044-5.844,3.382-10.815,6.7-16.017,10.891,8.693,7.265,17.371,12.409,28.361,16.153ZM2915.015,2303.103c-5.329-4.19-10.518-7.728-16.191-10.772-3.346,10.109-7.015,18.194-12.305,27.022,10.627-3.716,19.599-8.978,28.496-16.25Z" fill="#fff"/><path d="M2993.297,2332.411c-1.089,1.09-3.949,1.052-5.016-.016l-18.835-18.856c-1.295-1.297-4.282-.463-5.085,1.045l-7.029,13.207c-.564,1.06-2.277,2.581-3.372,2.621-1.529.055-3.212-1.458-3.783-3.175l-21.323-64.057c-.365-1.096.254-3.507,1.062-4.098s2.858-.6,4.142-.172l63.965,21.32c1.034.345,2.395,1.856,2.604,2.743s-.698,3.076-1.537,3.526l-13.981,7.505c-2.077,1.115-2.665,4.103-1.02,5.744l18.025,17.974c1.347,1.343,1.746,4.118.417,5.448l-9.234,9.243Z" fill="#fff200"/><path d="M1542.603,5456.44c-2.027,7.237.607,12.771,4.784,17.895,11.354,13.927,22.683,27.873,34.013,41.818.934,1.15,1.801,2.354,2.991,3.918-7.507,8.184-16.352,13.109-27.463,13.186-17.817.124-35.636.043-53.454.044-35.303.002-70.606.014-105.909-.006-17.415-.009-31.611-9.512-36.35-24.257-5.982-18.615-.958-36.735,14.051-46.519,5.175-3.373,11.945-5.976,18.015-6.036,48.953-.49,97.913-.289,146.871-.29.651,0,1.301.126,2.449.245ZM1426.231,5475.064v38.672c4.255,0,8.215.059,12.173-.023,2.155-.045,4.348-.118,6.451-.542,7.487-1.511,11.455-8.907,7.887-15.003-1.142-1.95-3.333-3.286-5.043-4.901,6.514-6.448,5.919-14.734-1.574-16.443-6.331-1.444-13.043-1.22-19.894-1.759ZM1483.002,5475.673c0,7.913.022,15.228-.007,22.542-.025,6.348-2.561,9.664-7.436,9.829-4.79.162-7.6-3.339-7.662-9.571-.056-5.665-.111-11.331-.137-16.996-.03-6.678-.278-6.873-7.661-5.274,0,8.183-.419,16.502.124,24.757.49,7.451,5.626,12.449,12.13,13.199,8.212.946,15.748-1.995,16.735-8.366,1.527-9.852,1.285-19.979,1.8-30.12h-7.888ZM1515.092,5513.2c-3.835-15.021,7.062-25.184,11.974-37.328-5.502-1.598-8.585.034-10.29,5.18-1.269,3.828-3.455,7.351-5.56,11.682-2.038-4.353-4.144-7.955-5.437-11.829-1.785-5.343-5.107-6.734-10.474-5.147,5.024,12.238,15.219,22.655,11.976,37.442h7.811Z" fill="#fff"/><path d="M1587.526,5523.804c6.407,7.646,12.814,15.292,19.221,22.937.504-.402,1.007-.805,1.511-1.207-5.541-7.36-10.883-14.88-16.662-22.048-13.792-17.106-27.817-34.024-41.67-51.081-1.548-1.906-2.863-4.103-3.823-6.362-2.07-4.869-.889-9.415,2.775-11.998,3.918-2.762,8.126-2.566,12.126,1.644,7.449,7.841,14.511,16.051,21.678,24.157,6.507,7.361,12.99,14.744,19.357,22.225,1.157,1.359,1.703,3.239,2.531,4.878.767-.592,1.535-1.184,2.302-1.777-4.303-6.195-12.173-12.34-3.921-19.931,6.775-6.232,13.209-2.324,18.625,4.126.854-8.35,3.682-12.774,8.747-11.939,4.905.808,9.435,3.89,13.896,5.869,1.196-7.364,6.268-9.445,14.08-4.437,12.4,7.949,21.9,18.785,30.101,30.904,4.655,6.878,7.3,14.374,9.074,22.454,1.678,7.644,4.46,15.045,6.994,23.331-13.737,11.31-28.482,23.496-43.328,35.558-.899.73-2.798,1.013-3.887.598-7.057-2.687-13.91-5.943-21.043-8.389-6.425-2.203-13.207-3.351-19.662-5.481-3.05-1.006-5.989-2.877-8.475-4.957-5.866-4.908-11.314-10.314-17.16-15.247-3.599-3.037-5.319-6.404-5.003-11.239.377-5.774.037-11.594.012-17.394-.007-1.569-.001-3.137-.001-4.706.536-.163,1.071-.327,1.607-.49Z" fill="#fff200"/><path d="M1570.372,5458.704c11.315,4.78,18.19,13.43,20.804,25.808-7.283-8.297-14.566-16.593-21.848-24.89.348-.306.696-.612,1.044-.919Z" fill="#fff200"/><path d="M1514.104,5436.534c1.927.926,3.872,1.818,5.777,2.786,3.823,1.944,7.713,3.785,11.374,6.001.89.539.999,2.369,1.468,3.605-1.155.236-2.561,1.017-3.423.618-5.534-2.559-10.983-5.311-16.361-8.185-.767-.41-1.373-1.826-1.373-2.776,0-1.068.773-2.136,1.21-3.204.443.384.885.769,1.328,1.153Z" fill="#fff"/><path d="M1559.03,5439.919c-.882-2.049-2.074-3.458-1.758-4.305,2.198-5.898,4.599-11.73,7.23-17.447.43-.935,2.32-1.198,3.535-1.772.308,1.301,1.215,2.83.822,3.865-2.053,5.412-4.381,10.723-6.751,16.007-.483,1.076-1.559,1.887-3.077,3.652Z" fill="#fff"/><path d="M1570.585,5450.936c-.964-.68-2.306-1.138-2.524-1.913-.229-.812.359-2.513,1.041-2.819,5.87-2.635,11.817-5.11,17.82-7.426.715-.276,2.407.447,2.741,1.141.353.734-.076,2.634-.681,2.917-5.973,2.789-12.053,5.348-18.398,8.099Z" fill="#fff"/><path d="M1544.708,5435.957c-.623.807-1.135,2.114-1.915,2.302-.83.2-2.529-.419-2.795-1.094-2.403-6.109-4.627-12.292-6.726-18.513-.199-.589.694-2.127,1.304-2.27.915-.214,2.711.139,2.952.731,2.479,6.09,4.72,12.276,7.181,18.844Z" fill="#fff"/><path d="M1433.342,5507.347v-10.05c3.06,0,5.825-.052,8.588.014,3.024.072,4.552,1.861,4.526,4.724-.026,2.889-1.144,5.209-4.551,5.297-2.755.072-5.514.015-8.562.015Z" fill="#fff"/><path d="M1433.455,5492.243v-10.785c3.744.637,7.2.906,10.364,2.013.696.244,1.007,4.774.376,5.089-3.125,1.561-6.626,2.371-10.74,3.683Z" fill="#fff"/></g><g id="Layer_2_-_Positions"><line x1="1140.113" y1="1130.493" x2="1565.918" y2="1285.584" fill="none" stroke="#fff" stroke-miterlimit="10"/><line x1="1565.601" y1="1285.584" x2="1842.634" y2="1285.584" fill="none" stroke="#fff" stroke-miterlimit="10"/><line x1="1642.31" y1="1351.652" x2="1874.588" y2="1351.652" fill="none" stroke="#fff" stroke-miterlimit="10"/><line x1="1640.703" y1="1463.302" x2="1872.981" y2="1463.302" fill="none" stroke="#fff" stroke-miterlimit="10"/><line x1="1642.31" y1="1410.79" x2="1874.588" y2="1410.79" fill="none" stroke="#fff" stroke-miterlimit="10"/><line x1="1641.747" y1="1285.584" x2="1641.747" y2="1499.758" fill="none" stroke="#fff" stroke-miterlimit="10"/><text transform="translate(1571.0591 1276.4611)" fill="#fff" font-family="Arial-BoldMT, Arial" font-size="12" font-weight="700"><tspan x="0" y="0">Problem-Product Narrative</tspan><tspan x="152.707" y="0" letter-spacing="-.037em"> </tspan><tspan x="155.596" y="0">Association (P2NA)</tspan></text><text transform="translate(1648.4617 1342.7898)" fill="#fff" font-family="Arial-BoldMT, Arial" font-size="12" font-weight="700"><tspan x="0" y="0">Problem-Solution Narrative</tspan><tspan x="155.361" y="0" letter-spacing="-.037em"> </tspan><tspan x="158.25" y="0">Association</tspan></text><text transform="translate(1666.2475 1456.2649)" fill="#fff" font-family="Arial-BoldMT, Arial" font-size="12" font-weight="700"><tspan x="0" y="0" letter-spacing="-.018em">W</tspan><tspan x="11.109" y="0">orkflow-Brand Narrative Share</tspan></text><text transform="translate(1647.8702 1402.4162)" fill="#fff" font-family="Arial-BoldMT, Arial" font-size="12" font-weight="700"><tspan x="0" y="0">Solution-Product Semantic</tspan><tspan x="154.008" y="0" letter-spacing="-.037em"> </tspan><tspan x="156.896" y="0">Association</tspan></text><circle cx="1903.543" cy="1245.608" r="29.617" fill="none" stroke="#fff" stroke-miterlimit="10" stroke-width="2"/><text transform="translate(1887.9912 1250.6196)" fill="#fff" font-family="Arial-BoldMT, Arial" font-size="14" font-weight="700"><tspan x="0" y="0">Blog</tspan></text></g></svg>