<?xml version="1.0" encoding="UTF-8"?>
<svg id="Layer_1" data-name="Layer 1" xmlns="http://www.w3.org/2000/svg" viewBox="0 0 4447.533 2824.848">
  <rect width="4447.533" height="2824.848" fill="#1a2f5a"/>
  <text transform="translate(588.772 173.352)" fill="#fff" font-family="Arial-BoldMT, Arial" font-size="12" font-weight="700"><tspan x="0" y="0">Day to day</tspan><tspan x="60.686" y="0" letter-spacing="-.037em"> </tspan><tspan x="63.574" y="0">Activities</tspan></text>
  <text transform="translate(720.606 245.003)" fill="#fff" font-family="Arial-BoldMT, Arial" font-size="12" font-weight="700"><tspan x="0" y="0">Leisure </tspan><tspan x="46.02" y="0" letter-spacing="-.018em">T</tspan><tspan x="53.133" y="0">ime</tspan></text>
  <text transform="translate(493.082 247.488)" fill="#fff" font-family="Arial-BoldMT, Arial" font-size="12" font-weight="700"><tspan x="0" y="0" letter-spacing="-.018em">W</tspan><tspan x="11.109" y="0">ork &amp; Routines</tspan></text>
  <text transform="translate(440.489 328.99)" fill="#fff" font-family="Arial-BoldMT, Arial" font-size="12" font-weight="700"><tspan x="0" y="0" letter-spacing="-.018em">W</tspan><tspan x="11.109" y="0">orkflow of</tspan><tspan x="-33.021" y="14.4">Image &amp; </tspan><tspan x="16.995" y="14.4" letter-spacing="-.018em">V</tspan><tspan x="24.782" y="14.4">ideo Creation</tspan></text>
  <text transform="translate(635.657 331.51)" fill="#fff" font-family="Arial-BoldMT, Arial" font-size="12" font-weight="700"><tspan x="0" y="0" letter-spacing="-.018em">W</tspan><tspan x="11.109" y="0">orkflow of</tspan><tspan x="3.548" y="14.4">Reasoning</tspan></text>
  <text transform="translate(636.882 406.974)" fill="#fff" font-family="Arial-BoldMT, Arial" font-size="12" font-weight="700"><tspan x="0" y="0">AI adoption</tspan><tspan x="-21.343" y="14.4">Reasoning &amp; Logic</tspan></text>
  <text transform="translate(436.972 410.106)" fill="#fff" font-family="Arial-BoldMT, Arial" font-size="12" font-weight="700"><tspan x="0" y="0">AI adoption</tspan><tspan x="-34.245" y="14.4">Image &amp; </tspan><tspan x="15.771" y="14.4" letter-spacing="-.018em">V</tspan><tspan x="23.558" y="14.4">ideo Creation</tspan></text>
  <text transform="translate(243.404 329.146)" fill="#fff" font-family="Arial-BoldMT, Arial" font-size="12" font-weight="700"><tspan x="0" y="0" letter-spacing="-.018em">W</tspan><tspan x="11.109" y="0">orkflow of</tspan><tspan x="-17.669" y="14.4" letter-spacing="-.018em">W</tspan><tspan x="-6.56" y="14.4">riting &amp; Reading</tspan></text>
  <text transform="translate(240.803 409.95)" fill="#fff" font-family="Arial-BoldMT, Arial" font-size="12" font-weight="700"><tspan x="0" y="0">AI adoption</tspan><tspan x="-38.232" y="14.4" letter-spacing="-.018em">W</tspan><tspan x="-27.123" y="14.4">riting &amp; Summarization</tspan></text>
  <text transform="translate(801.814 323.338)" fill="#fff" font-family="Arial-BoldMT, Arial" font-size="12" font-weight="700"><tspan x="0" y="0" letter-spacing="-.018em">W</tspan><tspan x="11.109" y="0">orkflow of</tspan><tspan x="4.881" y="14.4">Questions</tspan></text>
  <text transform="translate(797.767 404.61)" fill="#fff" font-family="Arial-BoldMT, Arial" font-size="12" font-weight="700"><tspan x="0" y="0">AI adoption</tspan><tspan x="-31.342" y="14.4">Questions &amp; Solutions</tspan></text>
  <text transform="translate(783.362 479.749)" fill="#fff200" font-family="Arial-BoldMT, Arial" font-size="12" font-weight="700"><tspan x="0" y="0">ChatGPT adoption</tspan><tspan x="-11.675" y="14.4">Questions &amp; Solutions</tspan></text>
  <text transform="translate(529.542 556.68)" fill="#fff" font-family="Arial-BoldMT, Arial" font-size="12" font-weight="700"><tspan x="0" y="0">Personal</tspan><tspan x="-3.993" y="14.4">Questions</tspan></text>
  <text transform="translate(777.096 556.127)" fill="#fff" font-family="Arial-BoldMT, Arial" font-size="12" font-weight="700"><tspan x="0" y="0">Reasoning</tspan><tspan x="4.67" y="14.4">Question</tspan></text>
  <text transform="translate(611.856 557.148)" fill="#fff" font-family="Arial-BoldMT, Arial" font-size="12" font-weight="700"><tspan x="0" y="0">Knowledge / Research</tspan><tspan x="38.019" y="14.4">Question</tspan></text>
  <text transform="translate(889.88 556.836)" fill="#fff" font-family="Arial-BoldMT, Arial" font-size="12" font-weight="700"><tspan x="0" y="0">Solution</tspan><tspan x="-2.007" y="14.4">Question</tspan></text>
  <text transform="translate(980.945 556.992)" fill="#fff" font-family="Arial-BoldMT, Arial" font-size="12" font-weight="700"><tspan x="0" y="0">Guidance</tspan><tspan x="1.339" y="14.4">Question</tspan></text>
  <text transform="translate(1084.3529 556.6809)" fill="#fff" font-family="Arial-BoldMT, Arial" font-size="12" font-weight="700"><tspan x="0" y="0">Decision</tspan><tspan x="-.993" y="14.4">Question</tspan></text>
  <text transform="translate(1227.7584 564.3558)" fill="#fff" font-family="Arial-BoldMT, Arial" font-size="12" font-weight="700"><tspan x="0" y="0">Nature of Question</tspan></text>
  <text transform="translate(850.402 646.846)" fill="#fff200" font-family="Arial-BoldMT, Arial" font-size="12" font-weight="700"><tspan x="0" y="0">User</tspan><tspan x="26.684" y="0" letter-spacing="-.037em"> </tspan><tspan x="29.572" y="0">Asks Question</tspan></text>
  <text transform="translate(1203.084 646.846)" fill="#fff" font-family="Arial-BoldMT, Arial" font-size="12" font-weight="700"><tspan x="0" y="0">Question Narrative</tspan></text>
  <g>
    <circle cx="640.741" cy="107.98" r="41.045" fill="#1a2f5a" stroke="#fff" stroke-miterlimit="10"/>
    <path d="M624.552,96.948c-.005-.266-.358-.674-.312-1.234-.159-.136-.318-.258-.498-.367l-.039-.78c-.13.134-.149.279-.181.433l-.117.562-.265.21c-.033.209-.068.413-.159.603-.065.136-.18.273-.209.422-.048.245-.053.492-.051.741.003.3-.075.565-.159.846l-.271.915c-.055.185.019.371.028.545l.036.677c-.197-.017-.239.164-.35.253-.156.125-.408.076-.601.053-.155-.342-.087-.449.167-.699.074-.152.124-.309.165-.471.074-.036.103-.108.102-.204l-.033-2.309c-.001-.074.062-.203.094-.263.221-.407.11-.707.235-1.129l-.365-.19c.032-.347.05-.674.118-1.009.079-.393.158-.773.178-1.176.026-.522.026-.826.334-1.324.043-.069.098-.105.099-.196.002-.324.074-.646.016-.964-.105-.57-.432-.991-.458-1.576-.021-.459.011-.628-.355-.909-.209-.161-.352-.339-.464-.579-.151-.326-.275-.664-.442-.981-.067-.127-.132-.219-.152-.371l-.155-1.154-.04-.732c-.003-.051-.034-.185-.081-.191-.061-.008-.163-.01-.235-.011-.031.397.025.95-.159,1.232-.15.002-.319.006-.455-.013-.103-.052-.116-.244-.112-.338l-.236-.024c-.049-.005-.082-.111-.103-.174-.071-.002-.224-.015-.285-.068-.073-.197-.102-.409-.119-.61l-.232-.018c-.102-.008-.164-.143-.152-.219.021-.129.112-.193.244-.19l.163.003c.023-.146.039-.298.097-.423.031-.066.214-.06.287-.041.026-.17.137-.251.311-.242.012-.146.044-.292.141-.411.104-.024.277-.036.386,0,.073.024.138.199.144.275l.07.842h.292c.01-.114.07-.169.172-.178l.367-.031c.149-.013.256.062.295.214h4.858c.077,0,.153-.133.211-.152.296-.099.512-.099.691.152l.429.002c.023-.351.041-.686.115-1.046.179-.013.343-.033.505.011.11.03.115.26.116.337.08.009.181.019.227.047.042.026.065.118.091.195.08-.035.282-.056.306.062l.078.386.263.014c.061.003.139.114.146.172s-.043.203-.103.209l-.284.028c-.018.192-.038.401-.111.59-.035.09-.211.099-.287.082-.012.034-.043.143-.078.165-.056.035-.184.038-.267.043.006.094-.002.314-.129.338-.132.024-.299.016-.441.014-.179-.297-.126-.839-.155-1.236l-.319.008c-.151.004-.163.146-.16.256.019.577.034,1.134-.073,1.699l-.101.385c-.168.232-.283.45-.337.733-.085.447-.374.81-.699,1.117l-.252.239c-.036.659-.204,1.26-.553,1.816-.04.064-.064.194-.059.269l.076,1.207c.215.294.327.638.348,1.017.046.821.113,1.608.214,2.433-.07.094-.215.121-.307.184-.123.085-.054.308-.005.422.073.17-.006.377.047.54.107.312.216.608.2.948l-.078,1.674c-.01.224.134.44.237.623l.222.396c.059.105.042.288.035.424-.411.085-.828.172-.8-.15.007-.079-.077-.144-.156-.185-.066-.648.127-1.069-.102-1.718-.097-.275-.191-.561-.24-.854-.051-.306-.01-.597-.016-.925ZM624.032,86.255c.275.142.389.442.344.742-.021.142.208.177-.053.538l-.01.242c-.038.171-.054.294-.021.469.294-.124.315-.42.791-.497.095-.015.197-.107.218-.201.076-.351.294-.618.602-.8.109-.065.172-.137.176-.27.01-.431.104-.835.265-1.232.094-.232.13-.474.099-.71-.183.005-.306-.033-.424-.144h-4.689c-.026.084-.085.141-.154.15l-.211.028c-.046.534.234.876.317,1.34l.116.645c.494.238.688.601.954,1.048.303.086.556.22.715.509.032.059.096.112.182.157.007-.122.011-.217-.01-.312l-.083-.378c-.016-.07-.253-.332-.029-.457-.009-.129-.043-.311-.011-.456.087-.395.587-.582.918-.411Z" fill="#fff"/>
    <g>
      <path d="M640.287,112.14c-.625-.004-1.23-.011-1.848-.05-.487-.031-.963-.081-1.444-.138v1.18c-.001.064-.055.115-.095.154-.144.12-.317.161-.502.161h-.646c-.216,0-.422-.05-.602-.174-.037-.035-.074-.105-.089-.162v-3.221s-.186-.031-.186-.031c-.046-.183-.097-.418-.047-.59.022-.074.079-.123.157-.135-.108-.41-.17-.82-.212-1.241-.009-.091-.01-.18,0-.273.009-.084.172-.153.286-.16-.049-.046-.082-.102-.059-.161.06-.157.123-.308.197-.459.064-.132.14-.248.237-.359.167-.19.397-.296.641-.365l-.006-.121c-.132,0-.261-.003-.397-.025-.079-.166-.119-.338-.113-.521.047-.096.302-.1.445-.101.168,0,.329,0,.495.023.045.087.058.167.075.265l.467-.949.548-1.009.459-.794.1.081c.028-.029.065-.069.109-.075.357-.049.707-.073,1.067-.082l.548-.013.412-.006.428-.022h.922s2.051.005,2.051.005l1.907.047.813.061c.073.005.136.043.187.087.031-.034.062-.063.098-.081l.306.534c.413.714.796,1.436,1.145,2.183l.015.025s.007-.006.01-.014l.061-.243.378-.023c.195-.012.386.007.575.056.008.183-.018.355-.091.518-.018.041-.079.072-.124.073l-.288.002s-.018.01-.016.009l.006.119c.204.052.392.132.549.271.262.233.447.656.538.995l-.074.065c.095.023.181.045.253.11l-.002.578c0,.177-.027.343-.061.516l-.107.448s-.006.024-.002.025l.03.008c.222.057.137.485.09.712l-.186.04-.015.241-.002,2.996c0,.149-.338.315-.572.315l-.881-.002c-.116,0-.225-.056-.326-.106-.08-.04-.155-.128-.155-.224v-1.136c-.001-.009-.003-.018-.007-.018l-.024.003c-.747.081-1.492.143-2.246.155l-1.838.03h-2.563s-.781-.005-.781-.005ZM641.571,105.661h1.958s.485-.287.485-.287c.129-.076.268-.113.416-.117-.003-.073.013-.157-.012-.226l-.096-.138-.106-.375c-.017-.061.003-.134-.006-.199-.014-.095-.116-.165-.033-.4.045-.128.134-.226.264-.271l.204-.07c.099-.021.201-.011.294.02.229.076.375.285.362.527-.009.18.113.348-.096.524l-.057.206-.018.401c.212.095.421.182.643.255.056.018.114.032.159.068.063.049.11.107.162.168.495.035.978.079,1.468.147.006,0,.012-.005.015-.013-.196-.445-.396-.879-.631-1.305l-.598-1.086-.282-.046c-.48-.039-.962-.076-1.448-.076l-4.117-.002-.439.006-.732.027c-.318.012-.624.042-.942.084l-.649,1.194c-.216.398-.403.803-.589,1.222l.777-.089.857-.078.754-.361c.087-.042.158-.089.234-.147.028-.022.048-.042.053-.081.03-.231.091-.249-.123-.505-.166-.198-.196-.455-.089-.69.06-.132.155-.234.288-.297.16-.075.333-.106.511-.084.054.006.099.034.133.074l.25.293c.043.05.055.106.056.168l.162.157c.028.027.026.078-.001.103l-.062.056.025.342c.002.026.011.067-.002.088-.011.018-.044.039-.069.045l-.213.043c-.076.016-.129.079-.133.153l-.006.101c.145.185.329.251.547.314.161.046.309.097.47.161ZM636.248,106.066c.049.008.09.006.129-.019.029-.018.048-.054.051-.095l-.18.031v.083ZM648.492,106.07l.002-.089-.181-.029c-.002.054.034.11.094.113l.086.005ZM637.003,108.821c.237-.121.369-.376.343-.633-.036-.344-.34-.591-.681-.548-.266.033-.474.226-.537.486-.057.234.034.473.216.62s.439.187.66.075ZM647.924,108.87c.356.055.668-.19.707-.541.022-.194-.038-.379-.173-.515-.132-.133-.317-.204-.511-.178-.213.028-.4.151-.491.347-.088.189-.077.408.025.586.096.167.249.272.442.302Z" fill="#fff"/>
      <path d="M648.492,106.07l-.086-.005c-.06-.003-.096-.059-.094-.113l.181.029-.002.089Z" fill="#fff"/>
      <path d="M636.248,106.066v-.083s.18-.031.18-.031c-.003.041-.022.077-.051.095-.039.025-.08.027-.129.019Z" fill="#fff"/>
    </g>
    <path d="M661.963,100.783c-.077.35-.082.694-.053,1.039.013.148-.057.254-.174.325-.16.097-.334.173-.529.144-.185-.104-.295-.301-.308-.511l.249-1.237-.011-.428c.032-.219-.027-.426-.062-.643l-.314-1.956c-.066-.409-.003-.799.061-1.198l.045-.557-.294-.068-.063-1.256-.116-1.773c-.037-.563.006-1.104.116-1.651-.218-.061-.414-.115-.624-.207.24-.742.497-1.433.776-2.142.265-.673.163-1.469-.144-2.114-.018-.038-.054-.083-.082-.096s-.108-.008-.14.003c-.541.203-1.087.301-1.655.368-.22.026-.402.072-.626.014-.164-.043-.344-.083-.518-.102l-1.101-.118c-.078-.008-.197-.041-.25-.088-.062-.136-.056-.28-.053-.419-.452.107-.883.011-1.318-.102-.012-.176-.183-.068-.372-.154-.031-.129-.239-.09-.206-.188.01-.03.053-.073.078-.103.03-.034.003-.141.135-.161l.515-.079c.17-.026.31-.044.492-.103l-.251-.124c-.157-.077-.241-.262-.177-.314.082-.065.263.123.521.201.256.078.525.211.639.425.067.126.145.037.22.045l1.218.126c.245.025.484.019.724.044.087.009.135.02.22-.018.161-.071.37-.057.524-.137.186-.097.365-.189.576-.123l.207-.127.416-.249.129-.229c.036-.064.12-.137.196-.138l.693-.005.049-.288c.103-.601.192-1.189.247-1.798.017-.186.062-.359.127-.525.056-.142.168-.206.287-.287l.347-.236c.168-.114.352-.08.536-.053.167.024.32.04.463.146.216.159.365.379.453.636.106.31.163.622.193.952.054.591.108,1.168.255,1.752l.691.292c.067.028.098.15.123.219.072.464.068.92.016,1.389.08.262.143.514.096.786-.01.1.004.196.065.28l1.27-1.82c.047-.068.123-.104.202-.096l.951.124c.022.009.068.029.066.047l-.012.086-.654.908c.092.126.103.264.066.398.017.033.064.099.05.127l-.06.115-.121.22c-.03.054-.083.113-.138.134l-.288.107c.001.196-.012.366-.084.545l-.696.198-.899.269c-.125.037-.239.019-.37-.047.172.681.318,1.348.416,2.042l-.124.058c.051.48.027.939-.01,1.427l-.228,2.984-.414.115-.01.417c.048.495.059.969-.009,1.466l-.288,2.097c-.028.207-.017.428,0,.634.017.203.098.396.143.593.111.494.458.689.445,1.14-.245.102-.688-.006-.937-.121-.225-.105-.065-.499-.31-.845l-.013.406c0,.018-.057.055-.071.045-.014-.01-.043-.048-.044-.069l-.044-.526c-.009-.102-.058-.194-.105-.28-.177-.318.041-.539.203-.812.143-.241-.053-1.55-.135-2.019-.075-.431-.075-.842-.023-1.278.032-.268.014-.532-.062-.781l-.682-.006c-.144-.001-.215.706-.202,1.034.014.382-.02.742-.063,1.123l-.176,1.526c-.022.191-.013.402.075.568.111.209.181.41.126.658ZM663.815,85.289c0-.324-.128-.754-.444-.947.001.113.031.196.071.3.046.121.031.289-.085.36-.121.074-.197.165-.222.303l-.09.512-.271-.588c-.07-.151-.118-.239-.265-.34-.135-.092-.344-.385-.343-.588,0-.014-.013-.018-.049-.032-.139.095-.2.259-.181.428l.062.545.166-.127.129-.1.476,1.315.35,1.21c.296-.536.517-.968.49-1.586l-.04-.917c.113.091.153.152.246.252ZM656.309,86.381c.052.026.148.029.21.034.145-.216.195-.486.097-.721-.048-.115-.143-.204-.273-.185.225.124.216.449.104.698l-.274-.087c.01.092.034.211.136.261ZM666.221,88.391l-.095-.181c-.009-.017-.047-.034-.077-.032.038.155.101.287.193.426.149-.069.241-.191.225-.374l-.246.161Z" fill="#fff"/>
    <g>
      <path d="M669.541,131.982h-9.8s-.261,0-.261,0h-4.552c.033-.026.102-.06.113-.094l.055-.166.01.208.034-.202.014.188.007.012.014-.081.016.05c.002.005.007.01.011.005l.028-.037.013.079.016-.078.033.098.091-.063c-.138-.101-.251-.236-.258-.418-.014-.316.242-.593.562-.597.165-.002.297.084.41.202l.197-.045c.178-.165.407-.192.634-.102l-.048-.037c-.014-.01-.026-.047-.025-.066v-.099c-.172.01-.412-.042-.412-.155l.002-.467c0-.062.043-.139.107-.159l.552-.175c.037-.099.101-.212.213-.212l.69-.002c.069,0,.125.065.148.12l.054.128c.006.013.041.047.049.036l.034-.048c.036-.051.109-.077.181-.064.047.008.105.06.146.103l.119.023c.054.01.048.168.079.174l.09.019.007.564c0,.022-.019.074-.034.096l-.348.021c-.012,0-.041.016-.043.027-.009.047.085.022.107.101.21-.03.411-.102.588-.244l.014-.444c.002-.061.018-.132.063-.175l1.125-1.083,1.41-1.358c-.036-.063-.014-.106.037-.14l.076-.052c.018-.012.061.017.084.033l.735-.723c.121-.119.091-.303-.034-.412-.128-.112-.27-.191-.421-.281-.077-.046-.179-.136-.143-.239.033-.093.097-.186.152-.264.072-.101.184-.117.299-.089l.319.077c.135-.172.243-.33.353-.511l.399-.653c.067-.11.086-.225.085-.353l-.01-.91c-.004-.315.034-.624.136-.919.035-.1.036-.186-.037-.269-.06-.068-.152-.078-.22-.004-.038.041-.103.088-.156.106-.072.024-.13-.034-.146-.099l-.173-.086c-.013-.028-.031-.061-.046-.072-.018-.013-.062.013-.085.024l-.053.025c-.012.005-.038-.031-.041-.044l-.046-.245-.08-.105c-.216.123-.447.216-.695.263-.031-.019-.06-.043-.06-.063-.005-.142.327-.406.482-.561l-.159-.553c-.015-.053.011-.118.052-.149.285-.214.6-.405.951-.458.093-.014.149.033.192.102l.268.433c.234-.031.445-.056.675-.059.05,0,.13.034.136.083-.086.118-.219.19-.347.249l-.233.108c.045.278.243.476.489.607l.09.01c.562.326.876,1.008.934,1.643.066.711.083,1.416.056,2.13-.004.099-.021.185-.007.28l.059.382-.106.059c.003.175-.03.335-.111.488-.089.167-.135.343-.135.535v.52s-.045.251-.045.251c-.014.076-.015.173.024.237.057.093.069.195.044.3-.014.06.146.07.168.136.009.029.002.088-.005.129.082.017.16.052.216.117l.455.531.443.51c.173.199.085.339.232.352.098.009.152.055.216.124.052.056.13.109.196.149.092.056.113.147.169.219.08.101.236.136.283.273-.118.214-.282.422-.482.556-.027-.017-.064-.035-.072-.027-.117.202-.261.37-.404.534.054-.028.111-.088.145-.109l.033-.02s-.005.013-.008.018l-.085.118.31-.147c.026,0,.026.006.005.017-.007.026-.012.035-.007.033l.036-.017.144-.093-.184.25.257-.138-.044.109-.012.03s.004-.002.011-.007l.172-.129-.085.132.302-.157-.104.102c-.008.011-.032.044-.016.028l.469-.251.022.013-.272.244c.077-.027.115-.068.192-.12l-.083.137.264-.119-.092.124c-.011.02-.011.027.007.01.1-.075.171-.136.283-.19l-.121.143h.029c.061-.052.116-.082.194-.09l-.159.12c.106-.025.173-.084.252-.152l.016.012-.129.139.258-.084-.117.082-.026.008.013.023.268-.098.133-.043c.024-.008.05,0,.017.018l-.169.145.25-.097-.089.097c-.016.01-.019.016.002.013.137-.059.257-.131.39-.14l-.235.14.194-.026-.066.051c-.027.007-.017.013.005.014l.198-.068c.015.005.059.019.029.011l-.086.055.421.028-.336.015ZM661.444,131.713c-.05.059-.075.084-.107.144l.247-.151-.111.138.02.013.238-.202-.078.183.216-.15-.079.157.282-.196-.094.185.305-.197c-.059.091-.108.134-.142.223l.374-.249c-.052.109-.197.161-.158.257l.26-.193-.095.179c.045-.013.076-.025.097-.041l.207-.153-.026.162c.062-.094.092-.194.184-.251.142-.087.348.005.522-.129l.297-.227c-.065-.098-.042-.199.025-.284.165-.209-.048-.352-.053-.552l-.019-.831c-.006-.243-.024-.459-.102-.691-.044-.133-.087-.287-.071-.431l.123-1.084.106-1.163-.06-.131.029-.348c.013-.158.035-.303.015-.457l-.767.636.139.136c.073.072.158.144.193.241.062.167,0,.334-.124.454l-.974.948-.811.796-1.193,1.181,1.836-.756c.167-.069.656-.006.831.072.066.029.067.127.043.185-.02.048-.071.083-.138.114l.011,1.472c0,.098-.048.247-.151.275l-2.431.675-.175.2.117-.053-.006.045.052-.04c.009-.006.031.02.033.022l.163-.102-.089.133.098-.045c.022-.01.056-.021.08-.025l.123-.074-.122.151.289-.154-.057.1.13-.073-.076.106.222-.116-.082.1-.002.021.132-.104-.017.081.14-.082.004.044.226-.099ZM662.081,127.527c-.007.007-.029.047-.018.052l.046.023,1.035-1.001c.118-.114.14-.279.006-.388l-.324-.261c-.067-.007-.146.02-.216.055l.228.204c.14.125.157.317.058.474-.079.125-.177.232-.291.328l-.523.514ZM659.866,129.809l2.107-2.076-.114-.021-2.286,2.221c.118-.029.197-.068.293-.123ZM665.441,131.81l.359-.136-.17.189.313-.094c-.046.064-.093.098-.152.138.086-.008.161-.063.187-.146.065-.206.27-.152.302-.233.074-.187.115-.385.103-.583-.007-.121-.131-.174-.234-.182-.161-.012-.155-.335-.4-.62l-.501-.586-.47-.494.037.802c.01.214.042.427.009.639-.022.138-.025.26.048.384.074.126.082.264.038.407-.018.058.014.164.001.217-.03.078-.052.14-.037.213l.036-.061-.021.16.338-.228c-.064.087-.121.137-.162.222l.334-.155-.118.132c.134-.039.21-.12.33-.14l-.17.154ZM659.964,131.825c.239-.212.239-.596.014-.812-.198-.19-.526-.194-.73-.011-.235.21-.24.587-.016.808.196.193.52.205.733.016ZM656.666,131.856c.249.006.42-.182.42-.417,0-.211-.135-.384-.349-.413-.133-.018-.271.023-.361.12-.082.088-.122.217-.107.346.024.207.179.358.397.363ZM655.623,131.684c-.107-.104-.127-.225-.05-.345.078-.121.212-.181.362-.214-.217-.175-.531-.08-.634.162-.07.163-.017.339.101.448.125.115.31.149.459.066l-.238-.116Z" fill="#fff"/>
      <path d="M654.416,131.725l-.042.192c-.001.005.005.031.006.036.001.008.03-.01.035-.019l.098-.198-.021.204.074-.157.024.162.078-.113c.002.068-.037.097.026.141.036-.09.052-.17.066-.267l.026.241.201-.21-.085.157c-.005.009-.016.032-.012.04l.031.049h-.934c.094-.064.146-.12.228-.212l-.031.14.006.045c.001.01.055.004.062-.005l.164-.225Z" fill="#fff"/>
      <path d="M656.666,131.856c-.219-.005-.374-.156-.397-.363-.015-.129.025-.258.107-.346.091-.097.228-.138.361-.12.214.029.349.202.349.413,0,.235-.171.422-.42.417ZM656.626,131.325c-.072.027-.095.115-.058.178.031.054.104.08.17.045.049-.026.079-.099.057-.152-.028-.069-.097-.098-.168-.071Z" fill="#fff"/>
      <path d="M659.964,131.825c-.213.19-.537.177-.733-.016-.224-.22-.219-.597.016-.808.205-.183.532-.179.73.011.225.216.225.599-.014.812ZM659.567,130.996c-.244.022-.404.244-.378.465.027.23.23.389.456.369.234-.02.403-.223.379-.464-.022-.214-.213-.391-.456-.37Z" fill="#fff"/>
      <path d="M655.623,131.684l.238.116c-.15.083-.334.049-.459-.066-.118-.108-.17-.285-.101-.448.103-.242.418-.337.634-.162-.151.034-.285.094-.362.214-.077.12-.057.241.05.345Z" fill="#fff"/>
      <path d="M656.626,131.325c.072-.027.14.002.168.071.022.053-.008.126-.057.152-.066.036-.139.009-.17-.045-.037-.063-.013-.151.058-.178Z" fill="#fff"/>
      <path d="M659.567,130.996c.243-.022.434.156.456.37.025.241-.144.444-.379.464-.226.02-.428-.139-.456-.369-.026-.221.134-.443.378-.465ZM659.575,131.297c-.074.019-.104.09-.081.159.02.059.089.098.155.073.058-.021.096-.093.075-.152-.021-.062-.08-.098-.149-.08Z" fill="#fff"/>
      <path d="M659.575,131.297c.069-.018.128.018.149.08.02.06-.017.131-.075.152-.066.024-.135-.014-.155-.073-.023-.068.008-.14.081-.159Z" fill="#fff"/>
    </g>
    <path d="M630.682,126.022c.884.011,1.338.731,1.266.836-.018.027-.107.072-.146.067l-.99-.125.565.56.524.508.122.236c.053.101.049.323.056.458-.004.042-.095.099-.161.136.194.164.294.37.249.629-.038.218-.188.398-.418.51l1.54.045-19.149.002-.017-.024.926-.02,1.687-.015.299-.025,3.468-.008c-.312-.245-1.168-.805-1.134-.948.008-.033.059-.075.095-.103.172-.141.327-.271.537-.345.161-.192.291-.399.403-.623l.326-.583c.167-.3.362-.562.62-.789.121-.107.226-.219.332-.358-.247-.009-.443-.01-.679-.055l.355-2.013.155-.899c.086-.501.237-.971.465-1.427-.119-.08-.159-.171-.181-.293-.115-.639-.217-1.264-.237-1.913-.011-.347.082-.654.348-.878.145-.122.261-.294.246-.486-.307.033-.551-.225-.661-.532l-.088.15c-.004-.089-.008-.17-.032-.224-.235-.091-.41-.359-.328-.609.089-.27.582-.419.775-.198.3-.399.72-.418,1.194-.315.458.1.57.555.471.998.096.13.141.243.083.416l-.104.308c-.034.101-.138.157-.241.146l-.306-.032-.158.469c.184.348.373.674.632.965.168.188.4.504.39.7l-.043.832-.043.091c-.009.019.034.055.054.075.344.179.676.336,1.036.491.389.048.564-.303.905-.025.317.258-.076.401.112.618l.834.963.996,1.099.05-.018-.921-1.008c-.026-.029-.065-.104-.056-.138s.056-.074.093-.107l.22-.192c.317-.074.606-.168.898-.305l.698-.328c.109-.051.207-.088.327-.061l1.718.383-.322.663-.231.389c-.287.412-.605.766-.954,1.146l.466.514c.283-.326.912-.484.964-.192.009.051-.02.173-.066.197l-.258.135c-.067.035-.107.109-.067.186.093.181.279.291.489.294ZM622.036,117.999c-.161-.088-.281-.225-.405-.383.044.187.189.376.405.383ZM627.715,127.175l.364-.12c.118-.039.181-.136.171-.271l-.282.013c-.15.007-.285-.011-.371-.152-.428-.702-.8-1.44-1.049-2.231-.043-.137-.022-.256-.142-.359-.218-.187.058-.422-.012-.513l-.152-.197-.35-.388-.52-.538c-.049-.051-.117-.152-.178-.166-.158.034-.317.076-.449.008-.135-.07-.26-.128-.407-.151l-.552-.086.24,1.401.406,2.467c.024.146-.149.094-.297.189.081.203-.038.384-.015.575.083.675.238,1.329.403,1.984.075.298.297.495.554.619.266.128.516.224.82.232.064.002.15.081.141.14-.007.045-.062.091-.132.163h1.215c-.196-.148-.385-.287-.456-.54-.085-.308-.005-.666.232-.886.191-.178.452-.217.694-.263l-.114-.598c-.03-.156.092-.283.239-.332ZM623.927,129.797c.035-.087.018-.128.034-.209l.067-.344c-.034-.23-.118-.44-.232-.641l-.106-.187c-.215-.382-.462-.979-.468-1.403-.005-.319-.019-.611-.069-.925l-.409-.026c-.012.286-.187.418-.374.57-.289.237-.53.523-.785.795l-.314.334c-.236.251-.458.498-.651.786-.072.108-.105.261-.046.375l.242.469c.086.166.572.159.503.407h2.607ZM629.238,127.299l1.452-.123-.336-.386-.377.118.192.161-.386-.037c-.205-.02-.402.123-.544.267ZM628.699,127.134c-.125-.017-.22-.011-.295.038-.03.02-.059.105-.043.134s.096.055.128.043c.103-.036.164-.122.209-.215ZM630.856,128.883c.165-.273.428-.397.744-.356.027-.119.004-.241-.029-.339.005-.05.026-.181-.012-.217l-.214-.203c-.451.454-.955.807-1.545,1.041-.418.12-.83.139-1.287.127-.002.368-.178.659-.524.857h3.144c-.334-.237-.442-.574-.276-.911ZM628.377,128.832c-.007-.196-.118-.362-.275-.452l.275.452ZM627.453,128.717l.086-.258c-.269.003-.418.206-.466.437.163.036.328-.024.38-.179ZM631.465,128.777c-.19-.013-.34.129-.358.31.194.028.333-.104.358-.31ZM627.965,129.342c.048-.058.098-.208.098-.311-.08-.027-.196-.016-.255.043-.03.23.09.348.156.268ZM631.76,129.511c.17-.143.198-.335.109-.508-.079.037-.206.128-.215.206-.011.102.051.217.106.301ZM627.529,129.228c-.165-.23-.449-.138-.449-.139.003.299.349.488.63.391l-.181-.252ZM631.593,129.554l-.241-.291c-.038-.046-.177-.039-.257-.02-.002.092.069.217.145.265.106.067.22.088.353.046Z" fill="#fff"/>
  </g>
  <line x1="520.794" y1="531" x2="1182.207" y2="531" fill="none" stroke="#fff" stroke-miterlimit="10"/>
  <line x1="520.794" y1="587.37" x2="1182.207" y2="587.37" fill="none" stroke="#fff" stroke-miterlimit="10"/>
  <g>
    <line x1="1174.403" y1="560.356" x2="1212.835" y2="560.356" fill="none" stroke="#fff" stroke-miterlimit="10"/>
    <polygon points="1211.376 565.342 1220.011 560.356 1211.376 555.37 1211.376 565.342" fill="#fff"/>
  </g>
  <line x1="840.325" y1="685.196" x2="840.325" y2="587.37" fill="none" stroke="#fff" stroke-miterlimit="10"/>
  <g>
    <line x1="974.403" y1="642.846" x2="1187.61" y2="642.846" fill="none" stroke="#fff" stroke-miterlimit="10"/>
    <polygon points="1184.801 646.549 1186.375 642.846 1184.801 639.142 1193.58 642.846 1184.801 646.549" fill="#fff"/>
  </g>
  <g>
    <line x1="1712.768" y1="1262.281" x2="1657.383" y2="1296.513" fill="none" stroke="#fff" stroke-miterlimit="10"/>
    <line x1="1649.376" y1="1337.341" x2="1649.376" y2="1641.047" fill="none" stroke="#fff" stroke-miterlimit="10"/>
    <line x1="1649.376" y1="1080.89" x2="1649.376" y2="1296.148" fill="none" stroke="#fff" stroke-miterlimit="10"/>
    <line x1="3094.329" y1="1080.89" x2="3094.329" y2="1296.148" fill="none" stroke="#fff" stroke-miterlimit="10"/>
    <line x1="3169.453" y1="1453.81" x2="3444.604" y2="1453.81" fill="none" stroke="#fff" stroke-miterlimit="10"/>
    <line x1="2306.352" y1="1564.757" x2="2306.352" y2="1611.887" fill="none" stroke="#fff" stroke-miterlimit="10"/>
    <line x1="1649.376" y1="1080.871" x2="3094.329" y2="1080.871" fill="none" stroke="#fff" stroke-miterlimit="10"/>
    <line x1="1651.436" y1="1641.047" x2="2001.204" y2="1641.047" fill="none" stroke="#fff" stroke-miterlimit="10"/>
    <line x1="1731.45" y1="1262.281" x2="1786.835" y2="1296.513" fill="none" stroke="#fff" stroke-miterlimit="10"/>
    <g>
      <line x1="856.855" y1="2068.452" x2="2333.955" y2="2068.452" fill="none" stroke="#fff200" stroke-miterlimit="10"/>
      <polygon points="2331.146 2072.155 2332.719 2068.452 2331.146 2064.749 2339.924 2068.452 2331.146 2072.155" fill="#fff200"/>
    </g>
    <line x1="856.855" y1="2069.46" x2="856.855" y2="1127.977" fill="none" stroke="#fff" stroke-miterlimit="10"/>
    <line x1="621.029" y1="771.313" x2="621.029" y2="2148.24" fill="none" stroke="#fff200" stroke-miterlimit="10"/>
    <g>
      <path d="M2971.368,1310.614c-676.22-188.543-967.525-158.515-1067.322,9.056" fill="none" stroke="#fff" stroke-miterlimit="10"/>
      <polygon points="2969.604 1306.362 2970.16 1310.347 2967.679 1313.514 2977.118 1312.219 2969.604 1306.362" fill="#fff"/>
    </g>
    <text transform="translate(3846.4161 758.1886)" fill="#00aeef" font-family="Arial-BoldMT, Arial" font-size="12" font-weight="700"><tspan x="0" y="0">ChatGPT</tspan><tspan x="-56.353" y="14.4">Umbrella Response Protocol</tspan></text>
    <text transform="translate(4118.9952 758.3442)" fill="#00aeef" font-family="Arial-BoldMT, Arial" font-size="12" font-weight="700"><tspan x="0" y="0">ChatGPT</tspan><tspan x="-36.006" y="14.4">Latest </tspan><tspan x="2.672" y="14.4" letter-spacing="-.055em">T</tspan><tspan x="9.34" y="14.4">raining Model</tspan></text>
    <text transform="translate(815.502 760.253)" fill="#fff" font-family="Arial-BoldMT, Arial" font-size="12" font-weight="700"><tspan x="0" y="0">ChatGPT</tspan><tspan x="-85.33" y="14.4">Reasoning - “How Should I Respond?”</tspan></text>
    <text transform="translate(814.897 886.75)" fill="#fff" font-family="Arial-BoldMT, Arial" font-size="12" font-weight="700"><tspan x="0" y="0">ChatGPT in</tspan><tspan x="-59.464" y="14.4">Knowledge of Possible</tspan><tspan x="71.886" y="14.4" letter-spacing="-.037em"> </tspan><tspan x="74.774" y="14.4">Answers</tspan></text>
    <text transform="translate(815.605 706.652)" fill="#fff" font-family="Arial-BoldMT, Arial" font-size="12" font-weight="700"><tspan x="0" y="0">ChatGPT</tspan><tspan x="-51.665" y="14.4">Understanding of Question</tspan></text>
    <text transform="translate(821.896 831.184)" fill="#fff" font-family="Arial-BoldMT, Arial" font-size="12" font-weight="700"><tspan x="0" y="0">ChatGPT</tspan><tspan x="-65.678" y="14.4">Planning of Evidence Collection</tspan></text>
    <text transform="translate(826.745 939.424)" fill="#fff" font-family="Arial-BoldMT, Arial" font-size="12" font-weight="700"><tspan x="0" y="0">ChatGPT</tspan><tspan x="-35.024" y="14.4">Retrieval of Evidence</tspan></text>
    <text transform="translate(337.89 774.653)" fill="#fff" font-family="Arial-BoldMT, Arial" font-size="12" font-weight="700"><tspan x="0" y="0">ChatGPT General Knowledge</tspan></text>
    <text transform="translate(379.52 721.053)" fill="#fff" font-family="Arial-BoldMT, Arial" font-size="12" font-weight="700"><tspan x="0" y="0">User Specific Memory</tspan></text>
    <text transform="translate(1059.5328 2428.7565)" fill="#fff" font-family="Arial-BoldMT, Arial" font-size="12" font-weight="700"><tspan x="0" y="0">User Confidence in</tspan><tspan x="5.892" y="14.4">ChatGPT</tspan><tspan x="57.226" y="14.4" letter-spacing="-.037em"> </tspan><tspan x="60.114" y="14.4">Answer</tspan></text>
    <text transform="translate(1065.7703 2693.3427)" fill="#fff" font-family="Arial-BoldMT, Arial" font-size="12" font-weight="700"><tspan x="0" y="0">User</tspan><tspan x="26.684" y="0" letter-spacing="-.037em"> </tspan><tspan x="29.572" y="0">Adoption of</tspan><tspan x="-.346" y="14.4">ChatGPT</tspan><tspan x="50.988" y="14.4" letter-spacing="-.037em"> </tspan><tspan x="53.877" y="14.4">Answer</tspan></text>
    <text transform="translate(1037.8563 2534.9652)" fill="#fff200" font-family="Arial-BoldMT, Arial" font-size="12" font-weight="700"><tspan x="0" y="0">Recommended Pathway(s)</tspan></text>
    <text transform="translate(1127.5276 2610.3644)" fill="#fbb040" font-family="Arial-BoldMT, Arial" font-size="12" font-weight="700"><tspan x="0" y="0">Friction to</tspan><tspan x="58.658" y="0" letter-spacing="-.037em"> </tspan><tspan x="61.547" y="0">Adoption</tspan></text>
    <text transform="translate(732.5085 1008.7161)" fill="#fff" font-family="Arial-BoldMT, Arial" font-size="12" font-weight="700"><tspan x="0" y="0">Factual</tspan><tspan x="42.012" y="0" letter-spacing="-.037em"> </tspan><tspan x="44.9" y="0">Answer</tspan></text>
    <text transform="translate(1090.1297 1010.6598)" fill="#fff" font-family="Arial-BoldMT, Arial" font-size="12" font-weight="700"><tspan x="0" y="0">Nature of </tspan><tspan x="56.004" y="0" letter-spacing="-.055em">T</tspan><tspan x="62.672" y="0">ruth</tspan></text>
    <text transform="translate(763.9698 1100.455)" fill="#fff" font-family="Arial-BoldMT, Arial" font-size="12" font-weight="700"><tspan x="0" y="0">Answer Sufficient </tspan><tspan x="104.684" y="0" letter-spacing="-.009em">W</tspan><tspan x="115.904" y="0">ithin Heuristic </tspan><tspan x="6.173" y="14.4">Knowledge of Common</tspan><tspan x="140.165" y="14.4" letter-spacing="-.037em"> </tspan><tspan x="143.054" y="14.4">Answers</tspan></text>
    <text transform="translate(1119.8301 1100.4551)" fill="#fff" font-family="Arial-BoldMT, Arial" font-size="12" font-weight="700"><tspan x="0" y="0">Answer Requires Further</tspan><tspan x="45.337" y="14.4">Evidence</tspan></text>
    <text transform="translate(1116.8185 1148.7651)" fill="#fff" font-family="Arial-BoldMT, Arial" font-size="12" font-weight="700"><tspan x="0" y="0">Externlal Search Required</tspan></text>
    <text transform="translate(1200.2761 1186.1986)" fill="#fff" font-family="Arial-BoldMT, Arial" font-size="12" font-weight="700"><tspan x="0" y="0" letter-spacing="-.018em">W</tspan><tspan x="11.109" y="0">eb Saerch</tspan></text>
    <text transform="translate(1044.7121 1234.2365)" fill="#fff" font-family="Arial-BoldMT, Arial" font-size="12" font-weight="700"><tspan x="0" y="0">Source(s) of</tspan><tspan x="70.008" y="0" letter-spacing="-.037em"> </tspan><tspan x="72.896" y="0">Authority</tspan><tspan x="2.774" y="14.4">(Establisher of </tspan><tspan x="89.458" y="14.4" letter-spacing="-.055em">T</tspan><tspan x="96.126" y="14.4">ruth)</tspan></text>
    <text transform="translate(1666.2937 1239.8886)" fill="#fff" font-family="Arial-BoldMT, Arial" font-size="12" font-weight="700"><tspan x="0" y="0">Navigation to Credible</tspan><tspan x="-9.331" y="14.4">Sources of Corroboration</tspan></text>
    <text transform="translate(1595.2187 1312.8255)" fill="#fff" font-family="Arial-BoldMT, Arial" font-size="12" font-weight="700"><tspan x="0" y="0">ChatGPT Heuristic</tspan><tspan x="22.339" y="14.4">Navigation</tspan></text>
    <text transform="translate(1759.1061 1312.6697)" fill="#fff" font-family="Arial-BoldMT, Arial" font-size="12" font-weight="700"><tspan x="0" y="0" letter-spacing="-.018em">W</tspan><tspan x="11.109" y="0">eb Search for Credible</tspan><tspan x="5.569" y="14.4">Corroboration Source </tspan></text>
    <text transform="translate(1983.3502 1296.5129)" fill="#fff" font-family="Arial-BoldMT, Arial" font-size="11" font-weight="700"><tspan x="0" y="0">Signals of Established</tspan><tspan x="2.965" y="13.2">Credibility /</tspan><tspan x="62.863" y="13.2" letter-spacing="-.037em"> </tspan><tspan x="65.511" y="13.2">Authority</tspan></text>
    <text transform="translate(2282.7511 1357.8496)" fill="#fff" font-family="Arial-BoldMT, Arial" font-size="11" font-weight="700"><tspan x="0" y="0">Example:</tspan><tspan x="-49.194" y="13.2">Billboard Magazine in Music</tspan></text>
    <text transform="translate(2722.1083 1499.8393)" fill="#fff" font-family="Arial-BoldMT, Arial" font-size="11" font-weight="700"><tspan x="0" y="0">Emerging Source of</tspan><tspan x="-8.245" y="13.2">Credible Corroboration</tspan></text>
    <text transform="translate(2286.3124 1398.6073)" fill="#fff" font-family="Arial-BoldMT, Arial" font-size="11" font-weight="700"><tspan x="0" y="0">Subject:</tspan><tspan x="6.109" y="13.2">Music</tspan></text>
    <text transform="translate(2554.9373 1453.6491) rotate(15.3288)" fill="#fff" font-family="Arial-BoldMT, Arial" font-size="9" font-weight="700"><tspan x="0" y="0">Patterns of Reference x </tspan><tspan x="103.039" y="0" letter-spacing="-.074em">V</tspan><tspan x="108.374" y="0">olume</tspan></text>
    <text transform="translate(2231.849 1540.3634)" fill="#fff" font-family="Arial-BoldMT, Arial" font-size="11" font-weight="700"><tspan x="0" y="0">Higher Confidence of Billboard </tspan><tspan x="-12.539" y="13.2">as Credible Source of Corroboration</tspan></text>
    <text transform="translate(2095.933 1446.3913)" fill="#fff" font-family="Arial-BoldMT, Arial" font-size="11" font-weight="700"><tspan x="0" y="0">Participant:</tspan><tspan x="3.663" y="13.2">Musicians</tspan></text>
    <text transform="translate(2180.0875 1446.3913)" fill="#fff" font-family="Arial-BoldMT, Arial" font-size="11" font-weight="700"><tspan x="0" y="0">Participant:</tspan><tspan x="-7.646" y="13.2">Record Labels</tspan></text>
    <text transform="translate(2276.4901 1446.3913)" fill="#fff" font-family="Arial-BoldMT, Arial" font-size="11" font-weight="700"><tspan x="0" y="0">Participant:</tspan><tspan x="3.051" y="13.2">Producers</tspan></text>
    <text transform="translate(2366.329 1448.558)" fill="#fff" font-family="Arial-BoldMT, Arial" font-size="11" font-weight="700"><tspan x="0" y="0">Participant:</tspan><tspan x="-6.424" y="13.2">Music</tspan><tspan x="24.75" y="13.2" letter-spacing="-.037em"> </tspan><tspan x="27.398" y="13.2" letter-spacing="-.018em">A</tspan><tspan x="35.143" y="13.2">wards</tspan></text>
    <text transform="translate(2454.8314 1448.5578)" fill="#fff" font-family="Arial-BoldMT, Arial" font-size="11" font-weight="700"><tspan x="0" y="0">Participant:</tspan><tspan x="13.138" y="13.2">Critics</tspan></text>
    <text transform="translate(3464.9747 1453.8102)" fill="#fff" font-family="Arial-BoldMT, Arial" font-size="12" font-weight="700"><tspan x="0" y="0">ChatGPT Detects</tspan><tspan x="-10.664" y="14.4">High-Credibility User</tspan></text>
    <text transform="translate(1221.2162 1234.2365)" fill="#fff" font-family="Arial-BoldMT, Arial" font-size="12" font-weight="700"><tspan x="0" y="0">Sources of Corroboration</tspan><tspan x="-35.654" y="14.4">(High-Confidence Corroborated </tspan><tspan x="147.674" y="14.4" letter-spacing="-.055em">T</tspan><tspan x="154.342" y="14.4">ruth)</tspan></text>
    <text transform="translate(1124.4943 1593.227)" fill="#fff" font-family="Arial-BoldMT, Arial" font-size="12" font-weight="700"><tspan x="0" y="0">First-Party Dependent</tspan><tspan x="19.679" y="14.4">Nature of </tspan><tspan x="75.683" y="14.4" letter-spacing="-.055em">T</tspan><tspan x="82.351" y="14.4">ruth</tspan></text>
    <text transform="translate(1090.5197 774.6527)" fill="#fff" font-family="Arial-BoldMT, Arial" font-size="12" font-weight="700"><tspan x="0" y="0">Nature of</tspan><tspan x="52.67" y="0" letter-spacing="-.037em"> </tspan><tspan x="55.559" y="0">Answer</tspan></text>
    <text transform="translate(897.4989 1002.488)" fill="#fff" font-family="Arial-BoldMT, Arial" font-size="12" font-weight="700"><tspan x="0" y="0">Non-factual, </tspan><tspan x="-34.781" y="14.4">High-Confidence</tspan><tspan x="61.213" y="14.4" letter-spacing="-.037em"> </tspan><tspan x="64.102" y="14.4">Answer</tspan></text>
    <g>
      <line x1="3686.998" y1="763.437" x2="3775.822" y2="763.437" fill="none" stroke="#00aeef" stroke-miterlimit="10"/>
      <polygon points="3689.807 767.141 3688.234 763.437 3689.807 759.734 3681.028 763.437 3689.807 767.141" fill="#00aeef"/>
    </g>
    <g>
      <line x1="1079.146" y1="771.313" x2="965.959" y2="771.313" fill="none" stroke="#fff" stroke-miterlimit="10"/>
      <polygon points="1076.337 767.61 1077.91 771.313 1076.337 775.016 1085.116 771.313 1076.337 767.61" fill="#fff"/>
    </g>
    <g>
      <line x1="3974.602" y1="764.437" x2="4074.681" y2="764.437" fill="none" stroke="#00aeef" stroke-miterlimit="10"/>
      <polygon points="3977.411 768.141 3975.838 764.437 3977.411 760.734 3968.632 764.437 3977.411 768.141" fill="#00aeef"/>
    </g>
    <g>
      <line x1="4221.2" y1="766.482" x2="4299.289" y2="766.482" fill="none" stroke="#00aeef" stroke-miterlimit="10"/>
      <polygon points="4224.009 770.185 4222.436 766.482 4224.009 762.779 4215.231 766.482 4224.009 770.185" fill="#00aeef"/>
    </g>
    <line x1="1035.811" y1="1215.203" x2="1380.681" y2="1215.203" fill="none" stroke="#fff" stroke-miterlimit="10"/>
    <text transform="translate(2396.6581 1949.974)" fill="#fff" font-family="Arial-BoldMT, Arial" font-size="12" font-weight="700"><tspan x="0" y="0">x Repetition</tspan></text>
    <text transform="translate(3209.4904 1946.3783)" fill="#fff" font-family="Arial-BoldMT, Arial" font-size="10" font-weight="700"><tspan x="0" y="0">Lack of Similar Narrative(s)</tspan><tspan x="36.135" y="12">x Repetition</tspan></text>
    <text transform="translate(3325.9643 1668.0021) rotate(-42.3044)" fill="#fff" font-family="Arial-BoldMT, Arial" font-size="10" font-weight="700"><tspan x="0" y="0">Potential Higher </tspan><tspan x="79.453" y="0" letter-spacing="-.018em">W</tspan><tspan x="88.711" y="0">eighting</tspan><tspan x="24.08" y="12">of Corroboration</tspan></text>
    <text transform="translate(2968.3658 1656.3996) rotate(-72.6211)" fill="#fff" font-family="Arial-BoldMT, Arial" font-size="12" font-weight="700"><tspan x="0" y="0">x Repetition</tspan></text>
    <text transform="translate(2358.3905 2073.1999)" fill="#fff200" font-family="Arial-BoldMT, Arial" font-size="12" font-weight="700"><tspan x="0" y="0">High Cofidence Response</tspan></text>
    <text transform="translate(3139.7384 2238.2211)" fill="#fff200" font-family="Arial-BoldMT, Arial" font-size="12" font-weight="700"><tspan x="0" y="0">ChatGPT Unable to</tspan><tspan x="-19.459" y="14.4">Provide Sufficient</tspan><tspan x="82.559" y="14.4" letter-spacing="-.037em"> </tspan><tspan x="85.447" y="14.4">Answer</tspan></text>
    <text transform="translate(2353.5948 2236.8918)" fill="#fff200" font-family="Arial-BoldMT, Arial" font-size="12" font-weight="700"><tspan x="0" y="0">Higher Cofidence Response</tspan></text>
    <text transform="translate(2397.6241 2137.2405)" fill="#fff" font-family="Arial-BoldMT, Arial" font-size="12" font-weight="700"><tspan x="0" y="0">User Feedback</tspan></text>
    <text transform="translate(2377.2975 2166.757)" fill="#fff" font-family="Arial-BoldMT, Arial" font-size="12" font-weight="700"><tspan x="0" y="0">Resposne Refinement</tspan></text>
    <text transform="translate(2169.7457 1641.0465)" fill="#fff" font-family="Arial-BoldMT, Arial" font-size="12" font-weight="700"><tspan x="0" y="0" letter-spacing="-.074em">V</tspan><tspan x="7.113" y="0">oice of</tspan><tspan x="-40.113" y="14.4">Credible Corroborator</tspan></text>
    <text transform="translate(2034.6949 1692.1571)" fill="#fff" font-family="Arial-BoldMT, Arial" font-size="12" font-weight="700"><tspan x="0" y="0">User Question</tspan><tspan x="-4.351" y="14.4">Narrative Exists</tspan></text>
    <text transform="translate(2148.6935 1692.1571)" fill="#fff" font-family="Arial-BoldMT, Arial" font-size="12" font-weight="700"><tspan x="0" y="0">Similar Question</tspan><tspan x="-1.679" y="14.4">Narrative(s) Exist</tspan></text>
    <text transform="translate(2278.9869 1692.1569)" fill="#fff" font-family="Arial-BoldMT, Arial" font-size="12" font-weight="700"><tspan x="0" y="0">Similar Question</tspan><tspan x="-23.007" y="14.4">Narrative(s) Do Not Exist</tspan></text>
    <text transform="translate(2085.1852 1752.329)" fill="#fff" font-family="Arial-BoldMT, Arial" font-size="12" font-weight="700"><tspan x="0" y="0">ChatGPT Scans</tspan><tspan x="12.999" y="14.4">Responses</tspan></text>
    <text transform="translate(2066.1398 1813.8839)" fill="#fff" font-family="Arial-BoldMT, Arial" font-size="12" font-weight="700"><tspan x="0" y="0">ChatGPT Scans Patterns</tspan><tspan x="-6.674" y="14.4">of Narratives in Responses</tspan></text>
    <g>
      <text transform="translate(2113.4701 1870.5512)" fill="#fff" font-family="Arial-BoldMT, Arial" font-size="12" font-weight="700"><tspan x="0" y="0">“ABC is the best answer b/c XYZ”</tspan></text>
      <text transform="translate(2322.2294 1870.7067)" fill="#fff" font-family="Arial-BoldMT, Arial" font-size="12" font-weight="700"><tspan x="0" y="0">x Similar Narrative Repetition</tspan></text>
      <text transform="translate(2500.7638 1870.5505)" fill="#fff" font-family="Arial-BoldMT, Arial" font-size="12" font-weight="700"><tspan x="0" y="0">— (Counter Narrative x Repetition)</tspan></text>
      <text transform="translate(2709.2548 1870.5505)" fill="#fff" font-family="Arial-BoldMT, Arial" font-size="12" font-weight="700"><tspan x="0" y="0" xml:space="preserve">=  Confidence Level</tspan></text>
    </g>
    <g>
      <text transform="translate(2114.4891 1981.465)" fill="#fff" font-family="Arial-BoldMT, Arial" font-size="12" font-weight="700"><tspan x="0" y="0">“ABC is the best answer b/c XYZ”</tspan></text>
      <text transform="translate(2323.2484 1981.6205)" fill="#fff" font-family="Arial-BoldMT, Arial" font-size="12" font-weight="700"><tspan x="0" y="0">x Similar Narrative Repetition</tspan></text>
      <text transform="translate(2501.7828 1981.4643)" fill="#fff" font-family="Arial-BoldMT, Arial" font-size="12" font-weight="700"><tspan x="0" y="0">— (Counter Narrative x Repetition)</tspan></text>
      <text transform="translate(2710.2738 1981.4643)" fill="#fff" font-family="Arial-BoldMT, Arial" font-size="12" font-weight="700"><tspan x="0" y="0" xml:space="preserve">=  Confidence Level</tspan></text>
    </g>
    <g>
      <text transform="translate(2115.3177 2010.6047)" fill="#fff" font-family="Arial-BoldMT, Arial" font-size="12" font-weight="700"><tspan x="0" y="0">“GHI is the best answer b/c RST”</tspan></text>
      <text transform="translate(2322.076 2010.7602)" fill="#fff" font-family="Arial-BoldMT, Arial" font-size="12" font-weight="700"><tspan x="0" y="0">x Similar Narrative Repetition</tspan></text>
      <text transform="translate(2500.6105 2010.6039)" fill="#fff" font-family="Arial-BoldMT, Arial" font-size="12" font-weight="700"><tspan x="0" y="0">— (Counter Narrative x Repetition)</tspan></text>
      <text transform="translate(2709.1014 2010.6039)" fill="#fff" font-family="Arial-BoldMT, Arial" font-size="12" font-weight="700"><tspan x="0" y="0" xml:space="preserve">=  Confidence Level</tspan></text>
    </g>
    <g>
      <text transform="translate(2321.057 1895.3825)" fill="#fff" font-family="Arial-BoldMT, Arial" font-size="12" font-weight="700"><tspan x="0" y="0">x Similar Narrative Repetition</tspan></text>
      <text transform="translate(2499.5914 1895.2262)" fill="#fff" font-family="Arial-BoldMT, Arial" font-size="12" font-weight="700"><tspan x="0" y="0">— (Counter Narrative x Repetition)</tspan></text>
      <text transform="translate(2709.0824 1895.2262)" fill="#fff" font-family="Arial-BoldMT, Arial" font-size="12" font-weight="700"><tspan x="0" y="0" xml:space="preserve">=  Confidence Level</tspan></text>
      <text transform="translate(2111.0927 1895.3053)" fill="#fff" font-family="Arial-BoldMT, Arial" font-size="12" font-weight="700"><tspan x="0" y="0">“DEF is the best answer b/c UVW”</tspan></text>
    </g>
    <text transform="translate(2219.4889 1315.8982)" fill="#fff" font-family="Arial-BoldMT, Arial" font-size="12" font-weight="700"><tspan x="0" y="0">Nature of Corroboration Source: </tspan><tspan x="-25.107" y="14.4">High-Confidence Subject Matter</tspan><tspan x="156.902" y="14.4" letter-spacing="-.037em"> </tspan><tspan x="159.791" y="14.4">Authority</tspan></text>
    <text transform="translate(2999.108 1320.9676)" fill="#fff" font-family="Arial-BoldMT, Arial" font-size="12" font-weight="700"><tspan x="0" y="0">Nature of Corroboration Source: </tspan><tspan x="45.773" y="14.4" letter-spacing="-.074em">V</tspan><tspan x="52.887" y="14.4">oice of Humans</tspan></text>
    <text transform="translate(2026.9039 1872.5942)" fill="#fff" font-family="Arial-BoldMT, Arial" font-size="12" font-weight="700"><tspan x="0" y="0" letter-spacing="-.018em">V</tspan><tspan x="7.787" y="0">isible</tspan><tspan x="-10.119" y="14.4">Narratives</tspan></text>
    <text transform="translate(2028.0819 1984.984)" fill="#fff" font-family="Arial-BoldMT, Arial" font-size="12" font-weight="700"><tspan x="0" y="0" letter-spacing="-.018em">V</tspan><tspan x="7.787" y="0">isible</tspan><tspan x="-10.119" y="14.4">Narratives</tspan></text>
    <text transform="translate(2289.9242 1752.4843)" fill="#fff" font-family="Arial-BoldMT, Arial" font-size="12" font-weight="700"><tspan x="0" y="0">No Scannable</tspan><tspan x="7.664" y="14.4">Responses</tspan></text>
    <rect x="2001.204" y="1611.887" width="878.217" height="314.261" fill="none" stroke="#fff" stroke-miterlimit="10"/>
    <line x1="2001.204" y1="1730.04" x2="2879.421" y2="1730.04" fill="none" stroke="#fff" stroke-miterlimit="10"/>
    <line x1="2001.204" y1="1781.365" x2="2879.421" y2="1781.365" fill="none" stroke="#fff" stroke-miterlimit="10"/>
    <rect x="2001.204" y="1611.887" width="878.217" height="426.174" fill="none" stroke="#fff" stroke-miterlimit="10"/>
    <rect x="2001.204" y="2037.196" width="878.217" height="64.529" fill="none" stroke="#fff" stroke-miterlimit="10"/>
    <rect x="2001.204" y="2100.859" width="878.217" height="94.763" fill="none" stroke="#fff" stroke-miterlimit="10"/>
    <rect x="2001.204" y="2195.621" width="878.217" height="69.391" fill="none" stroke="#fff" stroke-miterlimit="10"/>
    <g>
      <line x1="1636.501" y1="1240.949" x2="1415.116" y2="1240.949" fill="none" stroke="#fff200" stroke-miterlimit="10"/>
      <polygon points="1633.692 1237.246 1635.266 1240.949 1633.692 1244.653 1642.471 1240.949 1633.692 1237.246" fill="#fff200"/>
    </g>
    <g>
      <line x1="1079.146" y1="1007.467" x2="1030.765" y2="1007.467" fill="none" stroke="#fff" stroke-miterlimit="10"/>
      <polygon points="1076.337 1003.764 1077.91 1007.467 1076.337 1011.17 1085.116 1007.467 1076.337 1003.764" fill="#fff"/>
    </g>
    <line x1="1191.514" y1="1157.194" x2="1191.514" y2="1215.203" fill="none" stroke="#fff" stroke-miterlimit="10"/>
    <line x1="856.855" y1="1031.194" x2="856.855" y2="1080.382" fill="none" stroke="#fff" stroke-miterlimit="10"/>
    <line x1="856.855" y1="1033.02" x2="1183.326" y2="1085.716" fill="none" stroke="#fff" stroke-miterlimit="10"/>
    <g>
      <line x1="2163.776" y1="1319.67" x2="1904.046" y2="1319.67" fill="none" stroke="#fff" stroke-miterlimit="10"/>
      <polygon points="2160.967 1315.967 2162.541 1319.67 2160.967 1323.373 2169.746 1319.67 2160.967 1315.967" fill="#fff"/>
    </g>
    <g>
      <line x1="2702.562" y1="1499.262" x2="2529.102" y2="1451.715" fill="none" stroke="#fff" stroke-miterlimit="10"/>
      <polygon points="2700.832 1494.948 2701.37 1498.935 2698.874 1502.09 2708.319 1500.84 2700.832 1494.948" fill="#fff"/>
    </g>
    <g>
      <line x1="2702.521" y1="1502.261" x2="2525.971" y2="1545.544" fill="none" stroke="#fff" stroke-miterlimit="10"/>
      <polygon points="2698.911 1499.333 2701.321 1502.555 2700.675 1506.527 2708.319 1500.84 2698.911 1499.333" fill="#fff"/>
    </g>
    <line x1="2534.58" y1="1429.192" x2="2071.708" y2="1429.192" fill="none" stroke="#fff" stroke-miterlimit="10"/>
    <line x1="2529.102" y1="1524.54" x2="2066.23" y2="1524.54" fill="none" stroke="#fff" stroke-miterlimit="10"/>
    <line x1="2534.58" y1="1474.583" x2="2071.708" y2="1474.583" fill="none" stroke="#fff" stroke-miterlimit="10"/>
    <line x1="2529.102" y1="1562.235" x2="2066.23" y2="1562.235" fill="none" stroke="#fff" stroke-miterlimit="10"/>
    <polyline points="2106.015 1887.629 2084.568 1887.629 2084.568 1866.182 2106.015 1866.182" fill="none" stroke="#fff" stroke-miterlimit="10"/>
    <polyline points="2828.031 1978.056 2858.58 1978.056 2858.58 1866.182 2828.031 1866.182" fill="none" stroke="#fff200" stroke-miterlimit="10"/>
    <polyline points="3035.834 1533.534 3014.387 1533.534 3014.387 1374.086 3035.834 1374.086" fill="none" stroke="#fff200" stroke-miterlimit="10"/>
    <polyline points="3148.006 1533.534 3169.453 1533.534 3169.453 1374.086 3148.006 1374.086" fill="none" stroke="#fff200" stroke-miterlimit="10"/>
    <polyline points="3562.418 2265.013 3667.259 2265.012 3667.26 716.182 3562.418 716.183" fill="none" stroke="#00aeef" stroke-miterlimit="10" stroke-width="2"/>
    <polyline points="2106.015 2000.516 2084.568 2000.516 2084.568 1979.069 2106.015 1979.069" fill="none" stroke="#fff" stroke-miterlimit="10"/>
    <g>
      <g>
        <path d="M3119.487,1376.377v2.134l-.097.121c-.346,2.338-1.631,4.364-3.585,5.691-.9,7.304-7.554,12.052-14.242,14.048-7.769,2.318-16.915,1.67-24.022-2.348-4.419-2.498-8.005-6.421-8.703-11.543-2.153-1.337-3.545-3.439-3.909-5.949-.399-2.747.638-5.519,2.69-7.374,2.69-2.43,6.609-2.657,9.573-.661,4.051-2.384,8.68-3.583,13.389-3.828l4.153-11.94,8.917,2.133c1.077-1.741,2.872-2.795,4.766-2.943,2.016-.158,3.904.618,5.231,2.159,1.892,2.197,2.005,5.382.29,7.72-1.633,2.227-4.592,3.16-7.269,2.116-2.521-.982-4.24-3.563-3.92-6.414l-6.215-1.49-3.007,8.637c4.878.189,9.59,1.35,13.777,3.75,2.933-1.871,6.664-1.616,9.296.652,1.623,1.399,2.523,3.269,2.885,5.326ZM3108.805,1356.686c-1.985.071-3.413,1.73-3.318,3.623.093,1.856,1.681,3.328,3.58,3.247,1.858-.079,3.359-1.64,3.292-3.549-.064-1.83-1.576-3.392-3.554-3.321ZM3100.863,1395.706c4.671-1.382,9.424-4.263,11.4-8.724,1.091-2.461,1.102-5.112.027-7.582-1.959-4.504-6.761-7.401-11.394-8.779-5.554-1.652-11.496-1.661-17.056-.033-2.84.832-5.432,2.094-7.701,3.939-3.804,3.093-5.842,7.739-3.799,12.406,1.945,4.444,6.663,7.338,11.242,8.72,5.605,1.691,11.604,1.733,17.281.053ZM3074.597,1372.281c-1.483-.594-3.087-.444-4.446.438-2.777,1.801-3.386,5.675-1.191,8.304.744-3.576,2.755-6.402,5.637-8.741ZM3115.613,1380.697c1.94-2.675,1.193-6.275-1.426-7.975-1.276-.828-2.779-1.042-4.243-.502,2.853,2.279,4.781,4.975,5.67,8.477Z" fill="#fff"/>
        <path d="M3099.131,1388.625c.759-.489,1.678-.323,2.097.392.425.726.092,1.541-.628,1.988-2.383,1.479-4.945,2.485-7.791,2.627-3.358.167-6.593-.811-9.376-2.633-.709-.464-1.001-1.273-.574-2.005.412-.706,1.369-.85,2.064-.357,2.575,1.826,5.689,2.61,8.821,2.121,1.956-.305,3.703-1.05,5.387-2.134Z" fill="#fff"/>
        <path d="M3099.108,1376.783c2.068-.434,3.953.908,4.354,2.853.405,1.965-.865,3.901-2.811,4.322-1.967.426-3.885-.795-4.349-2.709-.481-1.986.711-4.027,2.806-4.466Z" fill="#fff"/>
        <path d="M3083.317,1376.774c2.065-.411,3.928.937,4.318,2.886.398,1.991-.906,3.944-2.936,4.321-1.924.357-3.846-.876-4.257-2.856-.4-1.927.785-3.935,2.875-4.351Z" fill="#fff"/>
      </g>
      <g>
        <path d="M3088.214,1420.046c-1.564-.978-2.353-2.719-2.377-4.439-.025-1.771.741-3.493,2.238-4.509,1.527-1.037,3.461-1.045,4.859.174l.019-4.261c.003-.589.489-.982.991-.977.499.005.98.393.98,1.005l.005,12.36c0,.533-.319.963-.746,1.068-.531.131-.989-.155-1.228-.709-1.368,1.192-3.177,1.267-4.741.289ZM3092.184,1418.03c1.336-1.379,1.323-3.599.058-4.966-1.062-1.147-2.756-.977-3.689.246-1.013,1.328-.992,3.245.069,4.527.927,1.12,2.493,1.297,3.563.193Z" fill="#fff"/>
        <path d="M3097.538,1419.396c-2.011-2.068-2.068-5.331-.233-7.476,1.474-1.724,4.039-2.176,5.783-.642l.008-4.261c.001-.59.495-.973.985-.977s.997.373.997.981l-.004,12.636c0,.435-.562.808-.87.841-.461.049-.886-.27-1.1-.723-1.634,1.439-4.084,1.145-5.565-.379ZM3102.689,1417.605c.827-1.255.827-2.882.043-4.098-.479-.743-1.198-1.187-2.028-1.217-.743-.027-1.519.355-2.017,1.007-1,1.31-.994,3.187.011,4.468.543.693,1.222,1.031,2.045.989.729-.037,1.451-.399,1.946-1.149Z" fill="#fff"/>
        <path d="M3079.621,1418.516c1.065.52,2.193.093,2.989-.624.447-.403,1.091-.508,1.499-.117.392.376.434,1.037-.007,1.49-1.639,1.685-4.396,1.981-6.253.434-2.467-2.055-2.571-5.844-.327-8.08,1.799-1.792,4.561-1.688,6.259.156,1.033,1.122,1.825,3.198,1.064,4.001-.281.296-.704.389-1.136.389l-5.757-.012c.167,1.044.734,1.907,1.668,2.363ZM3083.095,1414.454c-.329-1.071-1.01-1.752-1.922-2.078-1.517-.369-2.833.742-3.136,2.1l5.058-.022Z" fill="#fff"/>
        <path d="M3114.314,1419.48c0,.674-.524,1.045-1.031,1.047-.499.001-.964-.42-.965-1.004l-.006-7.16-.824-.048c-.479-.028-.821-.417-.84-.843-.02-.446.329-.858.821-.881l.886-.04-.014-1.284c-.006-.556.306-.982.822-1.07.427-.072,1.088.252,1.112.827l.064,1.529.91.012c.407.005.782.409.819.78.033.336-.272.894-.664.915l-1.083.058-.006,7.162Z" fill="#fff"/>
        <path d="M3071.729,1419.48c-.006.652-.491,1.016-1.003,1.018-.459.001-.976-.401-.976-.978l-.002-7.95c0-.588.498-1.005.978-1.008.544-.003.935.373,1.037,1.009.923-.945,2.189-1.401,3.507-1.161.498.091.806.604.77,1.068-.03.384-.462.899-.992.838-1.645-.19-3.257.953-3.275,2.721l-.044,4.445Z" fill="#fff"/>
        <path d="M3109.385,1419.484c0,.671-.57,1.034-1.033,1.013-.577-.026-.937-.468-.937-1.083l.007-7.076c0-.523.498-.898.934-.925.445-.028,1.021.369,1.021.935l.008,7.135Z" fill="#fff"/>
        <path d="M3107.877,1407.211c1.013-.323,1.91.281,2.18,1.171.262.862-.273,1.8-1.089,2.08-.925.318-1.879-.177-2.202-1.07-.299-.828.134-1.868,1.11-2.18Z" fill="#fff"/>
      </g>
    </g>
    <g>
      <path d="M3104.683,1476.338c-5.297-.011-10.248-.035-15.379-.477-3.224-.278-5.063-2.167-5.578-5.343-.787-4.853-.762-13.367-.031-18.26.188-1.255.698-2.576,1.454-3.533,1.183-1.497,2.942-1.945,4.778-2.05,4.717-.269,9.24-.377,13.982-.368,5.646.011,11.097-.001,16.693.482,3.235.279,4.916,2.958,5.278,6.146.605,5.327.591,10.548.107,15.888-.322,3.551-1.719,6.729-5.406,7.031-5.31.435-10.428.495-15.898.484ZM3092.659,1470.545v-16.394s3.163-.005,3.163-.005l-.003-2.756h-9.02s-.009,2.757-.009,2.757h2.982s-.001,16.422-.001,16.422l2.888-.024ZM3112.997,1461.492c.012-2.57-.131-5.538-2.409-5.516-1.127.011-1.873.657-2.772,1.559l-.025-6.148-2.591-.002v19.188s2.575,0,2.575,0l.119-1.293c.96,1.16,2.09,1.832,3.576,1.35.8-.259,1.343-1.252,1.404-2.165.153-2.31.113-4.532.124-6.975ZM3119.938,1465.569l-.065,1.838c-.02.571-.706,1.072-1.186,1.043-.53-.032-1.17-.554-1.18-1.167l-.054-3.387,5.209.004-.048-3.952c-.027-2.24-1.64-3.91-3.809-3.961-1.985-.046-3.835,1.361-3.968,3.57-.158,2.639-.22,5.364.036,7.946.218,2.19,2.08,3.361,4.036,3.302,1.987-.06,3.545-1.325,3.659-3.37l.105-1.872-2.735.005ZM3103.023,1456.245h-2.723s.002,10.872.002,10.872c-.533.856-1.447,1.575-1.901,1.258-.108-.075-.227-.415-.227-.564l.003-11.569-2.756.003.023,12.565c.001.698.504,1.466.959,1.756,1.251.799,2.701-.149,3.862-1.417l.065,1.428,2.696-.01-.002-14.322Z" fill="#fff"/>
      <path d="M3081.005,1456.038l-.002,14.588-2.741.022-.096-1.432c-1.099,1.31-2.639,2.133-3.864,1.345-.441-.284-.948-1.103-.95-1.798l-.031-12.713h2.854s.027,12.324.027,12.324c.837.183,1.975-.598,1.979-1.446l.04-10.876,2.785-.014Z" fill="#fff"/>
      <polygon points="3064.168 1451.246 3060.569 1462.786 3060.575 1470.639 3057.635 1470.641 3057.641 1462.794 3054.051 1451.275 3057.136 1451.209 3059.098 1458.442 3061.056 1451.203 3064.168 1451.246" fill="#fff"/>
      <path d="M3071.383,1466.785c-.027,2.383-1.611,4.034-3.836,4.111-2.1.072-3.923-1.534-3.992-3.827-.075-2.495-.101-4.995.027-7.455.104-1.99,1.508-3.487,3.335-3.655,2.422-.223,4.299,1.268,4.421,3.756.113,2.305.073,4.647.045,7.07ZM3068.555,1467.238v-7.601c0-.739-.528-1.182-1.165-1.149-.487.025-1.03.461-1.03,1.094l-.002,7.628c0,.64.462,1.212,1.035,1.227.49.012,1.161-.51,1.161-1.199Z" fill="#fff"/>
      <path d="M3109.513,1468.356c-.513.259-1.584-.196-1.695-.721l-.025-8.336c-.001-.491,1.173-1.126,1.933-.734.224.116.485.64.485.928l.007,7.632c0,.412-.268,1.01-.705,1.231Z" fill="#fff"/>
      <path d="M3119.916,1461.646l-2.45.04c-.028-1.045-.09-1.891.21-2.782.21-.624,1.617-.663,1.92-.099.444.827.318,1.592.32,2.841Z" fill="#fff"/>
    </g>
    <g>
      <path d="M3085.277,1532.092c-1.777,3.929-5.682,5.632-9.86,5.633l-13.692.002c-2.731,0-5.567-.799-7.601-2.663-1.586-1.453-2.578-3.393-2.988-5.51-.187-.965-.276-1.902-.324-2.885l-.131-2.653v-8.749s.126-2.477.126-2.477l.121-1.538c.284-3.61,2.073-6.632,5.448-8.126,1.512-.67,3.088-.94,4.733-1.059l1.97-.142h10.987s1.97.141,1.97.141c1.614.116,3.162.376,4.649,1.017,3.45,1.489,5.254,4.529,5.548,8.209l.11,1.373.123,2.531.05,3.52-.052,5.735-.123,2.466-.151,1.765c-.102,1.198-.419,2.322-.911,3.41ZM3075.916,1533.474l1.387-.159c.974-.112,1.877-.429,2.715-.925,1.61-.954,2.353-2.631,2.511-4.463l.131-1.526.047-1.332.068-1.42v-7.953s-.067-1.359-.067-1.359l-.061-1.548-.122-1.362c-.186-2.081-1.093-3.795-3.013-4.708-.822-.391-1.686-.644-2.604-.714l-1.786-.136-7.319-.034-5.784.036-1.721.13c-.832.063-1.6.281-2.364.588-1.336.538-2.345,1.542-2.862,2.888-.338.882-.461,1.782-.513,2.727l-.1,1.791-.035.802-.06,1.669.002,6.529.057,1.553.034.74.095,1.807c.117,2.214.697,4.266,2.731,5.384.815.447,1.677.735,2.606.843l1.26.147,2.43.065h9.984s2.353-.06,2.353-.06Z" fill="#fff"/>
      <path d="M3069.039,1529.085c-5.583.316-9.902-4.529-9.215-10.061.438-3.525,2.956-6.477,6.361-7.431,3.224-.903,6.601.131,8.82,2.605,2.622,2.925,3.016,7.276.984,10.646-1.486,2.465-4.059,4.077-6.95,4.241ZM3073.504,1520.985c.436-2.883-1.538-5.533-4.337-5.891-2.944-.377-5.481,1.827-5.695,4.693-.211,2.821,1.833,5.303,4.668,5.53,2.624.21,4.966-1.701,5.364-4.332Z" fill="#fff"/>
      <path d="M3080.038,1511.759c-.223,1.065-1.086,1.719-2.088,1.687s-1.845-.815-1.938-1.854c-.076-.851.334-1.64,1.042-2.02.758-.406,1.656-.328,2.324.26.524.46.808,1.218.66,1.926Z" fill="#fff"/>
    </g>
    <path d="M3117.443,1503.125c9.598-.694,17.846,6.565,18.524,16.025.684,9.548-6.498,17.843-16.035,18.531-9.509.686-17.788-6.454-18.52-15.96-.731-9.498,6.401-17.899,16.031-18.596ZM3123.827,1515.666c1.112.483,2.02.718,3.134.721l-.008-3.701c-1.81-.055-3.125-1.428-3.136-3.164l-3.71.007v15.156c-.11,1.93-1.854,3.201-3.659,2.795-1.801-.404-2.786-2.338-2.102-4.027.707-1.745,2.777-2.386,4.422-1.391l-.005-3.989c-3.874-.959-7.613,1.576-8.255,5.381-.65,3.858,2.127,7.437,6.006,7.792,3.856.352,7.292-2.676,7.299-6.64l.014-8.941Z" fill="#fff"/>
    <line x1="2468.146" y1="1946.379" x2="3198.035" y2="1946.379" fill="none" stroke="#fff200" stroke-miterlimit="10"/>
    <g>
      <line x1="3198.035" y1="1757.04" x2="3198.035" y2="2210.877" fill="none" stroke="#fff200" stroke-miterlimit="10"/>
      <polygon points="3194.332 2208.068 3198.035 2209.642 3201.738 2208.068 3198.035 2216.847 3194.332 2208.068" fill="#fff200"/>
    </g>
    <line x1="2378.173" y1="1757.982" x2="3198.035" y2="1757.982" fill="none" stroke="#fff200" stroke-miterlimit="10"/>
    <line x1="2858.58" y1="1975.236" x2="2858.58" y2="2234.221" fill="none" stroke="#fff200" stroke-miterlimit="10"/>
    <g>
      <line x1="2520.174" y1="2069.618" x2="2858.58" y2="2069.618" fill="none" stroke="#fff200" stroke-miterlimit="10"/>
      <polygon points="2522.983 2073.321 2521.41 2069.618 2522.983 2065.914 2514.205 2069.618 2522.983 2073.321" fill="#fff200"/>
    </g>
    <g>
      <line x1="2520.174" y1="2148.24" x2="2858.58" y2="2148.24" fill="none" stroke="#fff200" stroke-miterlimit="10"/>
      <polygon points="2522.983 2151.943 2521.41 2148.24 2522.983 2144.537 2514.205 2148.24 2522.983 2151.943" fill="#fff200"/>
    </g>
    <g>
      <line x1="2341.716" y1="2148.24" x2="621.029" y2="2148.24" fill="none" stroke="#fff200" stroke-miterlimit="10"/>
      <polygon points="2338.908 2144.537 2340.481 2148.24 2338.908 2151.943 2347.686 2148.24 2338.908 2144.537" fill="#fff200"/>
    </g>
    <g>
      <line x1="2529.305" y1="2234.221" x2="2858.58" y2="2234.221" fill="none" stroke="#fff200" stroke-miterlimit="10"/>
      <polygon points="2532.113 2237.924 2530.54 2234.221 2532.113 2230.518 2523.335 2234.221 2532.113 2237.924" fill="#fff200"/>
    </g>
    <line x1="1114.21" y1="2234.221" x2="2339.123" y2="2234.221" fill="none" stroke="#fff200" stroke-miterlimit="10"/>
    <line x1="2858.58" y1="2070.76" x2="3504.422" y2="1482.998" fill="none" stroke="#fff200" stroke-miterlimit="10"/>
    <g>
      <line x1="1114.21" y1="1268.716" x2="1114.21" y2="2394.007" fill="none" stroke="#fff200" stroke-miterlimit="10"/>
      <polygon points="1110.507 2391.199 1114.21 2392.772 1117.913 2391.199 1114.21 2399.977 1110.507 2391.199" fill="#fff200"/>
    </g>
    <g>
      <line x1="1114.21" y1="2451.629" x2="1114.21" y2="2505.955" fill="none" stroke="#fff200" stroke-miterlimit="10"/>
      <polygon points="1110.507 2503.147 1114.21 2504.72 1117.913 2503.147 1114.21 2511.925 1110.507 2503.147" fill="#fff200"/>
    </g>
    <g>
      <line x1="1114.21" y1="2549.186" x2="1114.21" y2="2665.572" fill="none" stroke="#fff200" stroke-miterlimit="10"/>
      <polygon points="1110.507 2662.764 1114.21 2664.337 1117.913 2662.764 1114.21 2671.542 1110.507 2662.764" fill="#fff200"/>
    </g>
    <line x1="707.645" y1="799.731" x2="993.159" y2="799.731" fill="none" stroke="#fff" stroke-miterlimit="10"/>
    <line x1="429.289" y1="1106.263" x2="753.289" y2="1106.263" fill="none" stroke="#fff" stroke-miterlimit="10"/>
    <line x1="513.811" y1="716.181" x2="748.289" y2="716.181" fill="none" stroke="#fff" stroke-miterlimit="10"/>
    <line x1="513.811" y1="771.313" x2="748.289" y2="716.181" fill="none" stroke="#fff" stroke-miterlimit="10"/>
    <line x1="429.289" y1="783.187" x2="429.289" y2="1106.107" fill="none" stroke="#fff" stroke-miterlimit="10"/>
    <line x1="513.811" y1="771.313" x2="720.159" y2="771.313" fill="none" stroke="#fff" stroke-miterlimit="10"/>
    <line x1="701.333" y1="1031.194" x2="1044.898" y2="1031.194" fill="none" stroke="#fff" stroke-miterlimit="10"/>
    <line x1="513.811" y1="716.182" x2="720.159" y2="771.313" fill="none" stroke="#fff" stroke-miterlimit="10"/>
    <g>
      <path d="M4311.491,771.83c-3.823-.489-6.441-3.708-6.451-7.283s2.632-6.75,6.314-7.301c4.487-.672,8.406,2.698,8.529,7.054.125,4.451-3.658,8.137-8.391,7.531ZM4312.647,769.24c2.713-.103,4.366-2.326,4.384-4.695s-1.697-4.545-4.248-4.71c-2.783-.18-4.879,2.069-4.883,4.704-.004,2.468,1.937,4.808,4.747,4.701Z" fill="#00aeef"/>
      <path d="M4366.843,768.569l-6.685-.014-1.194,3.131-2.891-.011,5.779-14.24,3.311-.065,5.768,14.299-2.941.027-1.146-3.128ZM4365.841,766.166l-2.365-5.824-2.392,5.853,4.757-.028Z" fill="#00aeef"/>
      <path d="M4321.376,775.804v-14.335s2.587-.026,2.587-.026l.256,1.062c1.417-1.414,3.475-1.577,5.356-.775,1.641.7,2.812,2.424,2.947,4.458.138,2.083-.858,4.093-2.488,5.004-1.933,1.081-4.056.97-5.948-.378l-.031,4.984-2.679.007ZM4326.252,769.493c1.994.453,3.488-1.081,3.555-2.773.071-1.776-1.303-3.331-3.226-3.115-1.534.172-2.489,1.484-2.54,2.871-.046,1.251.679,2.668,2.21,3.017Z" fill="#00aeef"/>
      <path d="M4341.283,768.476l2.543.036c-.608,2.219-2.513,3.26-4.64,3.395-3.19.202-5.618-2.128-5.605-5.31.013-3.254,2.586-5.622,5.86-5.325,3.06.277,5.003,2.948,4.496,6.149l-7.716.028c.269,1.255,1.126,2.004,1.98,2.205,1.236.291,2.223-.021,3.082-1.178ZM4341.445,765.502c-.437-1.764-1.599-2.132-2.851-2.062-1.035.058-2.133.864-2.276,2.09l5.127-.029Z" fill="#00aeef"/>
      <path d="M4348.201,765.359l-.107,6.324-2.683-.003-.002-10.166,2.552-.089.244,1.089c1.108-1.234,2.746-1.528,4.379-1.01,1.388.441,2.441,1.94,2.446,3.679l.02,6.497-2.693.014v-5.821c0-1.204-.57-2.132-1.699-2.298-.904-.133-2.433.398-2.457,1.784Z" fill="#00aeef"/>
      <polygon points="4374.755 771.655 4372.024 771.681 4372.023 757.407 4374.753 757.388 4374.755 771.655" fill="#00aeef"/>
    </g>
    <line x1="3562.418" y1="716.182" x2="993.159" y2="716.182" fill="none" stroke="#00aeef" stroke-miterlimit="10" stroke-width="2"/>
  </g>
</svg>